<svg width="27" height="37" viewBox="0 0 27 37" fill="none" xmlns="http://www.w3.org/2000/svg">
<path d="M24.2637 0.993408H2.74805C1.26502 0.993408 0.0585938 2.41274 0.0585938 4.15747V33.8293C0.0585938 35.5741 1.26502 36.9934 2.74805 36.9934H24.2637C25.7467 36.9934 26.9531 35.5741 26.9531 33.8293V4.15747C26.9531 2.41274 25.7467 0.993408 24.2637 0.993408ZM25.1602 33.8293C25.1602 34.4113 24.7583 34.884 24.2637 34.884H2.74805C2.25343 34.884 1.85156 34.4113 1.85156 33.8293V4.15747C1.85156 3.57556 2.25343 3.10278 2.74805 3.10278H24.2637C24.7583 3.10278 25.1602 3.57556 25.1602 4.15747V33.8293ZM8.12695 18.009H4.54102C4.0455 18.009 3.64453 18.4808 3.64453 19.0637V23.2825C3.64453 23.8654 4.0455 24.3372 4.54102 24.3372H8.12695C8.62247 24.3372 9.02344 23.8654 9.02344 23.2825V19.0637C9.02344 18.4808 8.62247 18.009 8.12695 18.009ZM7.23047 22.2278H5.4375V20.1184H7.23047V22.2278ZM8.12695 26.4465H4.54102C4.0455 26.4465 3.64453 26.9183 3.64453 27.5012V31.72C3.64453 32.3029 4.0455 32.7747 4.54102 32.7747H8.12695C8.62247 32.7747 9.02344 32.3029 9.02344 31.72V27.5012C9.02344 26.9183 8.62247 26.4465 8.12695 26.4465ZM7.23047 30.6653H5.4375V28.5559H7.23047V30.6653ZM22.4707 5.21216H4.54102C4.0455 5.21216 3.64453 5.68388 3.64453 6.26685V14.845C3.64453 15.4279 4.0455 15.8997 4.54102 15.8997H22.4707C22.9662 15.8997 23.3672 15.4279 23.3672 14.845V6.26685C23.3672 5.68388 22.9662 5.21216 22.4707 5.21216ZM21.5742 13.7903H5.4375V7.32153H21.5742V13.7903ZM22.4707 26.4465H11.7129C11.2174 26.4465 10.8164 26.9183 10.8164 27.5012V31.72C10.8164 32.3029 11.2174 32.7747 11.7129 32.7747H22.4707C22.9662 32.7747 23.3672 32.3029 23.3672 31.72V27.5012C23.3672 26.9183 22.9662 26.4465 22.4707 26.4465ZM21.5742 30.6653H12.6094V28.5559H21.5742V30.6653ZM11.7129 24.3372H15.2988C15.7943 24.3372 16.1953 23.8654 16.1953 23.2825V19.0637C16.1953 18.4808 15.7943 18.009 15.2988 18.009H11.7129C11.2174 18.009 10.8164 18.4808 10.8164 19.0637V23.2825C10.8164 23.8654 11.2174 24.3372 11.7129 24.3372ZM12.6094 20.1184H14.4023V22.2278H12.6094V20.1184ZM22.4707 18.009H18.8848C18.3892 18.009 17.9883 18.4808 17.9883 19.0637V23.2825C17.9883 23.8654 18.3892 24.3372 18.8848 24.3372H22.4707C22.9662 24.3372 23.3672 23.8654 23.3672 23.2825V19.0637C23.3672 18.4808 22.9662 18.009 22.4707 18.009ZM21.5742 22.2278H19.7812V20.1184H21.5742V22.2278Z" fill="#C5C5C5"/>
</svg>
