<svg width="30" height="40" viewBox="0 0 30 40" fill="none" xmlns="http://www.w3.org/2000/svg">
<path d="M15 0C11.0231 0.00446645 7.21041 1.58625 4.39833 4.39833C1.58625 7.21041 0.00446645 11.0231 0 15C0 25.5687 13.2571 38.9475 13.8215 39.5119C14.1361 39.8205 14.5592 39.9934 15 39.9934C15.4408 39.9934 15.8639 39.8205 16.1785 39.5119C16.7429 38.9475 30 25.5687 30 15C29.9955 11.0231 28.4137 7.21041 25.6017 4.39833C22.7896 1.58625 18.9769 0.00446645 15 0V0ZM15 25C13.0222 25 11.0888 24.4135 9.4443 23.3147C7.79981 22.2159 6.51808 20.6541 5.7612 18.8268C5.00433 16.9996 4.80629 14.9889 5.19215 13.0491C5.578 11.1093 6.53041 9.32746 7.92893 7.92893C9.32746 6.53041 11.1093 5.578 13.0491 5.19215C14.9889 4.80629 16.9996 5.00433 18.8268 5.7612C20.6541 6.51808 22.2159 7.79981 23.3147 9.4443C24.4135 11.0888 25 13.0222 25 15C25 17.6522 23.9464 20.1957 22.0711 22.0711C20.1957 23.9464 17.6522 25 15 25Z" fill="#C5C5C5"/>
<path d="M22.0089 12.5119C21.9981 12.4988 21.989 12.4861 21.9762 12.4734L21.4155 11.9051C21.8806 11.7943 22.3812 11.3851 22.3812 10.9653C22.3812 10.4762 21.7349 10.3027 21.1834 10.3027C20.6067 10.3027 20.5397 10.7177 20.5329 11.0109L19.0862 9.54604C18.7923 9.24044 18.2349 9 17.8182 9H15.0007H15H12.1818C11.7655 9 11.2083 9.24044 10.9141 9.54604L9.46779 11.0109C9.46028 10.7177 9.39334 10.3027 8.81729 10.3027C8.26508 10.3027 7.61915 10.4762 7.61915 10.9653C7.61915 11.3851 8.12009 11.7943 8.58511 11.9051L8.02441 12.4734C8.01167 12.4861 8.00286 12.4988 7.99175 12.5119C7.39187 13.0504 7 14.0491 7 14.7739V16.9275C7 17.4502 7.19626 17.9246 7.51335 18.2782V19.1134C7.51335 19.6018 7.9026 20 8.38134 20H9.43089C9.90963 20 10.2986 19.6025 10.2986 19.1134V18.8997H15H15.0007H19.7018V19.1134C19.7018 19.6025 20.0904 20 20.5698 20H21.619C22.098 20 22.4867 19.6018 22.4867 19.1134V18.2782C22.8041 17.9246 23 17.4502 23 16.9275V14.7739C23.0007 14.0491 22.6088 13.0504 22.0089 12.5119ZM11.4454 10.197C11.6489 10.019 12.0045 9.88388 12.1818 9.88388H15H15.0007H17.8188C17.9962 9.88388 18.3518 10.019 18.5552 10.197L20.4522 12.1281H15.0007H15H9.54878L11.4454 10.197ZM7.65083 14.448C7.65083 13.9178 8.04596 13.4873 8.53384 13.4873C9.02139 13.4873 10.6147 14.4696 10.6147 14.9999C10.6147 15.5302 9.02139 15.4074 8.53384 15.4074C8.04596 15.4074 7.65083 14.9786 7.65083 14.448ZM10.2989 17.9554H10.1307H9.96253L8.9649 17.9572C8.68797 17.8666 8.49269 17.761 8.35456 17.6474C8.28468 17.5902 8.23112 17.5305 8.18932 17.4711C8.1472 17.4111 8.1165 17.3521 8.09658 17.2931C7.97249 16.9248 8.22883 16.5862 8.22883 16.5862H9.9315L11.0666 17.9548L10.2989 17.9554ZM17.4485 17.9561H15.0007H15H12.5521C12.0417 17.9561 11.6273 17.5209 11.6273 16.9851H15H15.0007H18.3733C18.3733 17.5216 17.9589 17.9561 17.4485 17.9561ZM17.6634 16.3225H15.0007H15H12.3373C11.7821 16.3225 11.3315 15.6036 11.3315 14.7169H15H15.0007H18.6692C18.6692 15.6039 18.2185 16.3225 17.6634 16.3225ZM21.9044 17.2938C21.8842 17.3528 21.8535 17.4118 21.8113 17.4715C21.7699 17.5308 21.7163 17.5905 21.6461 17.6478C21.5083 17.7613 21.3127 17.8676 21.0358 17.9575L20.0381 17.9558H19.8699H19.7018H18.9334L20.0691 16.5873H21.7715C21.7715 16.5869 22.0282 16.9248 21.9044 17.2938ZM21.4668 15.4074C20.9796 15.4074 19.3863 15.5295 19.3863 14.9999C19.3863 14.4703 20.9796 13.4873 21.4668 13.4873C21.9547 13.4873 22.3498 13.9178 22.3498 14.448C22.3498 14.978 21.9547 15.4074 21.4668 15.4074Z" fill="#C5C5C5"/>
</svg>
