<?xml version="1.0" encoding="utf-8"?>
<!-- Generator: Adobe Illustrator 24.0.2, SVG Export Plug-In . SVG Version: 6.00 Build 0)  -->
<svg version="1.1" id="Layer_1" xmlns="http://www.w3.org/2000/svg" xmlns:xlink="http://www.w3.org/1999/xlink" x="0px" y="0px"
	 viewBox="0 0 17 28" enable-background="new 0 0 17 28" xml:space="preserve">
<path fill="#656565" d="M16.9,25.8V2.2c0-1.2-1-2.2-2.2-2.2H2.2C1,0,0,1,0,2.2v23.7C0,27,1,28,2.2,28h12.5
	C15.9,28,16.9,27,16.9,25.8z M1.4,5h14.1V21H1.4V5z M2.2,1.4h12.5c0.4,0,0.8,0.3,0.8,0.8v1.5H1.4V2.2C1.4,1.7,1.8,1.4,2.2,1.4z
	 M1.4,25.8v-3.5h14.1v3.5c0,0.4-0.3,0.8-0.8,0.8H2.2C1.8,26.6,1.4,26.2,1.4,25.8z"/>
<path fill="#656565" d="M2.2,1.4h12.5c0.4,0,0.8,0.3,0.8,0.8v1.5H1.4V2.2C1.4,1.7,1.8,1.4,2.2,1.4z"/>
<path fill="#656565" d="M1.4,25.8v-3.5h14.1v3.5c0,0.4-0.3,0.8-0.8,0.8H2.2C1.8,26.6,1.4,26.2,1.4,25.8z"/>
</svg>
