<svg width="20" height="28" viewBox="0 0 20 28" fill="none" xmlns="http://www.w3.org/2000/svg">
<path d="M10 0C4.4861 0 0 4.18704 0 9.33335C0 10.8783 0.413847 12.4101 1.20058 13.7687L9.45315 27.6992C9.56301 27.8849 9.77236 28 10 28C10.2276 28 10.437 27.8849 10.5469 27.6992L18.8025 13.7641C19.5862 12.4101 20 10.8782 20 9.3333C20 4.18704 15.5139 0 10 0ZM10 14C7.24305 14 5.00003 11.9065 5.00003 9.33335C5.00003 6.7602 7.24305 4.6667 10 4.6667C12.7569 4.6667 15 6.7602 15 9.33335C15 11.9065 12.7569 14 10 14Z" fill="#656565"/>
</svg>
