<?xml version="1.0" encoding="utf-8"?>
<!-- Generator: Adobe Illustrator 24.0.2, SVG Export Plug-In . SVG Version: 6.00 Build 0)  -->
<svg version="1.1" id="Layer_1" xmlns="http://www.w3.org/2000/svg" xmlns:xlink="http://www.w3.org/1999/xlink" x="0px" y="0px"
	 viewBox="0 0 20 28" enable-background="new 0 0 20 28" xml:space="preserve">
<path fill="#656565" d="M10,0C4.5,0,0,4.2,0,9.3c0,1.5,0.4,3.1,1.2,4.4l8.3,13.9C9.6,27.9,9.8,28,10,28c0.2,0,0.4-0.1,0.5-0.3
	l8.3-13.9c0.8-1.4,1.2-2.9,1.2-4.4C20,4.2,15.5,0,10,0z M10,14c-2.8,0-5-2.1-5-4.7s2.2-4.7,5-4.7c2.8,0,5,2.1,5,4.7S12.8,14,10,14z"
	/>
</svg>
