<?xml version="1.0" encoding="utf-8"?>
<!-- Generator: Adobe Illustrator 24.0.2, SVG Export Plug-In . SVG Version: 6.00 Build 0)  -->
<svg version="1.1" id="Layer_1" xmlns="http://www.w3.org/2000/svg" xmlns:xlink="http://www.w3.org/1999/xlink" x="0px" y="0px"
	 viewBox="0 0 28 28" enable-background="new 0 0 28 28" xml:space="preserve">
<g>
	<defs>
		<rect id="SVGID_1_" width="28" height="28"/>
	</defs>
	<clipPath id="SVGID_2_">
		<use xlink:href="#SVGID_1_"  overflow="visible"/>
	</clipPath>
	<g clip-path="url(#SVGID_2_)">
		<path fill="#656565" d="M25.5,3.3H2.5c-0.4,0-0.7,0.1-1.1,0.2l12.5,12.5l2.8-2.7c0,0,0,0,0,0c0,0,0,0,0,0l9.8-9.8
			C26.3,3.4,25.9,3.3,25.5,3.3z"/>
		<path fill="#656565" d="M27.8,4.7L18.5,14l9.3,9.3c0.2-0.3,0.2-0.7,0.2-1.1V5.8C28,5.4,27.9,5.1,27.8,4.7z"/>
		<path fill="#656565" d="M0.2,4.7C0.1,5.1,0,5.4,0,5.8v16.4c0,0.4,0.1,0.7,0.2,1.1L9.5,14L0.2,4.7z"/>
		<path fill="#656565" d="M17.3,15.2l-2.8,2.7c-0.2,0.2-0.4,0.2-0.6,0.2c-0.2,0-0.4-0.1-0.6-0.2l-2.7-2.7l-9.3,9.3
			c0.3,0.2,0.7,0.2,1.1,0.2h23.1c0.4,0,0.7-0.1,1.1-0.2L17.3,15.2z"/>
	</g>
</g>
</svg>
