<svg width="19" height="19" viewBox="0 0 19 19" fill="none" xmlns="http://www.w3.org/2000/svg">
<path d="M10.9475 9.59059L9.3602 8.00326C9.21496 7.85802 8.98323 7.84768 8.82526 7.97867L0.77039 14.6922C0.30926 15.0764 0.0291227 15.6415 0.00215063 16.2415C-0.0248215 16.8415 0.202935 17.4288 0.627568 17.8534L1.09818 18.324C1.50295 18.7288 2.04106 18.9518 2.61327 18.9518C3.25138 18.9518 3.85139 18.6708 4.26013 18.1811L10.9729 10.1262C11.1031 9.96753 11.0927 9.7358 10.9475 9.59059Z" fill="#1A1C1E"/>
<path d="M18.2735 7.39259C17.6013 6.72037 16.4314 6.72037 15.7592 7.39259L12.1568 10.995C11.4631 11.6887 11.4631 12.8157 12.1584 13.5109C12.6076 13.9602 13.206 14.2078 13.8417 14.2078C14.4774 14.2078 15.0758 13.9601 15.5251 13.5109L18.2751 10.7609C19.2037 9.83232 19.2037 8.32196 18.2735 7.39259Z" fill="#1A1C1E"/>
<path d="M12.5158 3.2229C12.4054 3.4126 12.2785 3.59355 12.1189 3.75308L8.51651 7.35551C8.35698 7.51504 8.17603 7.64123 7.98633 7.75235L11.1991 10.9651C11.3094 10.7754 11.4364 10.5944 11.5959 10.4349L15.1983 6.83247C15.3579 6.67295 15.542 6.54914 15.7348 6.44199L12.5158 3.2229Z" fill="#1A1C1E"/>
<path d="M11.5566 0.675888C10.6573 -0.223343 9.08903 -0.223343 8.18984 0.675888L5.43979 3.42593C4.51199 4.35373 4.51199 5.86405 5.44139 6.7942C5.77793 7.12992 6.22392 7.31486 6.69856 7.31486C7.17319 7.31486 7.62 7.12992 7.95572 6.7942L11.5582 3.19177C12.2518 2.49816 12.2518 1.37035 11.5566 0.675888Z" fill="#1A1C1E"/>
<path d="M17.0141 16.6174H12.3513C11.2577 16.6174 10.3672 17.5079 10.3672 18.6016C10.3672 18.8206 10.545 18.9984 10.764 18.9984H18.6014C18.8205 18.9984 18.9983 18.8206 18.9983 18.6016C18.9982 17.5071 18.1085 16.6174 17.0141 16.6174Z" fill="#1A1C1E"/>
</svg>
