<svg width="19" height="19" viewBox="0 0 19 19" fill="none" xmlns="http://www.w3.org/2000/svg">
<path d="M9.5 0C4.26149 0 0 4.26149 0 9.5C0 14.7385 4.26149 19 9.5 19C14.7385 19 19 14.7385 19 9.5C19 4.26149 14.7385 0 9.5 0ZM14.0181 14.4138C13.8637 14.5682 13.661 14.6459 13.4584 14.6459C13.2557 14.6459 13.0529 14.5682 12.8987 14.4138L8.94032 10.4556C8.79144 10.3076 8.70838 10.1064 8.70838 9.89588V4.75C8.70838 4.31223 9.06295 3.95838 9.5 3.95838C9.93705 3.95838 10.2916 4.31223 10.2916 4.75V9.56813L14.0181 13.2944C14.3276 13.6041 14.3276 14.1043 14.0181 14.4138V14.4138Z" fill="#1A1C1E"/>
</svg>
