<svg width="19" height="19" viewBox="0 0 19 19" fill="none" xmlns="http://www.w3.org/2000/svg">
<g clip-path="url(#clip0)">
<path d="M3.16602 5.34375C3.16602 3.27038 4.85306 1.58333 6.92643 1.58333H14.1567C13.8963 0.672125 13.0658 0 12.0723 0H2.9681C1.76714 0 0.791016 0.976125 0.791016 2.17708V14.4479C0.791016 15.6489 1.76714 16.625 2.9681 16.625H3.16602V5.34375Z" fill="url(#paint0_linear)"/>
<path d="M16.0312 3.16675H6.92708C5.72612 3.16675 4.75 4.14287 4.75 5.34383V16.823C4.75 18.024 5.72612 19.0001 6.92708 19.0001H16.0312C17.2322 19.0001 18.2083 18.024 18.2083 16.823V5.34383C18.2083 4.14287 17.2322 3.16675 16.0312 3.16675ZM14.4479 16.6251H8.51042C8.18267 16.6251 7.91667 16.3591 7.91667 16.0313C7.91667 15.7036 8.18267 15.4376 8.51042 15.4376H14.4479C14.7757 15.4376 15.0417 15.7036 15.0417 16.0313C15.0417 16.3591 14.7757 16.6251 14.4479 16.6251ZM14.4479 13.4584H8.51042C8.18267 13.4584 7.91667 13.1924 7.91667 12.8647C7.91667 12.5369 8.18267 12.2709 8.51042 12.2709H14.4479C14.7757 12.2709 15.0417 12.5369 15.0417 12.8647C15.0417 13.1924 14.7757 13.4584 14.4479 13.4584ZM14.4479 10.6876H8.51042C8.18267 10.6876 7.91667 10.4216 7.91667 10.0938C7.91667 9.76608 8.18267 9.50008 8.51042 9.50008H14.4479C14.7757 9.50008 15.0417 9.76608 15.0417 10.0938C15.0417 10.4216 14.7757 10.6876 14.4479 10.6876ZM14.4479 7.52091H8.51042C8.18267 7.52091 7.91667 7.25491 7.91667 6.92716C7.91667 6.59941 8.18267 6.33341 8.51042 6.33341H14.4479C14.7757 6.33341 15.0417 6.59941 15.0417 6.92716C15.0417 7.25491 14.7757 7.52091 14.4479 7.52091Z" fill="url(#paint1_linear)"/>
</g>
<defs>
<linearGradient id="paint0_linear" x1="7.47387" y1="0" x2="7.47387" y2="16.625" gradientUnits="userSpaceOnUse">
<stop stop-color="#121773"/>
<stop offset="1" stop-color="#0D1038"/>
</linearGradient>
<linearGradient id="paint1_linear" x1="11.4792" y1="3.16675" x2="11.4792" y2="19.0001" gradientUnits="userSpaceOnUse">
<stop stop-color="#121773"/>
<stop offset="1" stop-color="#0D1038"/>
</linearGradient>
<clipPath id="clip0">
<rect width="19" height="19" fill="white"/>
</clipPath>
</defs>
</svg>
