<svg width="28" height="28" viewBox="0 0 28 28" fill="none" xmlns="http://www.w3.org/2000/svg">
<path d="M11.3056 21.1737L22.7255 14.5073C22.9047 14.4031 23.015 14.2093 23.015 14.0006C23.015 13.7919 22.9047 13.5982 22.7255 13.4937L11.3056 6.82641C11.1264 6.72193 10.9058 6.72193 10.7266 6.82641C10.5474 6.9309 10.4371 7.12436 10.4371 7.33334V10.4372H0.579001C0.259393 10.4372 0 10.6995 0 11.0226V16.9769C0 17.3 0.259393 17.5623 0.579001 17.5623H10.4374V20.6659C10.4374 20.8754 10.5477 21.0683 10.7269 21.1728C10.8166 21.2255 10.9165 21.2512 11.0164 21.2512C11.1162 21.2512 11.2161 21.2255 11.3056 21.1737Z" fill="url(#paint0_linear)"/>
<path d="M23.3485 0H11.5517C11.232 0 10.9727 0.262243 10.9727 0.585364V2.34146C10.9727 2.66458 11.232 2.92682 11.5517 2.92682H23.3485C24.1105 2.92682 24.7297 3.55345 24.7297 4.3232V23.6768C24.7297 24.4468 24.1099 25.0732 23.3485 25.0732H11.5517C11.232 25.0732 10.9727 25.3354 10.9727 25.6585V27.4146C10.9727 27.7378 11.232 28 11.5517 28H23.3485C25.7068 28 27.6247 26.0604 27.6247 23.6768V4.3235C27.6247 1.9396 25.7065 0 23.3485 0Z" fill="url(#paint1_linear)"/>
<defs>
<linearGradient id="paint0_linear" x1="11.5075" y1="6.74805" x2="11.5075" y2="21.2512" gradientUnits="userSpaceOnUse">
<stop stop-color="#121773"/>
<stop offset="1" stop-color="#0D1038"/>
</linearGradient>
<linearGradient id="paint1_linear" x1="19.2987" y1="0" x2="19.2987" y2="28" gradientUnits="userSpaceOnUse">
<stop stop-color="#121773"/>
<stop offset="1" stop-color="#0D1038"/>
</linearGradient>
</defs>
</svg>
