<svg width="19" height="19" viewBox="0 0 19 19" fill="none" xmlns="http://www.w3.org/2000/svg">
<path d="M19 2.17708C19 0.976125 18.0239 0 16.8229 0H2.17708C0.976125 0 0 0.976125 0 2.17708V16.8229C0 18.0239 0.976125 19 2.17708 19H16.8229C18.0239 19 19 18.0239 19 16.8229V2.17708ZM14.3149 6.36738C14.6245 6.67692 14.6245 7.17725 14.3149 7.48679L9.16908 12.6326C9.01471 12.787 8.81204 12.8646 8.60938 12.8646C8.40671 12.8646 8.20404 12.787 8.04967 12.6326L5.47675 10.0597C5.16721 9.75017 5.16721 9.24983 5.47675 8.94029C5.78629 8.63075 6.28662 8.63075 6.59617 8.94029L8.60938 10.9535L13.1955 6.36738C13.505 6.05783 14.0054 6.05783 14.3149 6.36738V6.36738Z" fill="#1A1C1E"/>
</svg>
