<svg width="18" height="19" viewBox="0 0 18 19" fill="none" xmlns="http://www.w3.org/2000/svg">
<path d="M13.6029 8.66044C13.5067 8.44788 13.2953 8.3125 13.0626 8.3125H10.6876V0.59375C10.6876 0.266 10.4216 0 10.0938 0H7.71882C7.39107 0 7.12507 0.266 7.12507 0.59375V8.3125H4.75007C4.51732 8.3125 4.30595 8.44906 4.20976 8.66044C4.11239 8.873 4.15039 9.12119 4.30357 9.29694L8.45982 14.0469C8.57263 14.1764 8.73532 14.25 8.90632 14.25C9.07732 14.25 9.24001 14.1752 9.35282 14.0469L13.5091 9.29694C13.6634 9.12237 13.6991 8.873 13.6029 8.66044Z" fill="url(#paint0_linear)"/>
<path d="M15.4375 13.0625V16.625H2.375V13.0625H0V17.8125C0 18.4692 0.532 19 1.1875 19H16.625C17.2817 19 17.8125 18.4692 17.8125 17.8125V13.0625H15.4375Z" fill="url(#paint1_linear)"/>
<defs>
<linearGradient id="paint0_linear" x1="8.90621" y1="0" x2="8.90621" y2="14.25" gradientUnits="userSpaceOnUse">
<stop stop-color="#121773"/>
<stop offset="1" stop-color="#0D1038"/>
</linearGradient>
<linearGradient id="paint1_linear" x1="8.90625" y1="13.0625" x2="8.90625" y2="19" gradientUnits="userSpaceOnUse">
<stop stop-color="#121773"/>
<stop offset="1" stop-color="#0D1038"/>
</linearGradient>
</defs>
</svg>
