<svg width="22" height="22" viewBox="0 0 22 22" fill="none" xmlns="http://www.w3.org/2000/svg">
<path d="M8.88295 16.6364L17.8558 11.3985C17.9966 11.3167 18.0832 11.1644 18.0832 11.0005C18.0832 10.8365 17.9966 10.6843 17.8558 10.6022L8.88295 5.36357C8.74215 5.28148 8.56882 5.28148 8.42802 5.36357C8.28722 5.44567 8.20056 5.59768 8.20056 5.76187V8.20065H0.454929C0.203808 8.20065 0 8.40669 0 8.66057V13.339C0 13.5929 0.203808 13.7989 0.454929 13.7989H8.20079V16.2374C8.20079 16.4021 8.28745 16.5536 8.42825 16.6357C8.49876 16.6771 8.57724 16.6974 8.65572 16.6974C8.73419 16.6974 8.81267 16.6771 8.88295 16.6364Z" fill="#BBBABA"/>
<path d="M18.345 0H9.07602C8.8249 0 8.62109 0.206048 8.62109 0.459929V1.83971C8.62109 2.0936 8.8249 2.29964 9.07602 2.29964H18.345C18.9437 2.29964 19.4302 2.792 19.4302 3.3968V18.6032C19.4302 19.2082 18.9432 19.7004 18.345 19.7004H9.07602C8.8249 19.7004 8.62109 19.9064 8.62109 20.1603V21.5401C8.62109 21.794 8.8249 22 9.07602 22H18.345C20.1979 22 21.7049 20.476 21.7049 18.6032V3.39703C21.7049 1.52397 20.1977 0 18.345 0Z" fill="#BBBABA"/>
</svg>
