<svg width="22" height="22" viewBox="0 0 22 22" fill="none" xmlns="http://www.w3.org/2000/svg">
<g clip-path="url(#clip0)">
<path d="M19.4501 18.3334L20.7004 16.9584H21.3127C21.6922 16.9584 22.0002 16.6504 22.0002 16.2709C22.0002 15.8914 21.6922 15.5834 21.3127 15.5834H20.3988C20.3979 15.5834 20.3951 15.5825 20.3933 15.5834H0.687727C0.484227 15.5834 0.290811 15.6742 0.159727 15.8309C0.0286438 15.9867 -0.0254395 16.1939 0.0112272 16.3947L0.364144 18.3334H19.4501Z" fill="#1A1C1E"/>
<path d="M0.53125 19.25L0.929083 21.4353C0.98775 21.7626 1.27283 22 1.60467 22H15.813C16.0064 22 16.1916 21.9184 16.3218 21.7745L18.6171 19.25H0.53125Z" fill="#1A1C1E"/>
<path d="M4.125 9.16659V5.27075C4.125 4.89125 3.817 4.58325 3.4375 4.58325H0.6875C0.308 4.58325 0 4.89125 0 5.27075V9.16659H4.125Z" fill="#1A1C1E"/>
<path d="M4.125 14.6666V10.7707C4.125 10.3913 3.817 10.0833 3.4375 10.0833H0.6875C0.308 10.0833 0 10.3913 0 10.7707V14.6666H4.125Z" fill="#1A1C1E"/>
<path d="M9.16602 14.6666V10.7707C9.16602 10.3913 8.85802 10.0833 8.47852 10.0833H5.72852C5.34902 10.0833 5.04102 10.3913 5.04102 10.7707V14.6666H9.16602Z" fill="#1A1C1E"/>
<path d="M15.5833 14.6667V11.6875C15.5833 11.308 15.2753 11 14.8958 11H11.6875C11.308 11 11 11.308 11 11.6875V14.6667H15.5833Z" fill="#1A1C1E"/>
<path d="M21.0833 14.6667V11.6875C21.0833 11.308 20.7753 11 20.3958 11H17.1875C16.808 11 16.5 11.308 16.5 11.6875V14.6667H21.0833Z" fill="#1A1C1E"/>
<path d="M17.4173 10.0834V7.10425C17.4173 6.72475 17.1093 6.41675 16.7298 6.41675H13.5215C13.142 6.41675 12.834 6.72475 12.834 7.10425V10.0834H17.4173Z" fill="#1A1C1E"/>
</g>
<defs>
<clipPath id="clip0">
<rect width="22" height="22" fill="white"/>
</clipPath>
</defs>
</svg>
