<svg width="28" height="28" viewBox="0 0 28 28" fill="none" xmlns="http://www.w3.org/2000/svg">
<path d="M7.29112 21.6198C5.42337 21.6198 3.76198 20.4239 3.1587 18.6435L3.11789 18.5094C2.97562 18.0379 2.91602 17.6414 2.91602 17.2447V9.29004L0.0856547 18.738C-0.278368 20.1276 0.551151 21.5683 1.94294 21.9522L19.9836 26.7836C20.2088 26.842 20.434 26.8699 20.6557 26.8699C21.8176 26.8699 22.8794 26.0987 23.177 24.9622L24.228 21.6198H7.29112Z" fill="url(#paint0_linear)"/>
<path d="M10.4995 9.36932C11.7864 9.36932 12.8327 8.32275 12.8327 7.03585C12.8327 5.74896 11.7864 4.70239 10.4995 4.70239C9.21258 4.70239 8.16602 5.74896 8.16602 7.03585C8.16602 8.32275 9.21258 9.36932 10.4995 9.36932Z" fill="url(#paint1_linear)"/>
<path d="M25.0831 1.20239H7.58268C5.97513 1.20239 4.66602 2.51151 4.66602 4.11927V16.9528C4.66602 18.5605 5.97513 19.8697 7.58268 19.8697H25.0831C26.6909 19.8697 28 18.5605 28 16.9528V4.11927C28 2.51151 26.6909 1.20239 25.0831 1.20239ZM7.58268 3.53585H25.0831C25.4053 3.53585 25.6665 3.79712 25.6665 4.11927V12.4016L21.981 8.10109C21.5901 7.64264 21.0242 7.39761 20.4164 7.38373C19.812 7.38715 19.2451 7.65546 18.8578 8.11989L14.5245 13.3209L13.1129 11.9126C12.315 11.1147 11.0163 11.1147 10.2195 11.9126L6.99948 15.1316V4.11927C6.99948 3.79712 7.26075 3.53585 7.58268 3.53585Z" fill="url(#paint2_linear)"/>
<defs>
<linearGradient id="paint0_linear" x1="12.114" y1="9.29004" x2="12.114" y2="26.8699" gradientUnits="userSpaceOnUse">
<stop stop-color="#121773"/>
<stop offset="1" stop-color="#0D1038"/>
</linearGradient>
<linearGradient id="paint1_linear" x1="10.4994" y1="4.70239" x2="10.4994" y2="9.36932" gradientUnits="userSpaceOnUse">
<stop stop-color="#121773"/>
<stop offset="1" stop-color="#0D1038"/>
</linearGradient>
<linearGradient id="paint2_linear" x1="16.333" y1="1.20239" x2="16.333" y2="19.8697" gradientUnits="userSpaceOnUse">
<stop stop-color="#121773"/>
<stop offset="1" stop-color="#0D1038"/>
</linearGradient>
</defs>
</svg>
