<svg width="24" height="24" viewBox="0 0 24 24" fill="none" xmlns="http://www.w3.org/2000/svg">
<g clip-path="url(#clip0)">
<path d="M11.829 11.5609C13.4172 11.5609 14.7925 10.9912 15.9162 9.86733C17.0399 8.74362 17.6096 7.36868 17.6096 5.78025C17.6096 4.19237 17.0399 2.81725 15.916 1.69317C14.7921 0.569639 13.417 0 11.829 0C10.2405 0 8.86559 0.569639 7.74188 1.69335C6.61816 2.81707 6.04834 4.19218 6.04834 5.78025C6.04834 7.36868 6.61816 8.7438 7.74206 9.86751C8.86596 10.991 10.2411 11.5609 11.829 11.5609Z" fill="#EFEFEF"/>
<path d="M21.9747 18.8619C21.9423 18.3942 21.8768 17.8841 21.7803 17.3454C21.6828 16.8027 21.5574 16.2896 21.4073 15.8207C21.2522 15.336 21.0412 14.8573 20.7805 14.3987C20.5099 13.9226 20.192 13.5081 19.8353 13.1669C19.4623 12.8101 19.0057 12.5231 18.4776 12.3138C17.9514 12.1057 17.3682 12.0002 16.7443 12.0002C16.4993 12.0002 16.2624 12.1007 15.8048 12.3986C15.5232 12.5823 15.1938 12.7947 14.8261 13.0296C14.5117 13.2299 14.0858 13.4176 13.5598 13.5875C13.0465 13.7536 12.5254 13.8378 12.0111 13.8378C11.4967 13.8378 10.9758 13.7536 10.462 13.5875C9.93649 13.4178 9.51059 13.2301 9.19657 13.0298C8.83237 12.7971 8.50278 12.5847 8.21696 12.3984C7.75993 12.1005 7.52281 12 7.27781 12C6.65379 12 6.07079 12.1057 5.54472 12.314C5.01702 12.5229 4.56017 12.8099 4.18682 13.1671C3.83032 13.5084 3.51226 13.9228 3.242 14.3987C2.98144 14.8573 2.7705 15.3358 2.61523 15.8208C2.46527 16.2898 2.33984 16.8027 2.24243 17.3454C2.14593 17.8833 2.08038 18.3937 2.04797 18.8624C2.01611 19.3216 2 19.7982 2 20.2796C2 21.5324 2.39825 22.5466 3.18359 23.2946C3.95922 24.0327 4.98552 24.4072 6.23356 24.4072H17.7897C19.0377 24.4072 20.0637 24.0329 20.8395 23.2946C21.625 22.5472 22.0232 21.5328 22.0232 20.2794C22.0231 19.7959 22.0068 19.3189 21.9747 18.8619Z" fill="#EFEFEF"/>
</g>
<defs>
<clipPath id="clip0">
<rect width="23.9999" height="24" fill="white"/>
</clipPath>
</defs>
</svg>
