<?xml version="1.0" encoding="utf-8"?>
<!-- Generator: Adobe Illustrator 24.1.2, SVG Export Plug-In . SVG Version: 6.00 Build 0)  -->
<svg version="1.1" id="Layer_1" xmlns="http://www.w3.org/2000/svg" xmlns:xlink="http://www.w3.org/1999/xlink" x="0px" y="0px"
	 viewBox="0 0 30 40" enable-background="new 0 0 30 40" xml:space="preserve">
<path d="M15,0C11,0,7.2,1.6,4.4,4.4S0,11,0,15c0,10.6,13.3,23.9,13.8,24.5c0.3,0.3,0.7,0.5,1.2,0.5s0.9-0.2,1.2-0.5
	C16.7,38.9,30,25.6,30,15c0-4-1.6-7.8-4.4-10.6C22.8,1.6,19,0,15,0L15,0z M15,25c-2,0-3.9-0.6-5.6-1.7c-1.6-1.1-2.9-2.7-3.7-4.5
	C5,17,4.8,15,5.2,13c0.4-1.9,1.3-3.7,2.7-5.1c1.4-1.4,3.2-2.4,5.1-2.7C15,4.8,17,5,18.8,5.8c1.8,0.8,3.4,2,4.5,3.7
	C24.4,11.1,25,13,25,15c0,2.7-1.1,5.2-2.9,7.1C20.2,23.9,17.7,25,15,25z"/>
<path d="M22,12.5C22,12.5,22,12.5,22,12.5l-0.6-0.6c0.5-0.1,1-0.5,1-0.9c0-0.5-0.6-0.7-1.2-0.7c-0.6,0-0.6,0.4-0.7,0.7l-1.4-1.5
	C18.8,9.2,18.2,9,17.8,9H15h0h-2.8c-0.4,0-1,0.2-1.3,0.5L9.5,11c0-0.3-0.1-0.7-0.7-0.7c-0.6,0-1.2,0.2-1.2,0.7c0,0.4,0.5,0.8,1,0.9
	L8,12.5c0,0,0,0,0,0c-0.6,0.5-1,1.5-1,2.3v2.2c0,0.5,0.2,1,0.5,1.4v0.8c0,0.5,0.4,0.9,0.9,0.9h1c0.5,0,0.9-0.4,0.9-0.9v-0.2H15h0
	h4.7v0.2c0,0.5,0.4,0.9,0.9,0.9h1c0.5,0,0.9-0.4,0.9-0.9v-0.8c0.3-0.4,0.5-0.8,0.5-1.4v-2.2C23,14,22.6,13.1,22,12.5z M11.4,10.2
	c0.2-0.2,0.6-0.3,0.7-0.3H15h0h2.8c0.2,0,0.5,0.1,0.7,0.3l1.9,1.9H15h0H9.5L11.4,10.2z M7.7,14.4c0-0.5,0.4-1,0.9-1
	c0.5,0,2.1,1,2.1,1.5S9,15.4,8.5,15.4C8,15.4,7.7,15,7.7,14.4z M10.3,18h-0.2H10l-1,0c-0.3-0.1-0.5-0.2-0.6-0.3
	c-0.1-0.1-0.1-0.1-0.2-0.2c0-0.1-0.1-0.1-0.1-0.2c-0.1-0.4,0.1-0.7,0.1-0.7h1.7l1.1,1.4L10.3,18z M17.4,18H15h0h-2.4
	c-0.5,0-0.9-0.4-0.9-1H15h0h3.4C18.4,17.5,18,18,17.4,18z M17.7,16.3H15h0h-2.7c-0.6,0-1-0.7-1-1.6H15h0h3.7
	C18.7,15.6,18.2,16.3,17.7,16.3z M21.9,17.3c0,0.1-0.1,0.1-0.1,0.2c0,0.1-0.1,0.1-0.2,0.2c-0.1,0.1-0.3,0.2-0.6,0.3l-1,0h-0.2h-0.2
	h-0.8l1.1-1.4h1.7C21.8,16.6,22,16.9,21.9,17.3z M21.5,15.4c-0.5,0-2.1,0.1-2.1-0.4s1.6-1.5,2.1-1.5c0.5,0,0.9,0.4,0.9,1
	C22.3,15,22,15.4,21.5,15.4z"/>
</svg>
