<svg width="690" height="524" viewBox="0 0 690 524" fill="none" xmlns="http://www.w3.org/2000/svg">
<g filter="url(#filter0_d)">
<rect x="10" y="10" width="670" height="504" fill="#EFEFEF"/>
</g>
<path d="M345.182 348.817C415.36 348.817 472.251 315.951 472.251 275.41C472.251 234.868 415.36 202.002 345.182 202.002C275.004 202.002 218.113 234.868 218.113 275.41C218.113 315.951 275.004 348.817 345.182 348.817Z" fill="#C9BCAD"/>
<path d="M280.216 193.862C271.322 196.877 262.881 200.645 255.194 205.017C205.602 233.656 205.602 280.082 255.194 308.872C304.785 337.512 385.277 337.512 435.02 308.872C442.707 304.501 449.038 299.527 454.464 294.402L280.216 193.862Z" fill="#234970"/>
<path d="M455.067 293.95C483.556 265.913 476.773 229.134 435.17 205.017C393.417 180.899 329.958 177.131 281.27 193.561L455.067 293.95Z" fill="#234970"/>
<path d="M392.908 250.452H304.371V256.393C304.254 263.034 308.565 269.674 317.302 274.683C334.544 284.702 362.619 284.702 379.861 274.683C388.598 269.674 392.908 262.917 392.792 256.393C392.908 256.393 392.908 250.452 392.908 250.452Z" fill="#FF9238"/>
<path d="M348.64 275.965C373.089 275.965 392.909 264.542 392.909 250.452C392.909 236.362 373.089 224.939 348.64 224.939C324.191 224.939 304.371 236.362 304.371 250.452C304.371 264.542 324.191 275.965 348.64 275.965Z" fill="#FFC366"/>
<path d="M388.831 250.452C388.831 250.802 388.831 251.151 388.831 251.384C388.365 256.51 384.637 261.519 377.997 265.48C370.192 270.14 359.824 272.703 348.756 272.703C337.689 272.703 327.204 270.14 319.516 265.48C312.875 261.519 309.031 256.51 308.565 251.384C308.565 251.035 308.565 250.685 308.565 250.452C308.565 244.977 312.409 239.618 319.516 235.424C327.204 230.764 337.689 228.201 348.756 228.201C359.824 228.201 370.308 230.764 377.997 235.424C384.987 239.618 388.831 244.977 388.831 250.452Z" fill="#FF9238"/>
<path d="M388.831 251.384C388.365 256.51 384.637 261.519 377.997 265.48C370.192 270.14 359.824 272.703 348.756 272.703C337.689 272.703 327.204 270.14 319.516 265.48C312.875 261.519 309.031 256.51 308.565 251.384C309.031 246.258 312.875 241.249 319.516 237.288C327.204 232.628 337.689 230.065 348.756 230.065C359.824 230.065 370.308 232.628 377.997 237.288C384.521 241.249 388.365 246.258 388.831 251.384Z" fill="#FFC366"/>
<path d="M367.046 262.684C365.299 263.616 363.551 264.315 361.687 264.898C359.823 265.364 358.192 265.713 356.562 265.946C354.931 266.179 353.533 266.179 352.251 265.946C350.97 265.83 350.038 265.597 349.455 265.131C349.106 264.898 348.873 264.665 348.64 264.432C348.407 264.199 348.29 263.849 348.174 263.5C348.174 263.15 348.174 262.917 348.29 262.568C348.407 262.335 348.64 262.102 348.989 261.869C349.455 261.636 350.038 261.519 350.97 261.519C351.785 261.519 352.834 261.519 353.999 261.403C355.164 261.286 356.445 261.17 357.843 260.937C359.241 260.704 360.639 260.238 362.153 259.539L349.921 251.967C348.29 252.433 346.543 252.782 344.795 253.132C343.048 253.481 341.3 253.714 339.553 253.831C337.806 253.947 336.058 253.714 334.311 253.365C332.563 253.015 330.816 252.316 329.185 251.268C327.554 250.219 326.505 249.287 325.923 248.239C325.34 247.19 325.224 246.142 325.34 245.093C325.573 244.045 326.039 243.113 326.971 242.181C327.787 241.249 328.835 240.433 330 239.618L328.486 238.686C328.136 238.453 328.02 238.22 328.136 237.987C328.136 237.637 328.486 237.404 328.952 237.171C329.301 236.938 329.884 236.822 330.466 236.822C331.049 236.822 331.515 236.822 331.864 237.055L333.262 237.987C334.194 237.521 335.243 236.938 336.524 236.473C337.806 236.007 338.971 235.541 340.135 235.308C341.3 234.958 342.465 234.842 343.514 234.842C344.562 234.842 345.378 234.958 346.077 235.424C346.31 235.541 346.543 235.774 346.776 236.007C347.009 236.24 347.242 236.589 347.358 236.822C347.475 237.171 347.475 237.404 347.358 237.754C347.242 238.103 347.009 238.336 346.543 238.569C346.193 238.802 345.727 238.919 345.261 239.035C344.679 239.152 344.096 239.268 343.397 239.385C342.698 239.501 341.883 239.734 340.951 239.967C340.019 240.2 339.087 240.55 338.039 241.016L348.64 247.54C350.271 247.19 352.018 246.724 353.766 246.491C355.513 246.142 357.261 246.025 359.124 246.025C360.872 246.025 362.736 246.258 364.483 246.608C366.347 247.074 368.095 247.773 369.842 248.938C372.988 250.918 374.619 252.899 374.502 255.112C374.386 257.209 373.104 259.189 370.425 261.053L372.172 262.102C372.522 262.335 372.638 262.568 372.522 262.917C372.405 263.267 372.172 263.5 371.706 263.733C371.24 263.966 370.658 264.082 370.192 264.082C369.609 264.082 369.26 263.966 368.91 263.849L367.046 262.684ZM334.078 248.122C334.777 248.588 335.592 248.938 336.408 249.054C337.223 249.287 338.039 249.287 338.971 249.287C339.786 249.287 340.718 249.171 341.65 249.054C342.582 248.938 343.514 248.705 344.562 248.472L335.126 242.647C333.728 243.579 332.913 244.511 332.563 245.559C332.214 246.375 332.68 247.307 334.078 248.122ZM364.6 252.083C362.969 251.035 361.221 250.569 359.474 250.569C357.726 250.569 355.863 250.802 353.882 251.151L364.833 257.908C366.114 256.859 366.697 255.927 366.697 254.995C366.813 253.947 366.114 253.015 364.6 252.083Z" fill="#FF9238"/>
<path d="M395.938 243.113H307.4V249.054C307.284 255.694 311.594 262.335 320.331 267.344C337.573 277.363 365.649 277.363 382.89 267.344C391.627 262.335 395.938 255.578 395.821 249.054C395.938 249.054 395.938 243.113 395.938 243.113Z" fill="#FF9238"/>
<path d="M351.669 268.625C376.118 268.625 395.938 257.203 395.938 243.113C395.938 229.022 376.118 217.6 351.669 217.6C327.22 217.6 307.4 229.022 307.4 243.113C307.4 257.203 327.22 268.625 351.669 268.625Z" fill="#FFC366"/>
<path d="M391.86 243.113C391.86 243.462 391.86 243.812 391.86 244.045C391.395 249.171 387.667 254.18 381.026 258.141C373.221 262.801 362.853 265.364 351.786 265.364C340.718 265.364 330.234 262.801 322.545 258.141C315.905 254.18 312.06 249.171 311.594 244.045C311.594 243.695 311.594 243.462 311.594 243.113C311.594 237.637 315.439 232.278 322.545 228.085C330.234 223.425 340.718 220.862 351.786 220.862C362.853 220.862 373.338 223.425 381.026 228.085C387.9 232.278 391.86 237.637 391.86 243.113Z" fill="#FF9238"/>
<path d="M391.744 244.045C391.278 249.171 387.55 254.18 380.91 258.141C373.104 262.801 362.736 265.364 351.669 265.364C340.602 265.364 330.117 262.801 322.428 258.141C315.788 254.18 311.944 249.171 311.478 244.045C311.944 238.919 315.788 233.91 322.428 229.949C330.117 225.289 340.602 222.726 351.669 222.726C362.736 222.726 373.221 225.289 380.91 229.949C387.55 233.91 391.394 238.919 391.744 244.045Z" fill="#FFC366"/>
<path d="M370.076 255.345C368.328 256.277 366.581 256.976 364.717 257.558C362.853 258.024 361.222 258.374 359.591 258.607C357.96 258.84 356.562 258.84 355.28 258.607C353.999 258.49 353.067 258.257 352.485 257.791C352.135 257.558 351.902 257.325 351.669 257.092C351.436 256.859 351.32 256.51 351.203 256.16C351.203 255.811 351.203 255.578 351.32 255.228C351.436 254.995 351.669 254.762 352.019 254.529C352.485 254.296 353.067 254.18 353.999 254.18C354.814 254.18 355.863 254.18 357.028 254.063C358.193 253.947 359.474 253.83 360.872 253.597C362.27 253.364 363.668 252.898 365.183 252.199L352.951 244.627C351.32 245.093 349.572 245.443 347.825 245.792C346.077 246.142 344.33 246.375 342.582 246.491C340.835 246.608 339.087 246.375 337.34 246.025C335.593 245.676 333.845 244.977 332.214 243.928C330.583 242.88 329.535 241.948 328.952 240.899C328.37 239.851 328.253 238.802 328.37 237.754C328.603 236.705 329.069 235.773 330.001 234.841C330.816 233.909 331.865 233.094 333.03 232.278L331.515 231.346C331.166 231.113 331.049 230.88 331.166 230.647C331.166 230.298 331.515 230.065 331.981 229.832C332.331 229.599 332.913 229.483 333.496 229.483C334.078 229.483 334.544 229.483 334.894 229.716L336.291 230.647C337.223 230.182 338.272 229.599 339.553 229.133C340.835 228.667 342 228.201 343.165 227.968C344.33 227.619 345.495 227.502 346.543 227.502C347.592 227.502 348.407 227.619 349.106 228.085C349.339 228.201 349.572 228.434 349.805 228.667C350.038 228.9 350.271 229.25 350.388 229.483C350.504 229.832 350.504 230.065 350.388 230.414C350.271 230.764 350.038 230.997 349.572 231.23C349.223 231.463 348.757 231.579 348.291 231.696C347.708 231.812 347.126 231.929 346.427 232.045C345.728 232.162 344.912 232.395 343.98 232.628C343.048 232.861 342.116 233.21 341.068 233.676L351.669 240.2C353.3 239.851 355.047 239.385 356.795 239.152C358.542 238.802 360.29 238.686 362.154 238.686C363.901 238.686 365.765 238.919 367.513 239.268C369.377 239.734 371.124 240.433 372.871 241.598C376.017 243.579 377.648 245.559 377.531 247.773C377.415 249.869 376.133 251.85 373.454 253.714L375.201 254.762C375.551 254.995 375.667 255.228 375.551 255.578C375.434 255.927 375.201 256.16 374.735 256.393C374.269 256.626 373.687 256.743 373.221 256.743C372.638 256.743 372.289 256.626 371.939 256.51L370.076 255.345ZM337.107 240.783C337.806 241.249 338.621 241.598 339.437 241.715C340.252 241.948 341.068 241.948 342 241.948C342.815 241.948 343.747 241.831 344.679 241.715C345.611 241.598 346.543 241.365 347.592 241.132L338.155 235.307C336.757 236.239 335.942 237.171 335.593 238.22C335.127 239.035 335.709 239.967 337.107 240.783ZM367.629 244.744C365.998 243.695 364.251 243.229 362.503 243.229C360.756 243.229 358.892 243.462 356.911 243.812L367.862 250.568C369.144 249.52 369.726 248.588 369.726 247.656C369.843 246.608 369.144 245.676 367.629 244.744Z" fill="#FF9238"/>
<path d="M392.908 234.958H304.371V240.899C304.254 247.54 308.565 254.18 317.302 259.189C334.544 269.208 362.619 269.208 379.861 259.189C388.598 254.18 392.908 247.423 392.792 240.899C392.908 240.899 392.908 234.958 392.908 234.958Z" fill="#FF9238"/>
<path d="M348.64 260.471C373.089 260.471 392.909 249.048 392.909 234.958C392.909 220.868 373.089 209.445 348.64 209.445C324.191 209.445 304.371 220.868 304.371 234.958C304.371 249.048 324.191 260.471 348.64 260.471Z" fill="#FFC366"/>
<path d="M388.831 234.958C388.831 235.307 388.831 235.657 388.831 235.89C388.365 241.016 384.637 246.025 377.997 249.986C370.192 254.646 359.824 257.209 348.756 257.209C337.689 257.209 327.204 254.646 319.516 249.986C312.875 246.025 309.031 241.016 308.565 235.89C308.565 235.54 308.565 235.191 308.565 234.958C308.565 229.483 312.409 224.124 319.516 219.93C327.204 215.27 337.689 212.707 348.756 212.707C359.824 212.707 370.308 215.27 377.997 219.93C384.987 224.124 388.831 229.483 388.831 234.958Z" fill="#FF9238"/>
<path d="M388.831 235.89C388.365 241.016 384.637 246.025 377.997 249.986C370.192 254.646 359.824 257.209 348.756 257.209C337.689 257.209 327.204 254.646 319.516 249.986C312.875 246.025 309.031 241.016 308.565 235.89C309.031 230.764 312.875 225.755 319.516 221.794C327.204 217.134 337.689 214.571 348.756 214.571C359.824 214.571 370.308 217.134 377.997 221.794C384.521 225.755 388.365 230.764 388.831 235.89Z" fill="#FFC366"/>
<path d="M367.046 247.19C365.299 248.122 363.551 248.821 361.687 249.403C359.823 249.869 358.192 250.219 356.562 250.452C354.931 250.685 353.533 250.685 352.251 250.452C350.97 250.335 350.038 250.102 349.455 249.636C349.106 249.403 348.873 249.17 348.64 248.937C348.407 248.704 348.29 248.355 348.174 248.005C348.174 247.656 348.174 247.423 348.29 247.074C348.407 246.841 348.64 246.608 348.989 246.375C349.455 246.142 350.038 246.025 350.97 246.025C351.785 246.025 352.834 246.025 353.999 245.909C355.164 245.792 356.445 245.676 357.843 245.443C359.241 245.21 360.639 244.744 362.153 244.045L349.921 236.472C348.29 236.938 346.543 237.288 344.795 237.637C343.048 237.987 341.3 238.22 339.553 238.336C337.806 238.453 336.058 238.22 334.311 237.87C332.563 237.521 330.816 236.822 329.185 235.773C327.554 234.725 326.505 233.793 325.923 232.744C325.34 231.696 325.224 230.647 325.34 229.599C325.573 228.551 326.039 227.619 326.971 226.687C327.787 225.755 328.835 224.939 330 224.124L328.486 223.192C328.136 222.959 328.02 222.726 328.136 222.493C328.136 222.143 328.486 221.91 328.952 221.677C329.301 221.444 329.884 221.328 330.466 221.328C331.049 221.328 331.515 221.328 331.864 221.561L333.262 222.493C334.194 222.027 335.243 221.444 336.524 220.978C337.806 220.512 338.971 220.046 340.135 219.813C341.3 219.464 342.465 219.347 343.514 219.347C344.562 219.347 345.378 219.464 346.077 219.93C346.31 220.046 346.543 220.279 346.776 220.512C347.009 220.745 347.242 221.095 347.358 221.328C347.475 221.677 347.475 221.91 347.358 222.26C347.242 222.609 347.009 222.842 346.543 223.075C346.193 223.308 345.727 223.425 345.261 223.541C344.679 223.658 344.096 223.774 343.397 223.891C342.698 224.007 341.883 224.24 340.951 224.473C340.019 224.706 339.087 225.056 338.039 225.522L348.64 232.045C350.271 231.696 352.018 231.23 353.766 230.997C355.513 230.647 357.261 230.531 359.124 230.531C360.872 230.531 362.736 230.764 364.483 231.113C366.347 231.579 368.095 232.278 369.842 233.443C372.988 235.424 374.619 237.404 374.502 239.618C374.386 241.715 373.104 243.695 370.425 245.559L372.172 246.608C372.522 246.841 372.638 247.074 372.522 247.423C372.405 247.772 372.172 248.005 371.706 248.238C371.24 248.471 370.658 248.588 370.192 248.588C369.609 248.588 369.26 248.471 368.91 248.355L367.046 247.19ZM334.078 232.744C334.777 233.21 335.592 233.56 336.408 233.676C337.223 233.909 338.039 233.909 338.971 233.909C339.786 233.909 340.718 233.793 341.65 233.676C342.582 233.56 343.514 233.327 344.562 233.094L335.126 227.269C333.728 228.201 332.913 229.133 332.563 230.181C332.214 230.997 332.68 231.812 334.078 232.744ZM364.6 236.705C362.969 235.657 361.221 235.191 359.474 235.191C357.726 235.191 355.863 235.424 353.882 235.773L364.833 242.53C366.114 241.482 366.697 240.55 366.697 239.618C366.813 238.569 366.114 237.637 364.6 236.705Z" fill="#FF9238"/>
<path d="M392.908 227.269H304.371V233.21C304.254 239.851 308.565 246.491 317.302 251.5C334.544 261.519 362.619 261.519 379.861 251.5C388.598 246.491 392.908 239.734 392.792 233.21C392.908 233.21 392.908 227.269 392.908 227.269Z" fill="#FF9238"/>
<path d="M348.64 252.782C373.089 252.782 392.909 241.359 392.909 227.269C392.909 213.179 373.089 201.756 348.64 201.756C324.191 201.756 304.371 213.179 304.371 227.269C304.371 241.359 324.191 252.782 348.64 252.782Z" fill="#FFC366"/>
<path d="M388.831 227.269C388.831 227.619 388.831 227.968 388.831 228.201C388.365 233.327 384.637 238.336 377.997 242.297C370.192 246.957 359.824 249.52 348.756 249.52C337.689 249.52 327.204 246.957 319.516 242.297C312.875 238.336 309.031 233.327 308.565 228.201C308.565 227.852 308.565 227.502 308.565 227.269C308.565 221.794 312.409 216.435 319.516 212.241C327.204 207.581 337.689 205.018 348.756 205.018C359.824 205.018 370.308 207.581 377.997 212.241C384.987 216.435 388.831 221.794 388.831 227.269Z" fill="#FF9238"/>
<path d="M388.831 228.201C388.365 233.327 384.637 238.336 377.997 242.297C370.192 246.957 359.824 249.52 348.756 249.52C337.689 249.52 327.204 246.957 319.516 242.297C312.875 238.336 309.031 233.327 308.565 228.201C309.031 223.075 312.875 218.066 319.516 214.105C327.204 209.445 337.689 206.882 348.756 206.882C359.824 206.882 370.308 209.445 377.997 214.105C384.521 218.066 388.365 223.075 388.831 228.201Z" fill="#FFC366"/>
<path d="M367.046 239.501C365.299 240.433 363.551 241.132 361.687 241.715C359.823 242.181 358.192 242.53 356.562 242.763C354.931 242.996 353.533 242.996 352.251 242.763C350.97 242.647 350.038 242.414 349.455 241.948C349.106 241.715 348.873 241.482 348.64 241.249C348.407 241.016 348.29 240.666 348.174 240.317C348.174 239.967 348.174 239.734 348.29 239.385C348.407 239.152 348.64 238.919 348.989 238.686C349.455 238.453 350.038 238.336 350.97 238.336C351.785 238.336 352.834 238.336 353.999 238.22C355.164 238.103 356.445 237.987 357.843 237.754C359.241 237.521 360.639 237.055 362.153 236.356L349.921 228.784C348.29 229.25 346.543 229.599 344.795 229.949C343.048 230.298 341.3 230.531 339.553 230.648C337.806 230.764 336.058 230.531 334.311 230.182C332.563 229.832 330.816 229.133 329.185 228.085C327.554 227.036 326.505 226.104 325.923 225.056C325.34 224.007 325.224 222.959 325.34 221.91C325.573 220.862 326.039 219.93 326.971 218.998C327.787 218.066 328.835 217.25 330 216.435L328.486 215.503C328.136 215.27 328.02 215.037 328.136 214.804C328.136 214.454 328.486 214.221 328.952 213.989C329.301 213.756 329.884 213.639 330.466 213.639C331.049 213.639 331.515 213.639 331.864 213.872L333.262 214.804C334.194 214.338 335.243 213.756 336.524 213.29C337.806 212.824 338.971 212.358 340.135 212.125C341.3 211.775 342.465 211.659 343.514 211.659C344.562 211.659 345.378 211.775 346.077 212.241C346.31 212.358 346.543 212.591 346.776 212.824C347.009 213.057 347.242 213.406 347.358 213.639C347.475 213.989 347.475 214.221 347.358 214.571C347.242 214.92 347.009 215.153 346.543 215.386C346.193 215.619 345.727 215.736 345.261 215.852C344.679 215.969 344.096 216.085 343.397 216.202C342.698 216.318 341.883 216.551 340.951 216.784C340.019 217.017 339.087 217.367 338.039 217.833L348.64 224.357C350.271 224.007 352.018 223.541 353.766 223.308C355.513 222.959 357.261 222.842 359.124 222.842C360.872 222.842 362.736 223.075 364.483 223.425C366.347 223.891 368.095 224.59 369.842 225.755C372.988 227.735 374.619 229.716 374.502 231.929C374.386 234.026 373.104 236.006 370.425 237.87L372.172 238.919C372.522 239.152 372.638 239.385 372.522 239.734C372.405 240.084 372.172 240.317 371.706 240.55C371.24 240.783 370.658 240.899 370.192 240.899C369.609 240.899 369.26 240.783 368.91 240.666L367.046 239.501ZM334.078 224.939C334.777 225.405 335.592 225.755 336.408 225.871C337.223 226.104 338.039 226.104 338.971 226.104C339.786 226.104 340.718 225.988 341.65 225.871C342.582 225.755 343.514 225.522 344.562 225.289L335.126 219.464C333.728 220.396 332.913 221.328 332.563 222.376C332.214 223.192 332.68 224.124 334.078 224.939ZM364.6 228.9C362.969 227.852 361.221 227.386 359.474 227.386C357.726 227.386 355.863 227.619 353.882 227.968L364.833 234.725C366.114 233.676 366.697 232.744 366.697 231.813C366.813 230.764 366.114 229.832 364.6 228.9Z" fill="#FF9238"/>
<path d="M393.957 219.697H305.42V225.638C305.303 232.279 309.614 238.919 318.351 243.928C335.592 253.947 363.668 253.947 380.91 243.928C389.647 238.919 393.957 232.162 393.841 225.638C393.957 225.638 393.957 219.697 393.957 219.697Z" fill="#FF9238"/>
<path d="M349.688 245.21C374.137 245.21 393.957 233.787 393.957 219.697C393.957 205.607 374.137 194.184 349.688 194.184C325.239 194.184 305.419 205.607 305.419 219.697C305.419 233.787 325.239 245.21 349.688 245.21Z" fill="#FFC366"/>
<path d="M389.88 219.697C389.88 220.046 389.88 220.396 389.88 220.629C389.414 225.755 385.686 230.764 379.046 234.725C371.241 239.385 360.872 241.948 349.805 241.948C338.738 241.948 328.253 239.385 320.564 234.725C313.924 230.764 310.08 225.755 309.614 220.629C309.614 220.279 309.614 219.93 309.614 219.697C309.614 214.222 313.458 208.863 320.564 204.669C328.253 200.009 338.738 197.446 349.805 197.446C360.872 197.446 371.357 200.009 379.046 204.669C386.036 208.746 389.88 214.105 389.88 219.697Z" fill="#FF9238"/>
<path d="M389.88 220.629C389.414 225.755 385.686 230.764 379.046 234.725C371.241 239.385 360.872 241.948 349.805 241.948C338.738 241.948 328.253 239.385 320.564 234.725C313.924 230.764 310.08 225.755 309.614 220.629C310.08 215.503 313.924 210.494 320.564 206.533C328.253 201.873 338.738 199.31 349.805 199.31C360.872 199.31 371.357 201.873 379.046 206.533C385.57 210.494 389.414 215.503 389.88 220.629Z" fill="#FFC366"/>
<path d="M368.095 231.929C366.348 232.861 364.6 233.56 362.736 234.142C360.872 234.608 359.241 234.958 357.61 235.191C355.979 235.424 354.581 235.424 353.3 235.191C352.019 235.074 351.087 234.841 350.504 234.375C350.155 234.142 349.922 233.909 349.689 233.676C349.456 233.443 349.339 233.094 349.223 232.745C349.223 232.395 349.223 232.162 349.339 231.813C349.456 231.58 349.689 231.347 350.038 231.114C350.504 230.881 351.087 230.764 352.019 230.764C352.834 230.764 353.882 230.764 355.047 230.648C356.212 230.531 357.494 230.415 358.892 230.182C360.29 229.949 361.688 229.483 363.202 228.784L350.97 221.211C349.339 221.677 347.592 222.027 345.844 222.376C344.097 222.726 342.349 222.959 340.602 223.075C338.854 223.192 337.107 222.959 335.359 222.609C333.612 222.26 331.865 221.561 330.234 220.512C328.603 219.464 327.554 218.532 326.972 217.483C326.389 216.435 326.273 215.386 326.389 214.338C326.622 213.29 327.088 212.358 328.02 211.426C328.836 210.494 329.884 209.678 331.049 208.863L329.535 207.931C329.185 207.698 329.069 207.465 329.185 207.232C329.185 206.882 329.535 206.649 330.001 206.416C330.35 206.183 330.933 206.067 331.515 206.067C332.098 206.067 332.564 206.067 332.913 206.3L334.311 207.232C335.243 206.766 336.291 206.183 337.573 205.717C338.854 205.251 340.019 204.785 341.184 204.552C342.349 204.203 343.514 204.086 344.563 204.086C345.611 204.086 346.427 204.203 347.126 204.669C347.359 204.785 347.592 205.018 347.825 205.251C348.058 205.484 348.291 205.834 348.407 206.067C348.524 206.416 348.524 206.649 348.407 206.999C348.291 207.348 348.058 207.581 347.592 207.814C347.242 208.047 346.776 208.164 346.31 208.28C345.728 208.397 345.145 208.513 344.446 208.63C343.747 208.746 342.932 208.979 342 209.212C341.068 209.445 340.136 209.795 339.087 210.261L349.689 216.784C351.32 216.435 353.067 215.969 354.814 215.736C356.562 215.386 358.309 215.27 360.173 215.27C361.921 215.27 363.785 215.503 365.532 215.852C367.396 216.318 369.144 217.017 370.891 218.182C374.036 220.163 375.667 222.143 375.551 224.357C375.434 226.454 374.153 228.434 371.473 230.298L373.221 231.347C373.57 231.58 373.687 231.813 373.57 232.162C373.454 232.512 373.221 232.745 372.755 232.977C372.289 233.21 371.706 233.327 371.24 233.327C370.658 233.327 370.309 233.21 369.959 233.094L368.095 231.929ZM335.126 217.367C335.825 217.833 336.641 218.182 337.456 218.299C338.272 218.532 339.087 218.532 340.019 218.532C340.835 218.532 341.767 218.415 342.699 218.299C343.631 218.182 344.563 217.949 345.611 217.716L336.175 211.892C334.777 212.824 333.962 213.756 333.612 214.804C333.263 215.619 333.729 216.551 335.126 217.367ZM365.649 221.328C364.018 220.279 362.27 219.813 360.523 219.813C358.775 219.813 356.911 220.046 354.931 220.396L365.882 227.153C367.163 226.104 367.746 225.172 367.746 224.24C367.862 223.192 367.163 222.26 365.649 221.328Z" fill="#FF9238"/>
<path d="M395.938 211.542H307.4V217.483C307.284 224.124 311.594 230.764 320.331 235.773C337.573 245.792 365.649 245.792 382.89 235.773C391.627 230.764 395.938 224.007 395.821 217.483C395.938 217.483 395.938 211.542 395.938 211.542Z" fill="#FF9238"/>
<path d="M351.669 237.055C376.118 237.055 395.938 225.632 395.938 211.542C395.938 197.452 376.118 186.029 351.669 186.029C327.22 186.029 307.4 197.452 307.4 211.542C307.4 225.632 327.22 237.055 351.669 237.055Z" fill="#FFC366"/>
<path d="M391.86 211.542C391.86 211.892 391.86 212.241 391.86 212.474C391.395 217.6 387.667 222.609 381.026 226.57C373.221 231.23 362.853 233.793 351.786 233.793C340.718 233.793 330.234 231.23 322.545 226.57C315.905 222.609 312.06 217.6 311.594 212.474C311.594 212.125 311.594 211.892 311.594 211.542C311.594 206.067 315.439 200.708 322.545 196.514C330.234 191.854 340.718 189.291 351.786 189.291C362.853 189.291 373.338 191.854 381.026 196.514C387.9 200.708 391.86 206.067 391.86 211.542Z" fill="#FF9238"/>
<path d="M391.744 212.474C391.278 217.6 387.55 222.609 380.91 226.57C373.104 231.23 362.736 233.793 351.669 233.793C340.602 233.793 330.117 231.23 322.428 226.57C315.788 222.609 311.944 217.6 311.478 212.474C311.944 207.348 315.788 202.339 322.428 198.378C330.117 193.718 340.602 191.155 351.669 191.155C362.736 191.155 373.221 193.718 380.91 198.378C387.55 202.339 391.394 207.348 391.744 212.474Z" fill="#FFC366"/>
<path d="M370.076 223.774C368.328 224.706 366.581 225.405 364.717 225.988C362.853 226.454 361.222 226.803 359.591 227.036C357.96 227.269 356.562 227.269 355.28 227.036C353.999 226.92 353.067 226.687 352.485 226.221C352.135 225.988 351.902 225.755 351.669 225.522C351.436 225.289 351.32 224.939 351.203 224.59C351.203 224.24 351.203 224.007 351.32 223.658C351.436 223.425 351.669 223.192 352.019 222.959C352.485 222.726 353.067 222.609 353.999 222.609C354.814 222.609 355.863 222.609 357.028 222.493C358.193 222.376 359.474 222.26 360.872 222.027C362.27 221.794 363.668 221.328 365.183 220.629L352.951 213.056C351.32 213.522 349.572 213.872 347.825 214.221C346.077 214.571 344.33 214.804 342.582 214.92C340.835 215.037 339.087 214.804 337.34 214.454C335.593 214.105 333.845 213.406 332.214 212.357C330.583 211.309 329.535 210.377 328.952 209.329C328.37 208.28 328.253 207.232 328.37 206.183C328.603 205.135 329.069 204.203 330.001 203.271C330.816 202.339 331.865 201.523 333.03 200.708L331.399 200.009C331.049 199.776 330.933 199.543 331.049 199.31C331.049 198.96 331.399 198.727 331.865 198.494C332.214 198.261 332.797 198.145 333.379 198.145C333.962 198.145 334.428 198.145 334.777 198.378L336.175 199.31C337.107 198.844 338.155 198.261 339.437 197.795C340.718 197.329 341.883 196.863 343.048 196.63C344.213 196.281 345.378 196.164 346.427 196.164C347.475 196.164 348.291 196.281 348.99 196.747C349.223 196.863 349.456 197.096 349.689 197.329C349.922 197.562 350.155 197.912 350.271 198.145C350.388 198.494 350.388 198.727 350.271 199.077C350.155 199.426 349.922 199.659 349.456 199.892C349.106 200.125 348.64 200.242 348.174 200.358C347.592 200.475 347.009 200.591 346.31 200.708C345.611 200.824 344.796 201.057 343.864 201.29C342.932 201.523 342 201.873 340.951 202.339L351.553 208.863C353.184 208.513 354.931 208.047 356.678 207.814C358.426 207.465 360.173 207.348 362.037 207.348C363.785 207.348 365.649 207.581 367.396 207.931C369.26 208.397 371.008 209.096 372.755 210.261C375.9 212.241 377.531 214.221 377.415 216.435C377.298 218.532 376.017 220.512 373.337 222.376L375.085 223.425C375.434 223.658 375.551 223.891 375.434 224.24C375.318 224.59 375.085 224.823 374.619 225.056C374.153 225.289 373.57 225.405 373.104 225.405C372.522 225.405 372.172 225.289 371.823 225.172L370.076 223.774ZM337.107 209.212C337.806 209.678 338.621 210.028 339.437 210.144C340.252 210.377 341.068 210.377 342 210.377C342.815 210.377 343.747 210.261 344.679 210.144C345.611 210.028 346.543 209.795 347.592 209.562L338.155 203.737C336.757 204.669 335.942 205.601 335.593 206.649C335.127 207.465 335.709 208.397 337.107 209.212ZM367.629 213.173C365.998 212.124 364.251 211.658 362.503 211.658C360.756 211.658 358.892 211.891 356.911 212.241L367.862 218.998C369.144 217.949 369.726 217.017 369.726 216.085C369.843 215.153 369.144 214.105 367.629 213.173Z" fill="#FF9238"/>
<path opacity="0.4" d="M304.721 259.888C306.818 271.072 321.729 277.596 328.137 279.227C335.709 270.373 337.107 253.015 337.573 235.89C337.573 235.89 355.746 225.871 359.008 218.765C362.853 210.377 359.707 206.533 348.523 206.882L314.506 220.862L304.721 259.888Z" fill="#FF9238"/>
<path d="M333.729 190.456L328.37 197.562L322.312 208.047C320.681 209.911 315.555 208.164 316.604 204.902L321.729 192.902L331.399 175.777L334.311 182.068L333.729 190.456Z" fill="#3B5770"/>
<path d="M316.836 247.656C317.652 248.472 317.768 250.568 317.768 253.015C317.302 255.461 315.089 255.461 313.108 255.927C309.381 256.859 307.866 259.772 302.857 260.238C299.944 260.471 297.847 260.005 297.148 258.257C297.032 257.442 297.381 256.51 298.43 255.461C298.43 255.461 304.954 251.85 305.07 251.733C305.187 251.617 308.099 249.171 308.099 248.938C308.099 248.705 309.497 243.346 309.497 243.346L316.137 242.763L316.836 247.656Z" fill="black"/>
<path d="M332.214 256.277C333.029 258.374 332.68 258.84 332.447 260.471C332.214 261.286 331.864 261.752 331.631 262.917C331.398 264.432 331.631 266.762 329.651 268.392C327.321 270.606 322.312 271.188 320.564 269.091C320.448 268.043 320.914 265.713 322.079 263.733L324.991 257.791L325.224 253.364L332.097 251.966L332.214 256.277Z" fill="black"/>
<path d="M354.116 221.328C350.388 224.823 343.281 230.182 335.709 235.191C336.408 239.152 334.544 248.239 332.913 256.859C331.399 259.655 324.525 258.49 324.525 256.859C324.875 246.258 324.991 232.978 326.04 229.949C330.933 222.959 335.709 216.784 340.019 213.989L347.475 209.795L354.116 215.154V221.328Z" fill="#2A3D4F"/>
<path d="M341.3 217.251C337.572 220.745 324.874 221.561 318.816 225.056C319.515 229.017 319.282 239.501 317.768 248.122C316.254 250.918 308.099 250.219 308.099 248.472C308.448 237.87 306.468 224.823 307.4 221.677C309.147 213.756 318.7 210.96 330.583 206.416L334.078 205.601L337.689 206.649L341.3 217.251Z" fill="#2A3D4F"/>
<path d="M335.709 213.988C335.709 213.988 335.709 214.105 335.826 214.105C336.175 214.804 336.641 215.27 337.34 215.386C339.786 215.852 344.33 212.707 347.592 213.872C353.184 217.367 351.553 224.357 353.417 223.541C355.63 222.493 357.494 218.648 358.076 215.153C358.076 215.153 359.707 199.543 358.775 189.524C358.542 186.961 358.076 184.864 357.494 183.35C353.417 177.408 348.407 174.147 343.631 171.584L333.496 172.516C331.399 174.846 330.35 178.573 330.001 182.767C330.001 182.767 331.282 193.602 334.544 201.057C334.894 201.873 334.894 202.572 334.661 203.154C333.845 205.368 329.768 206.3 329.768 206.3C329.418 207.698 333.379 207.232 335.709 213.988Z" fill="#3B5770"/>
<path d="M339.553 179.738L347.125 179.039L336.99 201.407C332.912 193.602 331.514 186.029 334.776 177.292L339.553 179.738Z" fill="#E6E6E6"/>
<path d="M339.786 179.971L340.252 182.767L338.621 185.563C338.388 189.757 337.572 194.301 337.922 197.446L336.757 201.523L334.893 197.562C335.359 192.437 336.408 187.777 337.106 184.515L336.874 181.02L338.737 179.622L339.786 179.971Z" fill="#FF4A51"/>
<path d="M342.466 170.535L346.893 173.448C349.456 179.505 344.563 182.534 341.534 186.262L339.087 181.02L334.311 182.418L335.359 173.331L342.466 170.535Z" fill="white"/>
<path d="M345.145 172.399C348.407 174.496 347.126 179.156 343.98 183.583C341.184 187.544 336.757 196.398 336.757 202.572C339.437 196.281 344.33 188.359 347.242 185.913L346.194 183.816L348.29 184.049C350.038 181.137 350.737 178.341 350.271 175.661L345.145 172.399Z" fill="#2A3D4F"/>
<path d="M337.806 172.166C333.728 176.826 332.68 194.534 336.99 201.873C332.68 197.446 330.816 190.34 331.398 178.923L332.563 178.108L332.097 176.943L335.476 172.05L337.806 172.166Z" fill="#2A3D4F"/>
<path d="M338.038 180.437C338.504 180.787 338.621 180.903 339.087 181.02C343.863 181.486 346.193 175.312 344.446 172.283C343.048 169.72 342.698 168.671 342.698 168.671L335.941 173.448C335.941 173.448 335.825 174.147 336.174 175.195C336.64 177.059 336.757 179.389 338.038 180.437Z" fill="#FFB294"/>
<path opacity="0.5" d="M338.505 180.904C340.718 181.37 343.747 179.389 342.349 172.166L336.408 175.312C336.99 177.059 336.757 179.855 338.505 180.904Z" fill="#FFB294"/>
<path d="M342.582 170.302C342.582 170.302 343.048 173.914 342.116 175.894C341.184 177.875 339.204 179.506 338.272 179.855C337.456 180.205 336.641 180.438 335.825 179.972C335.01 179.506 332.214 173.448 332.214 173.448C331.282 171.001 331.049 170.302 330.816 168.904C330.466 166.807 330.233 161.915 336.175 160.4C339.087 159.701 341.533 160.983 342.931 163.313C343.98 165.176 343.747 169.137 343.747 169.137L342.582 170.302Z" fill="#FFB294"/>
<path d="M343.98 169.603L341.883 172.05L341.068 170.535C340.718 169.72 339.903 169.37 339.087 169.72C337.806 170.302 335.825 171.001 333.495 170.885C331.282 170.652 330.583 169.603 330.583 169.603C328.253 166.458 331.864 161.914 335.359 160.633C339.67 159.119 342.466 161.332 343.514 163.778C344.446 166.108 343.98 169.603 343.98 169.603Z" fill="black"/>
<path d="M342.582 167.623C342.932 167.273 343.398 167.157 343.747 167.39C343.98 167.506 344.097 167.739 344.097 167.972C344.097 168.205 344.097 168.438 344.097 168.671C344.097 169.137 343.98 169.487 343.864 169.953C343.747 170.302 343.747 170.652 343.398 170.885C343.048 171.118 342.815 171.467 342.466 171.234C342.116 171.001 341.883 170.186 341.767 169.836C341.883 169.137 342 168.205 342.582 167.623Z" fill="#FFB294"/>
<path d="M302.74 216.085L325.574 229.249L339.786 220.978V220.279L316.953 207.814L302.74 216.085Z" fill="#1A1A1A"/>
<path d="M302.74 215.387L325.574 228.551L339.786 220.279L316.953 207.115L302.74 215.387Z" fill="#4D4D4D"/>
<path d="M306.118 215.969L307.516 216.784L308.681 216.086L307.167 215.27L306.118 215.969Z" fill="white"/>
<path d="M307.749 216.901L309.263 217.716L310.312 217.134L308.914 216.318L307.749 216.901Z" fill="white"/>
<path d="M309.497 217.949L310.895 218.765L312.06 218.066L310.545 217.25L309.497 217.949Z" fill="white"/>
<path d="M311.127 218.881L312.642 219.697L313.807 219.114L312.292 218.299L311.127 218.881Z" fill="white"/>
<path d="M312.875 219.93L314.389 220.745L315.437 220.046L314.039 219.231L312.875 219.93Z" fill="white"/>
<path d="M314.623 220.862L316.021 221.677L317.185 221.095L315.671 220.163L314.623 220.862Z" fill="white"/>
<path d="M316.253 221.794L317.768 222.726L318.933 222.027L317.418 221.211L316.253 221.794Z" fill="white"/>
<path d="M318.001 222.842L319.516 223.658L320.564 223.075L319.166 222.143L318.001 222.842Z" fill="white"/>
<path d="M319.749 223.774L321.146 224.706L322.311 224.007L320.797 223.192L319.749 223.774Z" fill="white"/>
<path d="M321.379 224.823L322.894 225.638L323.942 225.056L322.544 224.124L321.379 224.823Z" fill="white"/>
<path d="M323.127 225.755L324.525 226.687L325.69 225.988L324.175 225.172L323.127 225.755Z" fill="white"/>
<path d="M308.099 214.804L309.497 215.62L310.662 215.037L309.147 214.105L308.099 214.804Z" fill="white"/>
<path d="M309.729 215.736L311.244 216.668L312.409 215.969L310.894 215.154L309.729 215.736Z" fill="white"/>
<path d="M311.477 216.784L312.992 217.6L314.04 216.901L312.642 216.085L311.477 216.784Z" fill="white"/>
<path d="M313.225 217.716L314.623 218.532L315.788 217.949L314.273 217.134L313.225 217.716Z" fill="white"/>
<path d="M314.855 218.765L316.37 219.581L317.418 218.882L316.02 218.066L314.855 218.765Z" fill="white"/>
<path d="M316.603 219.697L318.117 220.512L319.166 219.93L317.768 219.115L316.603 219.697Z" fill="white"/>
<path d="M318.351 220.745L319.749 221.561L320.914 220.862L319.399 220.046L318.351 220.745Z" fill="white"/>
<path d="M319.981 221.677L321.496 222.493L322.544 221.91L321.146 220.978L319.981 221.677Z" fill="white"/>
<path d="M321.729 222.609L323.126 223.541L324.291 222.842L322.777 222.027L321.729 222.609Z" fill="white"/>
<path d="M323.359 223.658L324.874 224.473L326.039 223.891L324.524 222.959L323.359 223.658Z" fill="white"/>
<path d="M325.107 224.59L326.621 225.522L327.67 224.823L326.272 224.007L325.107 224.59Z" fill="white"/>
<path d="M309.38 213.989L310.778 214.921L311.943 214.222L310.428 213.406L309.38 213.989Z" fill="white"/>
<path d="M311.011 215.037L312.526 215.852L313.691 215.27L312.176 214.338L311.011 215.037Z" fill="white"/>
<path d="M312.759 215.969L314.273 216.901L315.322 216.202L313.924 215.386L312.759 215.969Z" fill="white"/>
<path d="M314.506 217.017L315.904 217.833L317.069 217.25L315.555 216.318L314.506 217.017Z" fill="white"/>
<path d="M316.137 217.95L317.652 218.882L318.7 218.183L317.302 217.367L316.137 217.95Z" fill="white"/>
<path d="M317.884 218.998L319.399 219.813L320.447 219.114L319.049 218.299L317.884 218.998Z" fill="white"/>
<path d="M319.632 219.93L321.03 220.745L322.195 220.163L320.68 219.347L319.632 219.93Z" fill="white"/>
<path d="M321.263 220.978L322.777 221.794L323.826 221.095L322.428 220.279L321.263 220.978Z" fill="white"/>
<path d="M323.01 221.91L324.408 222.726L325.573 222.143L324.059 221.328L323.01 221.91Z" fill="white"/>
<path d="M324.641 222.959L326.156 223.774L327.321 223.075L325.806 222.26L324.641 222.959Z" fill="white"/>
<path d="M310.661 213.29L312.059 214.105L313.224 213.523L311.71 212.707L310.661 213.29Z" fill="white"/>
<path d="M312.292 214.338L313.806 215.153L314.971 214.455L313.457 213.639L312.292 214.338Z" fill="white"/>
<path d="M314.04 215.27L315.554 216.086L316.602 215.503L315.205 214.571L314.04 215.27Z" fill="white"/>
<path d="M315.787 216.202L317.185 217.134L318.35 216.435L316.836 215.62L315.787 216.202Z" fill="white"/>
<path d="M317.418 217.251L318.933 218.066L319.981 217.483L318.583 216.552L317.418 217.251Z" fill="white"/>
<path d="M319.166 218.182L320.68 219.114L321.729 218.415L320.331 217.6L319.166 218.182Z" fill="white"/>
<path d="M320.914 219.231L322.312 220.046L323.476 219.464L321.962 218.532L320.914 219.231Z" fill="white"/>
<path d="M322.544 220.163L324.059 221.095L325.107 220.396L323.709 219.58L322.544 220.163Z" fill="white"/>
<path d="M324.292 221.211L325.689 222.027L326.854 221.328L325.34 220.512L324.292 221.211Z" fill="white"/>
<path d="M326.388 223.891L327.67 223.192L325.922 222.143L327.087 221.561L328.835 222.493L329.184 222.726L330.233 223.308L329.301 223.891L329.184 224.007L327.903 224.706L326.388 223.891Z" fill="white"/>
<path d="M314.04 213.756L313.574 213.523L311.943 212.591L312.991 211.892L314.739 212.94L315.205 213.173L316.253 213.756L315.088 214.338L314.04 213.756Z" fill="white"/>
<path d="M315.321 214.571L316.836 215.387L317.884 214.688L316.486 213.872L315.321 214.571Z" fill="white"/>
<path d="M317.068 215.503L318.466 216.318L319.631 215.736L318.117 214.921L317.068 215.503Z" fill="white"/>
<path d="M318.7 216.552L320.214 217.367L321.263 216.668L319.865 215.853L318.7 216.552Z" fill="white"/>
<path d="M320.447 217.484L321.961 218.299L323.01 217.717L321.612 216.785L320.447 217.484Z" fill="white"/>
<path d="M322.195 218.415L323.593 219.347L324.758 218.648L323.243 217.833L322.195 218.415Z" fill="white"/>
<path d="M323.826 219.464L325.34 220.279L326.389 219.697L324.991 218.765L323.826 219.464Z" fill="white"/>
<path d="M325.573 220.396L326.971 221.328L328.136 220.629L326.622 219.813L325.573 220.396Z" fill="white"/>
<path d="M328.719 222.26L328.486 222.143L327.205 221.444L328.37 220.745L329.535 221.444L329.884 221.677L331.515 222.609L330.467 223.308L328.719 222.26Z" fill="white"/>
<path d="M313.225 211.775L314.623 212.707L315.788 212.008L314.273 211.193L313.225 211.775Z" fill="white"/>
<path d="M314.855 212.824L316.37 213.639L317.535 213.057L316.02 212.125L314.855 212.824Z" fill="white"/>
<path d="M316.603 213.755L318.117 214.687L319.166 213.988L317.768 213.173L316.603 213.755Z" fill="white"/>
<path d="M325.806 219.114L325.107 218.765L324.874 218.532L323.476 217.716L323.243 217.6L321.729 216.785L321.496 216.552L319.982 215.736L318.351 214.804L319.399 214.105L321.147 215.154L322.544 215.969L322.894 216.086L324.292 216.901L324.525 217.134L326.039 217.949L326.272 218.066L326.971 218.532L327.67 218.881L326.622 219.58L325.806 219.114Z" fill="white"/>
<path d="M326.854 219.697L328.252 220.512L329.417 219.93L327.902 218.998L326.854 219.697Z" fill="white"/>
<path d="M328.486 220.629L330 221.561L331.165 220.862L329.651 220.046L328.486 220.629Z" fill="white"/>
<path d="M330.233 221.677L331.747 222.493L332.796 221.91L331.398 220.978L330.233 221.677Z" fill="white"/>
<path d="M321.38 214.221L327.554 217.833L330.7 215.969L324.525 212.358L321.38 214.221Z" fill="#333333"/>
<path d="M295.634 201.174L318.468 214.338L325.574 228.551L302.741 215.387L295.168 201.64L295.634 201.174Z" fill="#1A1A1A"/>
<path d="M295.168 201.64L318.001 214.921L325.108 229.133L302.274 215.969L295.168 201.64Z" fill="#4D4D4D"/>
<path opacity="0.3" d="M335.709 213.989L337.224 215.387C339.67 215.853 344.213 212.707 347.475 213.872C353.067 217.367 351.436 224.357 353.3 223.541C355.514 222.493 357.377 218.648 357.96 215.154C357.96 215.154 359.591 199.543 358.659 189.524L358.309 188.243L349.572 189.408C348.64 197.912 343.048 205.135 337.806 203.853L334.661 203.271C333.845 205.484 329.768 206.416 329.768 206.416C329.418 207.698 333.379 207.232 335.709 213.989Z" fill="#2A3D4F"/>
<path d="M358.309 202.688C357.843 205.717 355.979 208.397 353.416 210.028C349.922 212.591 345.611 214.921 340.718 217.833C338.155 219.231 334.311 213.989 335.592 212.707C339.087 209.445 343.398 206.183 348.407 202.921L349.106 190.456C349.805 184.864 349.805 178.807 355.164 180.205C360.29 183.117 359.358 196.98 358.309 202.688Z" fill="#3B5770"/>
<path d="M338.505 217.134L336.874 217.949C335.01 219.347 333.379 219.58 331.748 219.58L330.001 220.745L328.719 222.609C327.787 223.774 327.438 222.959 327.787 222.143L328.486 220.978L330.001 219.231L329.418 218.881L328.137 219.231L326.389 220.163L325.923 220.629C325.69 220.862 325.224 220.978 324.875 220.862H324.758L324.525 220.978C324.292 221.095 323.943 220.978 323.826 220.745C323.71 220.512 323.71 220.163 323.826 219.813L324.642 218.532L326.04 217.367L324.875 217.6L323.943 218.299L323.361 218.998C322.662 219.697 322.312 219.114 322.545 218.299L323.244 217.25L325.224 215.852L328.253 214.921L333.612 214.571L335.593 213.756C337.573 212.591 339.903 216.085 338.505 217.134Z" fill="#FFB294"/>
<path d="M321.031 207.348L320.681 208.047L320.798 211.076L319.866 213.29L319.4 214.688L318.235 215.969C317.652 216.551 317.07 215.736 317.419 214.921L318.235 213.523V212.125C317.419 211.775 316.604 211.775 315.788 212.358C315.788 212.358 315.206 214.105 315.206 214.222C315.206 214.338 314.856 215.969 314.856 215.969C314.623 217.367 313.575 217.25 313.575 216.085L313.808 213.989L314.041 212.358L312.759 214.338L312.061 216.085C311.595 217.017 310.663 217.017 310.896 216.085L311.362 214.455L311.944 212.94L310.663 214.455L310.313 215.736C310.197 216.085 309.964 216.551 309.498 216.551C309.148 216.551 308.915 216.202 309.148 215.852C308.915 215.736 308.915 215.27 309.032 214.921L310.08 212.94L313.458 209.329L316.72 206.649L317.652 205.251C318.701 203.737 321.613 205.95 321.031 207.348Z" fill="#FFB294"/>
<defs>
<filter id="filter0_d" x="0" y="0" width="690" height="524" filterUnits="userSpaceOnUse" color-interpolation-filters="sRGB">
<feFlood flood-opacity="0" result="BackgroundImageFix"/>
<feColorMatrix in="SourceAlpha" type="matrix" values="0 0 0 0 0 0 0 0 0 0 0 0 0 0 0 0 0 0 127 0"/>
<feOffset/>
<feGaussianBlur stdDeviation="5"/>
<feColorMatrix type="matrix" values="0 0 0 0 0 0 0 0 0 0 0 0 0 0 0 0 0 0 0.02 0"/>
<feBlend mode="normal" in2="BackgroundImageFix" result="effect1_dropShadow"/>
<feBlend mode="normal" in="SourceGraphic" in2="effect1_dropShadow" result="shape"/>
</filter>
</defs>
</svg>
