<svg width="27" height="36" viewBox="0 0 27 36" fill="none" xmlns="http://www.w3.org/2000/svg">
<path d="M24.2637 0H2.74805C1.26502 0 0.0585938 1.41933 0.0585938 3.16406V32.8359C0.0585938 34.5807 1.26502 36 2.74805 36H24.2637C25.7467 36 26.9531 34.5807 26.9531 32.8359V3.16406C26.9531 1.41933 25.7467 0 24.2637 0ZM25.1602 32.8359C25.1602 33.4178 24.7583 33.8906 24.2637 33.8906H2.74805C2.25343 33.8906 1.85156 33.4178 1.85156 32.8359V3.16406C1.85156 2.58216 2.25343 2.10938 2.74805 2.10938H24.2637C24.7583 2.10938 25.1602 2.58216 25.1602 3.16406V32.8359ZM8.12695 17.0156H4.54102C4.0455 17.0156 3.64453 17.4874 3.64453 18.0703V22.2891C3.64453 22.872 4.0455 23.3438 4.54102 23.3438H8.12695C8.62247 23.3438 9.02344 22.872 9.02344 22.2891V18.0703C9.02344 17.4874 8.62247 17.0156 8.12695 17.0156ZM7.23047 21.2344H5.4375V19.125H7.23047V21.2344ZM8.12695 25.4531H4.54102C4.0455 25.4531 3.64453 25.9249 3.64453 26.5078V30.7266C3.64453 31.3095 4.0455 31.7812 4.54102 31.7812H8.12695C8.62247 31.7812 9.02344 31.3095 9.02344 30.7266V26.5078C9.02344 25.9249 8.62247 25.4531 8.12695 25.4531ZM7.23047 29.6719H5.4375V27.5625H7.23047V29.6719ZM22.4707 4.21875H4.54102C4.0455 4.21875 3.64453 4.69048 3.64453 5.27344V13.8516C3.64453 14.4345 4.0455 14.9062 4.54102 14.9062H22.4707C22.9662 14.9062 23.3672 14.4345 23.3672 13.8516V5.27344C23.3672 4.69048 22.9662 4.21875 22.4707 4.21875ZM21.5742 12.7969H5.4375V6.32812H21.5742V12.7969ZM22.4707 25.4531H11.7129C11.2174 25.4531 10.8164 25.9249 10.8164 26.5078V30.7266C10.8164 31.3095 11.2174 31.7812 11.7129 31.7812H22.4707C22.9662 31.7812 23.3672 31.3095 23.3672 30.7266V26.5078C23.3672 25.9249 22.9662 25.4531 22.4707 25.4531ZM21.5742 29.6719H12.6094V27.5625H21.5742V29.6719ZM11.7129 23.3438H15.2988C15.7943 23.3438 16.1953 22.872 16.1953 22.2891V18.0703C16.1953 17.4874 15.7943 17.0156 15.2988 17.0156H11.7129C11.2174 17.0156 10.8164 17.4874 10.8164 18.0703V22.2891C10.8164 22.872 11.2174 23.3438 11.7129 23.3438ZM12.6094 19.125H14.4023V21.2344H12.6094V19.125ZM22.4707 17.0156H18.8848C18.3892 17.0156 17.9883 17.4874 17.9883 18.0703V22.2891C17.9883 22.872 18.3892 23.3438 18.8848 23.3438H22.4707C22.9662 23.3438 23.3672 22.872 23.3672 22.2891V18.0703C23.3672 17.4874 22.9662 17.0156 22.4707 17.0156ZM21.5742 21.2344H19.7812V19.125H21.5742V21.2344Z" fill="url(#paint0_linear)"/>
<defs>
<linearGradient id="paint0_linear" x1="13.5059" y1="0" x2="13.5059" y2="36" gradientUnits="userSpaceOnUse">
<stop stop-color="#121773"/>
<stop offset="1" stop-color="#0D1038"/>
</linearGradient>
</defs>
</svg>
