<svg width="40" height="28" viewBox="0 0 40 28" fill="none" xmlns="http://www.w3.org/2000/svg">
<path d="M37.5215 9.26764C37.4945 9.23662 37.4717 9.20642 37.4398 9.17621L36.0381 7.8235C37.2006 7.55982 38.4521 6.5859 38.4521 5.58668C38.4521 4.42255 36.8365 4.00947 35.4577 4.00947C34.016 4.00947 33.8486 4.99727 33.8315 5.69525L30.2149 2.20858C29.4802 1.4812 28.0866 0.908936 27.0449 0.908936H20.0012H19.9996H12.9543C11.9134 0.908936 10.5206 1.4812 9.78509 2.20858L6.16936 5.69525C6.15058 4.99727 5.98322 4.00947 4.54314 4.00947C3.16264 4.00947 1.54785 4.42255 1.54785 5.58668C1.54785 6.5859 2.80017 7.55982 3.96269 7.8235L2.56097 9.17621C2.52913 9.20642 2.50709 9.23662 2.47934 9.26764C0.979652 10.5493 0 12.9266 0 14.6515V19.7775C0 21.0216 0.490642 22.1506 1.28334 22.9923V24.9801C1.28334 26.1426 2.25646 27.0904 3.45327 27.0904H6.07711C7.27391 27.0904 8.24622 26.1443 8.24622 24.9801V24.4715H19.9996H20.0012H31.7538V24.9801C31.7538 26.1443 32.7253 27.0904 33.9237 27.0904H36.5467C37.7443 27.0904 38.7158 26.1426 38.7158 24.9801V22.9923C39.5094 22.1506 39.9992 21.0216 39.9992 19.7775V14.6515C40.0008 12.9266 39.0212 10.5493 37.5215 9.26764ZM11.1133 3.75803C11.6219 3.33434 12.511 3.01269 12.9543 3.01269H19.9996H20.0012H27.0466C27.4898 3.01269 28.3789 3.33434 28.8875 3.75803L33.6298 8.35414H20.0012H19.9996H6.37182L11.1133 3.75803ZM1.62704 13.876C1.62704 12.6139 2.61485 11.5894 3.83452 11.5894C5.05337 11.5894 9.03647 13.9274 9.03647 15.1895C9.03647 16.4516 5.05337 16.1594 3.83452 16.1594C2.61485 16.1594 1.62704 15.1389 1.62704 13.876ZM8.24704 22.2241H7.8266H7.40617L4.91214 22.2282C4.21985 22.0127 3.73166 21.7612 3.38633 21.491C3.21162 21.3547 3.07774 21.2126 2.97324 21.0714C2.86793 20.9285 2.79119 20.7881 2.74139 20.6477C2.43117 19.7709 3.07202 18.9652 3.07202 18.9652H7.32861L10.1663 22.2225L8.24704 22.2241ZM26.1208 22.2257H20.0012H19.9996H13.88C12.604 22.2257 11.5681 21.1898 11.5681 19.9146H19.9996H20.0012H28.4328C28.4328 21.1914 27.3968 22.2257 26.1208 22.2257ZM26.658 18.3374H20.0012H19.9996H13.3429C11.955 18.3374 10.8284 16.6263 10.8284 14.516H19.9996H20.0012H29.1724C29.1724 16.6271 28.0458 18.3374 26.658 18.3374ZM37.2602 20.6493C37.2096 20.7897 37.1329 20.9302 37.0276 21.0722C36.9239 21.2134 36.79 21.3555 36.6145 21.4918C36.27 21.762 35.781 22.0151 35.0887 22.229L32.5946 22.2249H32.1742H31.7538H29.8328L32.6722 18.9676H36.928C36.928 18.9668 37.5696 19.7709 37.2602 20.6493ZM36.1663 16.1594C34.9483 16.1594 30.9652 16.45 30.9652 15.1895C30.9652 13.9291 34.9483 11.5894 36.1663 11.5894C37.386 11.5894 38.3738 12.6139 38.3738 13.876C38.3738 15.1373 37.386 16.1594 36.1663 16.1594Z" fill="#191E74"/>
</svg>
