<svg width="18" height="18" viewBox="0 0 18 18" fill="none" xmlns="http://www.w3.org/2000/svg">
<path d="M17.9887 7.87497V0L15.345 2.64373C13.7193 1.0125 11.475 0 8.98872 0C4.01624 0 0 4.02747 0 9C0 13.9725 4.01624 18 8.98872 18C13.1793 18 16.6893 15.1313 17.685 11.25H15.345C14.4169 13.8713 11.9306 15.75 8.98877 15.75C5.2594 15.75 2.23878 12.7294 2.23878 9C2.23878 5.27063 5.2594 2.25001 8.98877 2.25001C10.8507 2.25001 12.5213 3.02626 13.7419 4.2469L10.1137 7.87502H17.9887V7.87497Z" fill="url(#paint0_linear)"/>
<defs>
<linearGradient id="paint0_linear" x1="8.99436" y1="0" x2="8.99436" y2="18" gradientUnits="userSpaceOnUse">
<stop stop-color="#121773"/>
<stop offset="1" stop-color="#0D1038"/>
</linearGradient>
</defs>
</svg>
