<svg width="40" height="40" viewBox="0 0 40 40" fill="none" xmlns="http://www.w3.org/2000/svg">
<g clip-path="url(#clip0)">
<path d="M39.8031 20.5227L35.4708 14.1415L39.8031 7.76035C40.0056 7.45597 40.0548 7.07605 39.9369 6.73043C39.8179 6.38481 39.5455 6.11356 39.1988 5.99919L25.0583 1.31172C24.5524 1.14118 24.0054 1.33344 23.7124 1.77289L19.9999 7.34152L16.2875 1.77289C15.9922 1.33118 15.4406 1.14001 14.9416 1.31172L0.801112 5.99919C0.454396 6.11364 0.181976 6.38489 0.0629927 6.73043C-0.054897 7.07605 -0.00567862 7.45597 0.196898 7.76042L4.52921 14.1416L0.196976 20.5227C-0.0056005 20.8271 -0.0548189 21.2071 0.0630708 21.5527C0.182054 21.8984 0.454474 22.1696 0.80119 22.284L14.9417 26.9714C15.4394 27.1388 15.9929 26.952 16.2876 26.5103L20 20.9416L23.7125 26.5103C24.0073 26.9525 24.5612 27.1387 25.0583 26.9714L39.1989 22.284C39.5456 22.1695 39.818 21.8983 39.937 21.5527C40.0549 21.2071 40.0056 20.8272 39.8031 20.5227ZM20 17.5943L9.64206 14.1416L20 10.689L30.358 14.1416L20 17.5943Z" fill="#191E74"/>
<path d="M25.7997 29.195C24.3247 29.6898 22.657 29.1532 21.7622 27.8102L20 25.1668L18.2375 27.8102C17.3444 29.1506 15.6787 29.6922 14.1943 29.1926L4.76562 26.05V32.8914C4.76562 33.396 5.08836 33.8435 5.56671 34.0026L19.6222 38.6878C19.6646 38.7026 19.7069 38.7141 19.7493 38.7233C19.7493 38.7233 19.7504 38.7233 19.7504 38.7244H19.7516C19.834 38.7416 19.9175 38.7508 20 38.7508C20.0881 38.7508 20.175 38.7405 20.262 38.721C20.3009 38.7119 20.3386 38.7015 20.3764 38.689L34.4331 34.0027C34.9114 33.8435 35.2341 33.396 35.2341 32.8914V26.0502L25.7997 29.195Z" fill="#191E74"/>
</g>
<defs>
<clipPath id="clip0">
<rect width="40" height="40" fill="white"/>
</clipPath>
</defs>
</svg>
