<svg width="34" height="34" viewBox="0 0 34 34" fill="none" xmlns="http://www.w3.org/2000/svg">
<path d="M12.9492 0H2.98828C1.34048 0 0 1.34048 0 2.98828V12.9492C0 14.597 1.34048 15.9375 2.98828 15.9375H12.9492C14.597 15.9375 15.9375 14.597 15.9375 12.9492V2.98828C15.9375 1.34048 14.597 0 12.9492 0ZM31.0117 0H21.0508C19.403 0 18.0625 1.34048 18.0625 2.98828V12.9492C18.0625 14.597 19.403 15.9375 21.0508 15.9375H31.0117C32.6595 15.9375 34 14.597 34 12.9492V2.98828C34 1.34048 32.6595 0 31.0117 0ZM12.9492 18.0625H2.98828C1.34048 18.0625 0 19.403 0 21.0508V31.0117C0 32.6595 1.34048 34 2.98828 34H12.9492C14.597 34 15.9375 32.6595 15.9375 31.0117V21.0508C15.9375 19.403 14.597 18.0625 12.9492 18.0625ZM31.0117 18.0625H21.0508C19.403 18.0625 18.0625 19.403 18.0625 21.0508V31.0117C18.0625 32.6595 19.403 34 21.0508 34H31.0117C32.6595 34 34 32.6595 34 31.0117V21.0508C34 19.403 32.6595 18.0625 31.0117 18.0625Z" fill="url(#paint0_linear)"/>
<path d="M23.043 8.96484H29.0195C29.5701 8.96484 30.0156 8.51932 30.0156 7.96875C30.0156 7.41818 29.5701 6.97266 29.0195 6.97266H23.043C22.4924 6.97266 22.0469 7.41818 22.0469 7.96875C22.0469 8.51932 22.4924 8.96484 23.043 8.96484ZM10.957 6.97266H8.96484V4.98047C8.96484 4.42989 8.51932 3.98438 7.96875 3.98438C7.41818 3.98438 6.97266 4.42989 6.97266 4.98047V6.97266H4.98047C4.42989 6.97266 3.98438 7.41818 3.98438 7.96875C3.98438 8.51932 4.42989 8.96484 4.98047 8.96484H6.97266V10.957C6.97266 11.5076 7.41818 11.9531 7.96875 11.9531C8.51932 11.9531 8.96484 11.5076 8.96484 10.957V8.96484H10.957C11.5076 8.96484 11.9531 8.51932 11.9531 7.96875C11.9531 7.41818 11.5076 6.97266 10.957 6.97266ZM10.7858 23.2142C10.3968 22.8251 9.76637 22.8251 9.37729 23.2142L7.96875 24.6227L6.56021 23.2142C6.17113 22.8251 5.54074 22.8251 5.15166 23.2142C4.76259 23.6032 4.76259 24.2336 5.15166 24.6227L6.56021 26.0312L5.15166 27.4398C4.76259 27.8289 4.76259 28.4593 5.15166 28.8483C5.54074 29.2374 6.17107 29.2374 6.56021 28.8483L7.96875 27.4398L9.37729 28.8483C9.76637 29.2374 10.3967 29.2374 10.7858 28.8483C11.1749 28.4593 11.1749 27.8289 10.7858 27.4398L9.37729 26.0312L10.7858 24.6227C11.1749 24.2336 11.1749 23.6033 10.7858 23.2142ZM29.0195 23.043H23.043C22.4924 23.043 22.0469 23.4885 22.0469 24.0391C22.0469 24.5896 22.4924 25.0352 23.043 25.0352H29.0195C29.5701 25.0352 30.0156 24.5896 30.0156 24.0391C30.0156 23.4885 29.5701 23.043 29.0195 23.043ZM29.0195 27.0273H23.043C22.4924 27.0273 22.0469 27.4729 22.0469 28.0234C22.0469 28.574 22.4924 29.0195 23.043 29.0195H29.0195C29.5701 29.0195 30.0156 28.574 30.0156 28.0234C30.0156 27.4729 29.5701 27.0273 29.0195 27.0273Z" fill="#FDFDFD"/>
<defs>
<linearGradient id="paint0_linear" x1="17" y1="0" x2="17" y2="34" gradientUnits="userSpaceOnUse">
<stop stop-color="#121773"/>
<stop offset="1" stop-color="#0D1038"/>
</linearGradient>
</defs>
</svg>
