<svg width="383" height="63" viewBox="0 0 383 63" fill="none" xmlns="http://www.w3.org/2000/svg">
<path d="M117.475 24.9827H111.574V36.9309H117.475V24.9827Z" fill="#255E66"/>
<path d="M150.196 24.9827H144.295V36.9309H150.196V24.9827Z" fill="#255E66"/>
<path d="M193.109 24.9827H187.208V36.9309H193.109V24.9827Z" fill="#255E66"/>
<path d="M128.203 16.8362H122.303V45.0776H128.203V16.8362Z" fill="#255E66"/>
<path d="M160.924 16.8362H155.024V45.0776H160.924V16.8362Z" fill="#255E66"/>
<path d="M182.381 16.8362H176.48V45.0776H182.381V16.8362Z" fill="#255E66"/>
<path d="M139.468 0H133.567V61.9138H139.468V0Z" fill="#255E66"/>
<path d="M171.652 0H165.752V61.9138H171.652V0Z" fill="#255E66"/>
<path d="M3.24121 49.9656V11.7404H13.0169C15.5235 11.7404 17.788 12.178 19.8106 13.0531C21.8505 13.9107 23.5877 15.1183 25.0225 16.6761C26.4747 18.2163 27.5897 20.0628 28.3676 22.2156C29.1628 24.3684 29.5603 26.7311 29.5603 29.304V32.4544C29.5603 35.0273 29.1628 37.3901 28.3676 39.5429C27.5897 41.6782 26.4919 43.5247 25.0744 45.0824C23.6569 46.6226 21.9541 47.8215 19.9662 48.6791C17.9782 49.5367 15.7828 49.9656 13.3799 49.9656H3.24121ZM10.5795 17.7262V44.0323H13.3799C14.7456 44.0323 15.9643 43.7697 17.0361 43.2446C18.1252 42.7196 19.0414 41.9582 19.7847 40.9606C20.5453 39.9629 21.1244 38.7553 21.522 37.3376C21.9196 35.9024 22.1184 34.2747 22.1184 32.4544V29.2515C22.1184 27.5363 21.9196 25.9786 21.522 24.5784C21.1417 23.1607 20.5626 21.9443 19.7847 20.9291C19.024 19.914 18.0733 19.1264 16.9323 18.5663C15.8087 18.0062 14.5036 17.7262 13.0169 17.7262H10.5795ZM47.9542 11.7404L51.5326 26.1011L55.6036 11.7404H64.6534V49.9656H57.9633V38.6503L58.2744 20.7716L53.3217 37.3639H49.7175L45.2834 21.4805L45.5945 38.6503V49.9656H38.9046V11.7404H47.9542ZM94.2228 39.9892C94.2228 39.3066 94.1021 38.6678 93.8602 38.0727C93.6354 37.4776 93.2379 36.9263 92.6672 36.4187C92.1141 35.8936 91.3792 35.4211 90.463 35.001C89.564 34.5635 88.4408 34.1609 87.0922 33.7934C85.4497 33.3383 83.8769 32.7695 82.3728 32.0869C80.8864 31.4043 79.5722 30.5817 78.4313 29.619C77.2908 28.6565 76.3746 27.5363 75.6827 26.2586C75.0089 24.9809 74.6715 23.5108 74.6715 21.848C74.6715 20.2378 75.0089 18.7764 75.6827 17.4637C76.3569 16.151 77.2908 15.0309 78.4833 14.1032C79.6763 13.1756 81.0849 12.4668 82.7102 11.9767C84.335 11.4691 86.0982 11.2153 87.9998 11.2153C89.9706 11.2153 91.7681 11.5041 93.3935 12.0817C95.0354 12.6593 96.4446 13.4731 97.6199 14.5233C98.7952 15.5559 99.7114 16.7899 100.368 18.225C101.026 19.6602 101.354 21.2354 101.354 22.9507H94.249C94.2142 22.093 94.0586 21.3054 93.7824 20.5878C93.5227 19.8702 93.1253 19.2577 92.5894 18.7501C92.0707 18.225 91.4141 17.8225 90.6186 17.5424C89.8408 17.2449 88.9246 17.0961 87.87 17.0961C86.9023 17.0961 86.0376 17.2186 85.277 17.4637C84.5335 17.6912 83.9027 18.0237 83.384 18.4613C82.8658 18.8813 82.4678 19.3889 82.1915 19.984C81.9319 20.5616 81.8026 21.1917 81.8026 21.8743C81.8026 22.5919 81.9753 23.2394 82.3208 23.817C82.6839 24.3946 83.2027 24.9197 83.8769 25.3922C84.5512 25.8473 85.3633 26.2673 86.3144 26.6524C87.2821 27.0375 88.3716 27.3962 89.5817 27.7288C91.31 28.2364 92.9005 28.8577 94.3526 29.5928C95.8046 30.3279 97.0497 31.203 98.0866 32.2182C99.1412 33.2158 99.9538 34.3622 100.524 35.6574C101.112 36.935 101.406 38.3615 101.406 39.9367C101.406 41.6169 101.068 43.1134 100.394 44.4261C99.7376 45.7213 98.8214 46.8239 97.6456 47.734C96.4703 48.6266 95.0703 49.3092 93.445 49.7818C91.8202 50.2368 90.0484 50.4644 88.1296 50.4644C86.9366 50.4644 85.7437 50.3506 84.5512 50.1231C83.3754 49.913 82.243 49.5805 81.1541 49.1254C80.0823 48.6704 79.0798 48.1016 78.1464 47.4189C77.2131 46.7364 76.4004 45.94 75.709 45.0299C75.0347 44.1198 74.4988 43.0871 74.1013 41.932C73.721 40.7768 73.5306 39.4991 73.5306 38.099H80.6874C80.7223 39.2541 80.9208 40.243 81.2839 41.0656C81.6471 41.8882 82.1481 42.5621 82.788 43.0871C83.4446 43.6122 84.2224 43.9972 85.1214 44.2423C86.0376 44.4873 87.0402 44.6098 88.1296 44.6098C89.0973 44.6098 89.9529 44.4961 90.6964 44.2686C91.457 44.041 92.097 43.7259 92.6151 43.3234C93.1338 42.9208 93.5313 42.4396 93.8081 41.8794C94.0849 41.3019 94.2228 40.6718 94.2228 39.9892Z" fill="white"/>
<path d="M210.344 34.8732H205.88L205.002 38.0173H201.978L206.851 22.9589H209.456L214.236 38.0173H211.212L210.344 34.8732ZM206.585 32.4014H209.67L208.148 26.8579L206.585 32.4014ZM226.967 22.9589L226.978 32.9392C226.978 33.7804 226.862 34.5285 226.631 35.1835C226.406 35.8385 226.075 36.3936 225.64 36.8486C225.211 37.2968 224.683 37.6381 224.056 37.8725C223.437 38.1069 222.728 38.2242 221.932 38.2242C221.182 38.2242 220.505 38.1069 219.899 37.8725C219.299 37.6381 218.786 37.2968 218.356 36.8486C217.927 36.4004 217.594 35.8488 217.355 35.1939C217.124 34.5319 217.008 33.7804 217.008 32.9392L217.018 22.9589H219.888L219.899 32.9392C219.906 33.9114 220.079 34.6457 220.42 35.1422C220.767 35.6386 221.271 35.8868 221.932 35.8868C222.633 35.8868 223.167 35.6386 223.535 35.1422C223.91 34.6457 224.1 33.9114 224.107 32.9392L224.117 22.9589H226.967ZM242.018 25.3273H237.431V38.0173H234.551V25.3273H230.026V22.9589H242.018V25.3273ZM255.495 31.5947C255.495 32.56 255.369 33.4495 255.117 34.263C254.865 35.0766 254.501 35.7765 254.024 36.3625C253.547 36.9486 252.965 37.4071 252.277 37.738C251.596 38.0621 250.827 38.2242 249.969 38.2242C249.111 38.2242 248.348 38.0621 247.681 37.738C247.013 37.4071 246.451 36.9486 245.995 36.3625C245.539 35.7696 245.192 35.0698 244.953 34.263C244.715 33.4495 244.596 32.56 244.596 31.5947V29.4022C244.596 28.4369 244.715 27.5475 244.953 26.7338C245.192 25.9203 245.539 25.2204 245.995 24.6344C246.451 24.0414 247.009 23.5794 247.67 23.2485C248.338 22.9176 249.1 22.7521 249.959 22.7521C250.823 22.7521 251.596 22.9176 252.277 23.2485C252.965 23.5794 253.547 24.0414 254.024 24.6344C254.501 25.2204 254.865 25.9203 255.117 26.7338C255.369 27.5475 255.495 28.4369 255.495 29.4022V31.5947ZM252.584 29.3815C252.584 28.7678 252.532 28.2024 252.431 27.6854C252.335 27.1682 252.182 26.7235 251.971 26.3512C251.759 25.9789 251.487 25.6893 251.154 25.4824C250.827 25.2687 250.429 25.1618 249.959 25.1618C249.495 25.1618 249.107 25.2687 248.794 25.4824C248.481 25.6893 248.229 25.9789 248.038 26.3512C247.847 26.7235 247.711 27.1682 247.63 27.6854C247.548 28.2024 247.507 28.7678 247.507 29.3815V31.5947C247.507 32.2015 247.548 32.7634 247.63 33.2805C247.711 33.7977 247.847 34.2458 248.038 34.625C248.229 35.0042 248.481 35.3007 248.794 35.5145C249.107 35.7282 249.499 35.8351 249.969 35.8351C250.432 35.8351 250.827 35.7282 251.154 35.5145C251.487 35.3007 251.756 35.0077 251.961 34.6353C252.172 34.2561 252.329 33.808 252.431 33.2909C252.532 32.7737 252.584 32.2084 252.584 31.5947V29.3815ZM269.37 36.2591C269.186 36.4866 268.935 36.7176 268.615 36.9521C268.294 37.1865 267.913 37.4002 267.47 37.5932C267.035 37.7794 266.544 37.9311 266 38.0483C265.455 38.1655 264.869 38.2242 264.242 38.2242C263.398 38.2242 262.635 38.0725 261.955 37.7691C261.273 37.4657 260.691 37.0279 260.208 36.4556C259.724 35.8833 259.35 35.1835 259.084 34.3561C258.825 33.5219 258.696 32.5772 258.696 31.5223V29.4746C258.696 28.4196 258.832 27.4785 259.105 26.6511C259.384 25.8168 259.765 25.1101 260.249 24.531C260.739 23.9518 261.311 23.5105 261.965 23.2071C262.625 22.9038 263.34 22.7521 264.11 22.7521C264.947 22.7521 265.676 22.859 266.296 23.0727C266.922 23.2864 267.45 23.5967 267.879 24.0035C268.308 24.4034 268.642 24.8929 268.88 25.4721C269.125 26.0513 269.285 26.7028 269.36 27.4268H266.561C266.466 26.6545 266.235 26.0754 265.867 25.6893C265.506 25.2962 264.944 25.0997 264.181 25.0997C263.814 25.0997 263.473 25.1963 263.16 25.3893C262.847 25.5755 262.574 25.8513 262.342 26.2167C262.111 26.5821 261.927 27.0372 261.791 27.5819C261.655 28.1197 261.587 28.7437 261.587 29.4539V31.5223C261.594 32.9289 261.825 34.0079 262.281 34.7595C262.738 35.5041 263.436 35.8799 264.375 35.8868C264.6 35.8868 264.822 35.8695 265.039 35.8351C265.257 35.8006 265.462 35.7523 265.652 35.6903C265.843 35.6282 266.01 35.5593 266.153 35.4834C266.303 35.4007 266.415 35.3145 266.49 35.2249L266.5 32.4945H264.039V30.3226H269.36L269.37 36.2591ZM278.22 32.3911H276.045V38.0173H273.174V22.9589H278.159C278.983 22.9589 279.729 23.0589 280.396 23.2588C281.063 23.4519 281.632 23.738 282.102 24.1172C282.579 24.4965 282.943 24.9687 283.195 25.5341C283.453 26.0995 283.583 26.7545 283.583 27.4992C283.583 28.037 283.518 28.5231 283.389 28.9575C283.266 29.3849 283.086 29.771 282.848 30.1158C282.616 30.4536 282.333 30.7501 282 31.0052C281.673 31.2603 281.305 31.4809 280.896 31.6671L284.094 37.8828V38.0173H281.019L278.22 32.3911ZM276.045 30.033H278.169C278.98 30.033 279.603 29.8262 280.039 29.4125C280.481 28.9919 280.703 28.4196 280.703 27.6957C280.703 26.9441 280.488 26.3615 280.059 25.9479C279.63 25.5272 278.996 25.3169 278.159 25.3169H276.045V30.033ZM297.581 31.5947C297.581 32.56 297.456 33.4495 297.203 34.263C296.951 35.0766 296.587 35.7765 296.11 36.3625C295.634 36.9486 295.051 37.4071 294.364 37.738C293.682 38.0621 292.913 38.2242 292.055 38.2242C291.197 38.2242 290.434 38.0621 289.767 37.738C289.099 37.4071 288.538 36.9486 288.081 36.3625C287.625 35.7696 287.278 35.0698 287.039 34.263C286.801 33.4495 286.682 32.56 286.682 31.5947V29.4022C286.682 28.4369 286.801 27.5475 287.039 26.7338C287.278 25.9203 287.625 25.2204 288.081 24.6344C288.538 24.0414 289.096 23.5794 289.756 23.2485C290.424 22.9176 291.187 22.7521 292.045 22.7521C292.909 22.7521 293.682 22.9176 294.364 23.2485C295.051 23.5794 295.634 24.0414 296.11 24.6344C296.587 25.2204 296.951 25.9203 297.203 26.7338C297.456 27.5475 297.581 28.4369 297.581 29.4022V31.5947ZM294.67 29.3815C294.67 28.7678 294.619 28.2024 294.517 27.6854C294.422 27.1682 294.268 26.7235 294.057 26.3512C293.846 25.9789 293.574 25.6893 293.24 25.4824C292.913 25.2687 292.515 25.1618 292.045 25.1618C291.582 25.1618 291.193 25.2687 290.88 25.4824C290.567 25.6893 290.315 25.9789 290.124 26.3512C289.934 26.7235 289.798 27.1682 289.716 27.6854C289.634 28.2024 289.593 28.7678 289.593 29.3815V31.5947C289.593 32.2015 289.634 32.7634 289.716 33.2805C289.798 33.7977 289.934 34.2458 290.124 34.625C290.315 35.0042 290.567 35.3007 290.88 35.5145C291.193 35.7282 291.585 35.8351 292.055 35.8351C292.518 35.8351 292.913 35.7282 293.24 35.5145C293.574 35.3007 293.843 35.0077 294.047 34.6353C294.258 34.2561 294.415 33.808 294.517 33.2909C294.619 32.7737 294.67 32.2084 294.67 31.5947V29.3815ZM311.14 22.9589L311.15 32.9392C311.15 33.7804 311.034 34.5285 310.803 35.1835C310.578 35.8385 310.248 36.3936 309.812 36.8486C309.383 37.2968 308.855 37.6381 308.229 37.8725C307.609 38.1069 306.901 38.2242 306.104 38.2242C305.355 38.2242 304.677 38.1069 304.072 37.8725C303.472 37.6381 302.958 37.2968 302.529 36.8486C302.1 36.4004 301.766 35.8488 301.528 35.1939C301.296 34.5319 301.18 33.7804 301.18 32.9392L301.191 22.9589H304.061L304.072 32.9392C304.078 33.9114 304.252 34.6457 304.593 35.1422C304.94 35.6386 305.444 35.8868 306.104 35.8868C306.806 35.8868 307.34 35.6386 307.708 35.1422C308.082 34.6457 308.273 33.9114 308.28 32.9392L308.29 22.9589H311.14ZM318.315 32.4945V38.0173H315.444V22.9589H320.532C321.342 22.9589 322.074 23.0796 322.728 23.3209C323.382 23.5553 323.936 23.8863 324.393 24.3138C324.856 24.7343 325.21 25.2411 325.455 25.8341C325.707 26.427 325.833 27.0855 325.833 27.8095C325.833 28.4851 325.707 29.1092 325.455 29.6814C325.21 30.2537 324.856 30.7501 324.393 31.1707C323.936 31.5844 323.382 31.9085 322.728 32.1429C322.074 32.3773 321.342 32.4945 320.532 32.4945H318.315ZM318.315 30.1365H320.532C320.94 30.1365 321.294 30.0744 321.594 29.9503C321.893 29.8262 322.142 29.6573 322.339 29.4435C322.544 29.2298 322.693 28.985 322.789 28.7092C322.891 28.4265 322.942 28.1335 322.942 27.8301C322.942 27.4785 322.891 27.151 322.789 26.8476C322.693 26.5442 322.544 26.2788 322.339 26.0513C322.142 25.8237 321.893 25.6445 321.594 25.5135C321.294 25.3824 320.94 25.3169 320.532 25.3169H318.315V30.1365ZM346.393 35.6696H353.359V38.0173H343.512V22.9589H346.393V35.6696ZM360.421 35.6696H367.388V38.0173H357.541V22.9589H360.421V35.6696ZM381.703 33.3012C381.655 34.0596 381.492 34.7422 381.212 35.349C380.94 35.9557 380.572 36.4728 380.109 36.9003C379.646 37.3278 379.095 37.6587 378.455 37.8932C377.814 38.1207 377.106 38.2345 376.33 38.2345C375.451 38.2345 374.671 38.0725 373.991 37.7484C373.309 37.4174 372.738 36.9589 372.275 36.3729C371.811 35.7799 371.457 35.0698 371.212 34.2423C370.967 33.415 370.845 32.5048 370.845 31.512V29.4849C370.845 28.4851 370.974 27.5716 371.232 26.7442C371.491 25.9168 371.859 25.2066 372.336 24.6137C372.813 24.0207 373.388 23.5622 374.062 23.2382C374.743 22.9072 375.506 22.7417 376.35 22.7417C377.167 22.7417 377.892 22.859 378.526 23.0934C379.166 23.3278 379.711 23.6622 380.16 24.0966C380.61 24.531 380.964 25.0618 381.223 25.6893C381.482 26.3167 381.645 27.0234 381.713 27.8095H378.853C378.826 27.3613 378.758 26.9683 378.648 26.6304C378.546 26.2926 378.393 26.0134 378.189 25.7927C377.991 25.5652 377.74 25.3962 377.433 25.2859C377.133 25.1687 376.772 25.1101 376.35 25.1101C375.908 25.1101 375.523 25.2066 375.196 25.3997C374.869 25.5927 374.597 25.8755 374.378 26.2478C374.168 26.6201 374.011 27.0786 373.909 27.6233C373.807 28.1611 373.756 28.7747 373.756 29.4642V31.512C373.756 32.9944 373.96 34.0907 374.368 34.8008C374.784 35.511 375.438 35.8661 376.33 35.8661C377.079 35.8661 377.671 35.6661 378.107 35.2663C378.543 34.8594 378.785 34.2044 378.832 33.3012H381.703Z" fill="white"/>
</svg>
