<svg width="257" height="134" viewBox="0 0 257 134" fill="none" xmlns="http://www.w3.org/2000/svg">
<path d="M154.59 33.7705H146.604V49.9216H154.59V33.7705Z" fill="#9C9C9C"/>
<path d="M198.87 33.7705H190.885V49.9216H198.87V33.7705Z" fill="#9C9C9C"/>
<path d="M256.943 33.7705H248.958V49.9216H256.943V33.7705Z" fill="#9C9C9C"/>
<path d="M169.107 22.7583H161.122V60.9336H169.107V22.7583Z" fill="#9C9C9C"/>
<path d="M213.388 22.7583H205.403V60.9336H213.388V22.7583Z" fill="#9C9C9C"/>
<path d="M242.425 22.7583H234.439V60.9336H242.425V22.7583Z" fill="#9C9C9C"/>
<path d="M184.352 0H176.366V83.692H184.352V0Z" fill="#9C9C9C"/>
<path d="M227.907 0H219.922V83.692H227.907V0Z" fill="#9C9C9C"/>
<path d="M0 67.541V15.8702H13.2292C16.6213 15.8702 19.6858 16.4617 22.4229 17.6446C25.1834 18.8039 27.5344 20.4363 29.4761 22.542C31.4412 24.6239 32.9501 27.1199 34.0028 30.03C35.0789 32.94 35.6169 36.1339 35.6169 39.6118V43.8704C35.6169 47.3482 35.0789 50.5422 34.0028 53.4522C32.9501 56.3386 31.4646 58.8346 29.5463 60.9402C27.628 63.0222 25.3237 64.6428 22.6335 65.8021C19.9431 66.9614 16.9722 67.541 13.7205 67.541H0ZM9.93067 23.9615V59.5207H13.7205C15.5686 59.5207 17.2178 59.1658 18.6682 58.456C20.142 57.7463 21.3819 56.7171 22.3878 55.3685C23.4172 54.02 24.2008 52.3876 24.7389 50.4712C25.2769 48.5312 25.546 46.3309 25.546 43.8704V39.5408C25.546 37.2223 25.2769 35.1166 24.7389 33.2239C24.2242 31.3075 23.4405 29.6633 22.3878 28.291C21.3585 26.9188 20.0718 25.8542 18.5278 25.0971C17.0073 24.34 15.241 23.9615 13.2292 23.9615H9.93067ZM60.5088 15.8702L65.3514 35.2822L70.8605 15.8702H83.1074V67.541H74.0538V52.2456L74.4749 28.0781L67.7726 50.5067H62.895L56.8945 29.0363L57.3156 52.2456V67.541H48.2622V15.8702H60.5088ZM123.123 54.0555C123.123 53.1328 122.959 52.2693 122.632 51.4649C122.328 50.6604 121.79 49.9152 121.018 49.2291C120.269 48.5193 119.275 47.8805 118.035 47.3127C116.818 46.7212 115.298 46.1771 113.473 45.6803C111.25 45.0652 109.122 44.2962 107.087 43.3736C105.075 42.4508 103.297 41.3389 101.753 40.0376C100.209 38.7364 98.9694 37.2223 98.033 35.4951C97.1212 33.7681 96.6646 31.7808 96.6646 29.5331C96.6646 27.3565 97.1212 25.381 98.033 23.6066C98.9454 21.8322 100.209 20.318 101.823 19.0641C103.437 17.8102 105.344 16.852 107.543 16.1895C109.742 15.5035 112.128 15.1604 114.701 15.1604C117.368 15.1604 119.801 15.5507 122 16.3315C124.223 17.1123 126.129 18.2124 127.72 19.6319C129.31 21.0278 130.55 22.6958 131.44 24.6357C132.329 26.5758 132.773 28.7051 132.773 31.0236H123.158C123.111 29.8644 122.901 28.7997 122.527 27.8297C122.175 26.8597 121.638 26.0316 120.912 25.3455C120.21 24.6357 119.322 24.0916 118.245 23.7131C117.193 23.3108 115.953 23.1097 114.526 23.1097C113.216 23.1097 112.046 23.2754 111.017 23.6066C110.011 23.9141 109.157 24.3637 108.455 24.9552C107.754 25.5229 107.215 26.2091 106.841 27.0135C106.49 27.7942 106.315 28.6459 106.315 29.5686C106.315 30.5387 106.549 31.414 107.016 32.1947C107.508 32.9755 108.21 33.6853 109.122 34.324C110.035 34.9392 111.134 35.507 112.421 36.0275C113.73 36.548 115.204 37.0329 116.842 37.4825C119.181 38.1686 121.333 39.0085 123.298 40.0022C125.263 40.9958 126.948 42.1788 128.352 43.551C129.779 44.8996 130.878 46.4492 131.65 48.2C132.446 49.927 132.843 51.8552 132.843 53.9845C132.843 56.2558 132.387 58.2786 131.474 60.053C130.586 61.8038 129.346 63.2943 127.755 64.5245C126.164 65.7312 124.27 66.6538 122.07 67.2926C119.871 67.9077 117.474 68.2153 114.877 68.2153C113.263 68.2153 111.648 68.0615 110.035 67.7539C108.443 67.47 106.911 67.0205 105.437 66.4054C103.987 65.7903 102.63 65.0214 101.367 64.0987C100.104 63.176 99.0042 62.0995 98.0686 60.8692C97.1561 59.639 96.4309 58.2431 95.893 56.6816C95.3783 55.1202 95.1206 53.393 95.1206 51.5004H104.806C104.853 53.0618 105.122 54.3985 105.613 55.5105C106.104 56.6225 106.782 57.5334 107.648 58.2431C108.537 58.9529 109.59 59.4733 110.806 59.8046C112.046 60.1358 113.403 60.3015 114.877 60.3015C116.187 60.3015 117.344 60.1477 118.351 59.8401C119.38 59.5325 120.246 59.1066 120.947 58.5625C121.649 58.0184 122.187 57.3678 122.562 56.6106C122.936 55.83 123.123 54.9782 123.123 54.0555Z" fill="#FBFBFB"/>
<path d="M11.3399 129.456H5.2996L4.11055 133.706H0.0185547L6.61277 113.351H10.1378L16.6072 133.706H12.5152L11.3399 129.456ZM6.25345 126.115H10.4282L8.36803 118.622L6.25345 126.115ZM33.836 113.351L33.8498 126.842C33.8498 127.979 33.693 128.99 33.3801 129.876C33.076 130.761 32.6288 131.512 32.0394 132.127C31.4587 132.732 30.7443 133.194 29.8965 133.511C29.058 133.828 28.0991 133.986 27.0211 133.986C26.007 133.986 25.0902 133.828 24.2699 133.511C23.4591 133.194 22.7637 132.732 22.1829 132.127C21.6022 131.521 21.1507 130.775 20.8284 129.89C20.5148 128.995 20.358 127.979 20.358 126.842L20.3718 113.351H24.2561L24.2699 126.842C24.2794 128.156 24.5145 129.149 24.9755 129.82C25.4452 130.491 26.1275 130.826 27.0211 130.826C27.9706 130.826 28.6936 130.491 29.1916 129.82C29.6983 129.149 29.956 128.156 29.9654 126.842L29.9792 113.351H33.836ZM54.203 116.553H47.9964V133.706H44.0983V116.553H37.9745V113.351H54.203V116.553ZM72.4416 125.025C72.4416 126.33 72.271 127.532 71.9298 128.632C71.5894 129.731 71.0958 130.677 70.4511 131.47C69.8058 132.262 69.0182 132.882 68.0869 133.329C67.1657 133.767 66.124 133.986 64.9632 133.986C63.8018 133.986 62.7695 133.767 61.8665 133.329C60.9635 132.882 60.2027 132.262 59.5857 131.47C58.9679 130.668 58.4982 129.722 58.1752 128.632C57.8529 127.532 57.6917 126.33 57.6917 125.025V122.061C57.6917 120.756 57.8529 119.554 58.1752 118.454C58.4982 117.354 58.9679 116.408 59.5857 115.616C60.2027 114.814 60.9584 114.19 61.8527 113.743C62.7557 113.295 63.788 113.072 64.9495 113.072C66.1196 113.072 67.1657 113.295 68.0869 113.743C69.0182 114.19 69.8058 114.814 70.4511 115.616C71.0958 116.408 71.5894 117.354 71.9298 118.454C72.271 119.554 72.4416 120.756 72.4416 122.061V125.025ZM68.5021 122.033C68.5021 121.203 68.4324 120.439 68.2945 119.74C68.1653 119.041 67.9584 118.44 67.6723 117.937C67.3863 117.433 67.0183 117.042 66.5668 116.762C66.124 116.473 65.5854 116.329 64.9495 116.329C64.3223 116.329 63.7974 116.473 63.3735 116.762C62.9495 117.042 62.6084 117.433 62.3499 117.937C62.0922 118.44 61.9079 119.041 61.7975 119.74C61.6865 120.439 61.6313 121.203 61.6313 122.033V125.025C61.6313 125.845 61.6865 126.604 61.7975 127.303C61.9079 128.003 62.0922 128.608 62.3499 129.121C62.6084 129.633 62.9495 130.034 63.3735 130.323C63.7974 130.612 64.3273 130.757 64.9632 130.757C65.5897 130.757 66.124 130.612 66.5668 130.323C67.0183 130.034 67.382 129.638 67.6586 129.135C67.9446 128.622 68.1565 128.016 68.2945 127.317C68.4324 126.618 68.5021 125.854 68.5021 125.025V122.033ZM91.2188 131.33C90.9699 131.637 90.6294 131.95 90.196 132.266C89.7627 132.583 89.2465 132.872 88.6477 133.133C88.0582 133.385 87.394 133.59 86.6572 133.748C85.9197 133.907 85.127 133.986 84.2791 133.986C83.1365 133.986 82.1042 133.781 81.1831 133.371C80.2612 132.961 79.4735 132.369 78.8195 131.595C78.1647 130.822 77.658 129.876 77.2987 128.757C76.9481 127.63 76.7731 126.353 76.7731 124.927V122.159C76.7731 120.733 76.9575 119.461 77.3263 118.342C77.7038 117.214 78.2199 116.259 78.8747 115.476C79.5381 114.693 80.312 114.097 81.1969 113.687C82.0905 113.277 83.0581 113.072 84.0998 113.072C85.2329 113.072 86.2195 113.216 87.0579 113.505C87.9058 113.794 88.6201 114.213 89.2008 114.763C89.7815 115.304 90.233 115.966 90.5554 116.748C90.8871 117.531 91.1034 118.412 91.205 119.391H87.4172C87.288 118.347 86.9751 117.564 86.4772 117.042C85.9886 116.511 85.2286 116.245 84.1963 116.245C83.6991 116.245 83.2381 116.376 82.8142 116.637C82.3903 116.888 82.0215 117.261 81.7079 117.755C81.3951 118.249 81.146 118.864 80.9617 119.6C80.7773 120.327 80.6851 121.171 80.6851 122.131V124.927C80.6945 126.828 81.0081 128.287 81.6252 129.303C82.2429 130.309 83.1873 130.817 84.4591 130.826C84.7633 130.826 85.0631 130.803 85.3578 130.757C85.6525 130.71 85.9291 130.645 86.1868 130.561C86.4452 130.477 86.671 130.384 86.8648 130.281C87.0673 130.169 87.2191 130.053 87.3207 129.932L87.3345 126.241H84.0033V123.305H91.205L91.2188 131.33ZM103.195 126.101H100.251V133.706H96.3663V113.351H103.112C104.227 113.351 105.236 113.486 106.139 113.757C107.042 114.018 107.812 114.404 108.448 114.917C109.093 115.43 109.586 116.068 109.927 116.832C110.277 117.597 110.453 118.482 110.453 119.489C110.453 120.215 110.365 120.873 110.19 121.46C110.024 122.038 109.78 122.56 109.457 123.026C109.144 123.482 108.761 123.883 108.31 124.228C107.868 124.573 107.37 124.871 106.817 125.123L111.144 133.525V133.706H106.983L103.195 126.101ZM100.251 122.914H103.126C104.223 122.914 105.066 122.634 105.656 122.075C106.255 121.506 106.555 120.733 106.555 119.754C106.555 118.738 106.264 117.951 105.683 117.392C105.103 116.823 104.245 116.539 103.112 116.539H100.251V122.914ZM129.395 125.025C129.395 126.33 129.226 127.532 128.884 128.632C128.543 129.731 128.05 130.677 127.405 131.47C126.76 132.262 125.972 132.882 125.041 133.329C124.119 133.767 123.078 133.986 121.917 133.986C120.756 133.986 119.724 133.767 118.821 133.329C117.917 132.882 117.157 132.262 116.539 131.47C115.922 130.668 115.452 129.722 115.13 128.632C114.807 127.532 114.646 126.33 114.646 125.025V122.061C114.646 120.756 114.807 119.554 115.13 118.454C115.452 117.354 115.922 116.408 116.539 115.616C117.157 114.814 117.913 114.19 118.806 113.743C119.71 113.295 120.743 113.072 121.903 113.072C123.073 113.072 124.119 113.295 125.041 113.743C125.972 114.19 126.76 114.814 127.405 115.616C128.05 116.408 128.543 117.354 128.884 118.454C129.226 119.554 129.395 120.756 129.395 122.061V125.025ZM125.456 122.033C125.456 121.203 125.387 120.439 125.249 119.74C125.12 119.041 124.912 118.44 124.627 117.937C124.341 117.433 123.972 117.042 123.521 116.762C123.079 116.473 122.539 116.329 121.903 116.329C121.277 116.329 120.751 116.473 120.327 116.762C119.903 117.042 119.563 117.433 119.304 117.937C119.047 118.44 118.862 119.041 118.751 119.74C118.641 120.439 118.586 121.203 118.586 122.033V125.025C118.586 125.845 118.641 126.604 118.751 127.303C118.862 128.003 119.047 128.608 119.304 129.121C119.563 129.633 119.903 130.034 120.327 130.323C120.751 130.612 121.281 130.757 121.917 130.757C122.543 130.757 123.079 130.612 123.521 130.323C123.972 130.034 124.337 129.638 124.613 129.135C124.898 128.622 125.11 128.016 125.249 127.317C125.387 126.618 125.456 125.854 125.456 125.025V122.033ZM147.744 113.351L147.758 126.842C147.758 127.979 147.601 128.99 147.288 129.876C146.984 130.761 146.537 131.512 145.948 132.127C145.367 132.732 144.653 133.194 143.805 133.511C142.966 133.828 142.007 133.986 140.929 133.986C139.916 133.986 138.999 133.828 138.179 133.511C137.367 133.194 136.672 132.732 136.091 132.127C135.51 131.521 135.059 130.775 134.737 129.89C134.423 128.995 134.266 127.979 134.266 126.842L134.28 113.351H138.164L138.179 126.842C138.188 128.156 138.423 129.149 138.884 129.82C139.354 130.491 140.036 130.826 140.929 130.826C141.879 130.826 142.602 130.491 143.1 129.82C143.607 129.149 143.865 128.156 143.874 126.842L143.888 113.351H147.744ZM157.453 126.241V133.706H153.569V113.351H160.454C161.55 113.351 162.541 113.514 163.426 113.841C164.31 114.157 165.061 114.605 165.679 115.183C166.305 115.751 166.784 116.436 167.116 117.238C167.457 118.039 167.628 118.929 167.628 119.908C167.628 120.821 167.457 121.665 167.116 122.438C166.784 123.212 166.305 123.883 165.679 124.452C165.061 125.011 164.31 125.449 163.426 125.766C162.541 126.083 161.55 126.241 160.454 126.241H157.453ZM157.453 123.054H160.454C161.006 123.054 161.485 122.97 161.891 122.802C162.297 122.634 162.633 122.406 162.9 122.117C163.177 121.828 163.379 121.497 163.508 121.124C163.647 120.742 163.716 120.346 163.716 119.936C163.716 119.461 163.647 119.018 163.508 118.608C163.379 118.198 163.177 117.839 162.9 117.531C162.633 117.224 162.297 116.981 161.891 116.804C161.485 116.627 161.006 116.539 160.454 116.539H157.453V123.054ZM195.451 130.533H204.878V133.706H191.553V113.351H195.451V130.533ZM214.436 130.533H223.863V133.706H210.537V113.351H214.436V130.533ZM243.235 127.331C243.17 128.357 242.95 129.279 242.571 130.1C242.203 130.92 241.705 131.619 241.079 132.197C240.452 132.774 239.705 133.222 238.839 133.539C237.973 133.846 237.014 134 235.964 134C234.775 134 233.719 133.781 232.798 133.343C231.876 132.896 231.103 132.276 230.476 131.484C229.849 130.682 229.37 129.722 229.038 128.604C228.706 127.485 228.541 126.255 228.541 124.913V122.173C228.541 120.821 228.716 119.586 229.066 118.468C229.416 117.35 229.914 116.39 230.559 115.588C231.204 114.787 231.982 114.167 232.895 113.729C233.817 113.281 234.849 113.058 235.992 113.058C237.097 113.058 238.079 113.216 238.936 113.533C239.802 113.85 240.539 114.302 241.148 114.889C241.756 115.476 242.235 116.194 242.585 117.042C242.936 117.89 243.156 118.845 243.249 119.908H239.378C239.342 119.302 239.25 118.771 239.101 118.314C238.964 117.857 238.756 117.48 238.48 117.182C238.212 116.874 237.872 116.646 237.456 116.497C237.051 116.338 236.563 116.259 235.992 116.259C235.393 116.259 234.872 116.39 234.429 116.651C233.987 116.911 233.619 117.294 233.323 117.797C233.038 118.3 232.826 118.92 232.688 119.656C232.549 120.383 232.48 121.213 232.48 122.145V124.913C232.48 126.917 232.757 128.399 233.309 129.359C233.872 130.319 234.757 130.799 235.964 130.799C236.977 130.799 237.78 130.528 238.369 129.988C238.959 129.438 239.286 128.552 239.35 127.331H243.235Z" fill="#FBFBFB"/>
</svg>
