<svg width="40" height="30" viewBox="0 0 40 30" fill="none" xmlns="http://www.w3.org/2000/svg">
<path d="M40 17.4097L35.2782 27.2502C34.6876 28.3951 33.5071 29.1143 32.2189 29.1143H4.37739C3.86431 29.1143 3.5315 28.5734 3.76288 28.1153L3.77458 28.0921C4.15222 27.3445 3.92817 26.4331 3.24686 25.946L3.20837 25.9184C1.62686 24.7873 0.688497 22.9625 0.688497 21.0182V18.7867H25.4746V18.773C25.4746 18.02 26.085 17.4097 26.8378 17.4097H40ZM24.0976 9.14772H19.2781C18.8978 9.14772 18.5896 9.45595 18.5896 9.83621V17.4097C18.5896 17.79 18.8978 18.0983 19.2781 18.0983H24.0976C24.4778 18.0983 24.7861 17.79 24.7861 17.4097V9.83621C24.7861 9.45595 24.4778 9.14772 24.0976 9.14772ZM32.3596 11.9017H26.8516C26.4714 11.9017 26.1631 12.2099 26.1631 12.5902V15.3441C26.1631 15.7244 26.4714 16.0327 26.8516 16.0327H32.3596C32.7399 16.0327 33.0481 15.7244 33.0481 15.3441V12.5902C33.0481 12.2099 32.7399 11.9017 32.3596 11.9017ZM11.016 18.0982H16.524C16.9042 18.0982 17.2125 17.7899 17.2125 17.4097V11.9017C17.2125 11.5214 16.9042 11.2132 16.524 11.2132H11.016C10.6358 11.2132 10.3275 11.5214 10.3275 11.9017V17.4097C10.3276 17.7899 10.6358 18.0982 11.016 18.0982ZM10.6637 7.77066L8.95059 9.14772V18.0982H2.06549V9.14772H0V7.77066H4.81948V5.77418H3.03961V4.97052H4.81948V0.885681H5.50797V4.97052H7.28791V5.77418H5.50797V7.77066H10.6637ZM7.70673 13.4354H5.46621V15.4914H7.70673V13.4354ZM7.70673 10.1406H5.46621V12.1967H7.70673V10.1406Z" fill="#191E74"/>
</svg>
