<svg width="36" height="36" viewBox="0 0 36 36" fill="none" xmlns="http://www.w3.org/2000/svg">
<g clip-path="url(#clip0)">
<path d="M17.7432 17.3413C20.1256 17.3413 22.1885 16.4868 23.8741 14.801C25.5597 13.1154 26.4141 11.053 26.4141 8.67038C26.4141 6.28855 25.5597 4.22587 23.8738 2.53975C22.188 0.854458 20.1253 0 17.7432 0C15.3605 0 13.2981 0.854458 11.6126 2.54003C9.927 4.2256 9.07227 6.28827 9.07227 8.67038C9.07227 11.053 9.927 13.1157 11.6128 14.8013C13.2987 16.4866 15.3614 17.3413 17.7432 17.3413Z" fill="#C5C5C5"/>
<path d="M32.9621 28.2928C32.9135 27.5913 32.8151 26.8261 32.6704 26.0181C32.5243 25.204 32.3361 24.4344 32.1109 23.731C31.8783 23.004 31.5619 22.286 31.1708 21.598C30.7648 20.8839 30.288 20.2621 29.753 19.7504C29.1935 19.2151 28.5085 18.7847 27.7164 18.4708C26.927 18.1585 26.0522 18.0003 25.1165 18.0003C24.749 18.0003 24.3936 18.1511 23.7072 18.5979C23.2848 18.8734 22.7907 19.192 22.2392 19.5444C21.7676 19.8449 21.1287 20.1264 20.3397 20.3813C19.5698 20.6304 18.7881 20.7567 18.0166 20.7567C17.2451 20.7567 16.4637 20.6304 15.693 20.3813C14.9047 20.1267 14.2659 19.8451 13.7948 19.5447C13.2486 19.1956 12.7542 18.877 12.3254 18.5977C11.6399 18.1508 11.2842 18 10.9167 18C9.98069 18 9.10618 18.1585 8.31709 18.471C7.52553 18.7844 6.84026 19.2148 6.28023 19.7507C5.74547 20.2626 5.26839 20.8842 4.863 21.598C4.47216 22.286 4.15576 23.0037 3.92285 23.7313C3.6979 24.4347 3.50976 25.204 3.36365 26.0181C3.2189 26.825 3.12057 27.5905 3.07196 28.2936C3.02417 28.9824 3 29.6974 3 30.4194C3 32.2986 3.59738 33.82 4.77538 34.9419C5.93883 36.0491 7.47828 36.6108 9.35035 36.6108H26.6845C28.5566 36.6108 30.0955 36.0494 31.2592 34.9419C32.4375 33.8208 33.0349 32.2992 33.0349 30.4192C33.0346 29.6938 33.0101 28.9783 32.9621 28.2928Z" fill="#C5C5C5"/>
</g>
<defs>
<clipPath id="clip0">
<rect width="35.9999" height="36" fill="white"/>
</clipPath>
</defs>
</svg>
