<svg width="670" height="504" viewBox="0 0 670 504" fill="none" xmlns="http://www.w3.org/2000/svg">
<rect width="670" height="504" fill="url(#paint0_linear)"/>
<mask id="mask0" mask-type="alpha" maskUnits="userSpaceOnUse" x="144" y="171" width="430" height="195">
<path d="M144.14 365.326H573.482V171.017H358.811H144.14V365.326Z" fill="white"/>
</mask>
<g mask="url(#mask0)">
<path fill-rule="evenodd" clip-rule="evenodd" d="M568.194 268.156C542.126 321.759 426.83 365.398 311.545 365.398C196.144 365.398 123.367 321.759 149.432 268.156C175.394 214.761 290.79 171.017 406.087 171.017C521.483 171.017 594.248 214.761 568.194 268.156Z" fill="#032B76"/>
<path fill-rule="evenodd" clip-rule="evenodd" d="M403.495 173.088C515.618 173.088 586.187 215.485 560.684 267.322C535.285 319.269 423.06 361.67 311.159 361.67C199.04 361.67 128.465 319.269 153.861 267.322C170.346 233.903 222.559 204.574 287.529 187.751C292.142 186.495 296.872 185.476 301.598 184.335C333.912 177.181 368.76 173.088 403.495 173.088Z" fill="#0A0A08"/>
<path fill-rule="evenodd" clip-rule="evenodd" d="M401.812 175.907C512.522 175.907 582.346 216.825 557.341 266.774C532.334 316.917 421.721 357.745 311.114 357.745C200.4 357.745 130.578 316.917 155.587 266.774C180.494 216.825 291.202 175.907 401.812 175.907Z" fill="#969998"/>
</g>
<path fill-rule="evenodd" clip-rule="evenodd" d="M384.165 184.444C484.186 184.444 547.14 221.042 524.389 265.793C501.732 310.637 401.617 347.239 301.794 347.239C201.776 347.239 138.818 310.637 161.473 265.793C176.18 236.943 222.757 211.623 280.714 197.103C284.83 196.018 289.049 195.138 293.265 194.155C322.092 187.977 353.178 184.444 384.165 184.444Z" fill="#0A0A08"/>
<path fill-rule="evenodd" clip-rule="evenodd" d="M507.974 229.086C512.773 237.064 513.66 246.042 509.861 255.456C506.301 262.581 502.22 268.317 496.136 273.961C464.58 303.137 393.569 324.899 322.654 324.899C239.039 324.899 186.31 294.661 205.36 257.59C218.448 232.071 262.803 208.871 315.92 197.407C322.169 196.06 328.517 195.001 334.963 194.037C322.467 195.291 310.239 197.118 298.217 199.716C239.328 212.719 189.391 233.713 174.856 262.791C153.787 305.065 212.19 339.535 304.952 339.535C380.956 339.535 457.072 316.428 493.635 284.743C497.764 281.187 502.596 276.163 506.388 270.811C507.954 268.644 509.326 266.452 510.472 264.238C517.017 251.525 515.767 239.488 507.974 229.086Z" fill="#0D5DB8"/>
<path fill-rule="evenodd" clip-rule="evenodd" d="M111.968 259.134C110.195 261.922 108.417 263.981 106.682 265.255L106.613 265.307C104.61 266.883 101.987 267.683 98.8164 267.683C96.7567 267.683 95.3427 267.271 94.9481 266.572C94.9071 266.467 93.978 263.905 96.846 254.66C98.7428 248.804 100.953 244.62 103.416 242.224C106.473 239.162 109.754 237.736 113.74 237.736C114.993 237.736 116.033 237.929 116.666 238.28C117.14 238.548 117.516 238.759 117.664 240.483L118.243 247.233H150.034C148.038 249.878 146.331 252.73 144.96 255.716H114.14L111.968 259.134ZM189.031 261.097C187.845 264.875 186.317 267.619 184.612 269.027C182.868 270.424 181.403 271.047 179.86 271.047C179.54 271.047 179.337 271.018 179.217 270.992C179.15 270.575 179.048 269.093 180.109 265.709C181.121 262.262 182.61 259.645 184.409 258.142C186.057 256.823 187.583 256.234 189.356 256.234C189.571 256.234 189.725 256.246 189.832 256.261C189.896 256.729 189.94 258.121 189.031 261.097ZM264.946 261.021C263.97 264.358 262.658 266.845 261.253 268.026C260.106 268.993 259.138 269.462 258.292 269.462C258.206 269.462 258.129 269.459 258.059 269.457C258.077 268.875 258.21 267.707 258.814 265.757C260.126 261.482 261.606 259.648 262.62 258.859C263.778 257.914 264.773 257.419 265.82 257.273C265.758 257.979 265.555 259.155 264.97 260.944L264.946 261.021ZM488.325 227.822L496.755 200.78L453.424 218.766L452.316 219.227L449.641 227.822H441.05L440.698 228.948C437.074 227.326 433.497 226.536 429.77 226.536C426.848 226.536 424.073 226.968 421.521 227.822H387.583L381.16 248.351C381.168 247.512 381.146 246.653 381.089 245.784C380.784 241.327 379.219 237.379 376.685 234.674C373.529 231.065 369.076 228.738 363.454 227.755C359.286 226.924 353.633 226.536 345.662 226.536C340.998 226.536 336.594 226.852 332.198 227.506C327.227 228.273 323.58 229.282 320.727 230.674C316.495 232.512 312.987 234.745 310.306 237.311C307.942 239.468 305.782 242.215 303.708 245.697C303.283 243.515 302.632 241.415 301.768 239.446C299.019 233.556 292.831 226.536 278.952 226.536C275.524 226.536 272.288 226.967 269.072 227.854L269.083 227.822H232.015L226.68 244.881C226.061 243.115 225.246 241.402 224.256 239.78C218.672 230.991 208.359 226.536 193.605 226.536C181.504 226.536 170.733 229.78 161.593 236.181C159.908 237.367 158.295 238.638 156.795 239.962V239.853C156.795 227.27 153.381 218.369 146.36 212.642C140.241 207.416 131.221 204.876 118.783 204.876C103.943 204.876 90.8808 208.877 79.9565 216.773C69.0926 224.692 61.3645 235.976 56.9895 250.306C53.4483 261.496 53.0513 271.101 55.8083 278.859C58.762 286.961 63.6498 292.735 70.3342 296.015C76.3417 299.021 84.5282 300.544 94.6658 300.544C103.098 300.544 110.477 299.359 116.591 297.02C122.763 294.778 128.608 291.275 133.966 286.607C136.411 284.407 139.099 281.494 141.559 278.38C142.868 284.47 146.059 288.776 148.529 291.331C154.569 297.378 163.549 300.445 175.22 300.445C187.483 300.445 198.383 297.169 207.615 290.704C209.904 289.101 212.044 287.339 213.986 285.46L202.985 320.626H241.761L248.788 298.299C252.17 299.724 256.063 300.445 260.366 300.445C269.395 300.445 277.843 297.421 285.476 291.455C287.656 289.743 289.707 287.77 291.579 285.588C292.268 288.4 293.641 290.961 295.659 293.204C299.922 298.076 306.612 300.445 316.112 300.445C322.377 300.445 328.251 299.506 333.571 297.654C334.444 297.345 335.338 296.991 336.231 296.603L337.083 299.155H403.956L411.506 274.998C414.651 264.999 417.531 261.005 418.961 259.521C420.343 258.284 421.269 258.114 422.063 258.114C422.153 258.114 423.012 258.141 425.106 259.066L430.32 261.372L432.799 258.383L440.089 258.402L436.888 268.638C434.387 276.262 433.543 281.699 434.234 285.746C434.957 290.697 437.624 294.795 441.743 297.282C445.26 299.44 450.346 300.445 457.746 300.445C463.146 300.445 469.173 299.801 475.663 298.531L478.815 297.914L480.492 297.583L486.983 265.72L475.368 269.13L478.694 258.409H491.431L500.976 227.822H488.325Z" fill="white"/>
<path fill-rule="evenodd" clip-rule="evenodd" d="M115.217 257.677L113.622 260.188C111.718 263.181 109.774 265.419 107.824 266.85C105.469 268.704 102.437 269.645 98.8158 269.645C95.9044 269.645 94.0245 268.929 93.2282 267.512C92.9652 267.054 91.8153 264.254 94.9705 254.085C96.9734 247.902 99.3539 243.438 102.053 240.813C105.437 237.422 109.261 235.774 113.74 235.774C115.365 235.774 116.669 236.04 117.612 236.56C118.731 237.192 119.418 238.008 119.617 240.315L120.042 245.271H154.201C150.83 248.997 148.164 253.145 146.235 257.677H115.217ZM190.907 261.665C189.583 265.879 187.885 268.867 185.865 270.535C183.759 272.222 181.852 273.009 179.86 273.009C178.091 273.009 177.729 272.39 177.486 271.973C177.392 271.818 176.616 270.299 178.238 265.115C179.37 261.268 181.024 258.415 183.145 256.643C185.164 255.026 187.136 254.272 189.355 254.272C190.987 254.272 191.27 254.757 191.58 255.284C191.615 255.34 192.422 256.708 190.907 261.665ZM256.94 265.176C258.097 261.408 259.644 258.689 261.425 257.304C263.127 255.913 264.737 255.264 266.492 255.264C267.392 255.264 267.453 255.374 267.66 255.751C267.839 256.056 268.068 257.775 266.828 261.571C265.727 265.33 264.236 268.083 262.513 269.53C261 270.805 259.618 271.424 258.291 271.424C256.688 271.424 256.42 270.976 256.244 270.683C256.238 270.669 255.626 269.426 256.94 265.176ZM300.566 264.213C301.354 261.416 301.887 258.688 302.157 256.079L312.447 257.123C308.705 258.395 305.662 259.964 303.201 261.886C302.269 262.608 301.39 263.387 300.566 264.213ZM489.989 256.447L498.309 229.784H485.659L493.634 204.2L453.913 220.687L451.085 229.784H442.49L441.885 231.719C437.84 229.552 433.87 228.498 429.77 228.498C426.939 228.498 424.279 228.931 421.846 229.784H389.023L369.563 291.992L369.382 290.893C368.948 288.265 368.904 286.958 368.943 286.33C368.989 285.671 369.229 284.265 370.098 281.327L377.884 256.39C378.971 253.107 379.379 249.68 379.131 245.912C378.856 241.889 377.469 238.362 375.239 235.999C372.383 232.719 368.302 230.596 363.126 229.691C359.048 228.877 353.499 228.498 345.661 228.498C341.094 228.498 336.784 228.807 332.484 229.449C327.697 230.187 324.216 231.145 321.559 232.451C317.517 234.201 314.185 236.314 311.667 238.723C308.985 241.173 306.553 244.452 304.23 248.749L302.353 252.222C302.356 247.868 301.559 243.846 299.967 240.226C297.471 234.876 291.798 228.498 278.951 228.498C274.474 228.498 270.242 229.292 266.072 230.917L266.422 229.784H233.455L226.217 252.922C226.033 248.519 224.815 244.456 222.578 240.798C217.392 232.636 207.644 228.498 193.605 228.498C181.913 228.498 171.521 231.623 162.716 237.79C159.778 239.859 157.148 242.127 154.834 244.585V239.853C154.834 227.897 151.655 219.493 145.129 214.167C139.353 209.235 130.734 206.838 118.782 206.838C104.364 206.838 91.6862 210.715 81.1022 218.363C70.5942 226.025 63.1123 236.966 58.8652 250.876C55.4518 261.662 55.044 270.857 57.6562 278.205C60.4265 285.803 64.9825 291.203 71.1927 294.252C76.9384 297.124 84.8353 298.582 94.6652 298.582C102.857 298.582 109.999 297.44 115.886 295.191C121.855 293.02 127.504 289.635 132.684 285.124C136.125 282.027 139.927 277.598 142.916 273.24C143.139 281.227 146.78 286.702 149.943 289.973C155.584 295.619 164.089 298.483 175.219 298.483C187.074 298.483 197.595 295.325 206.491 289.096C211.458 285.615 215.574 281.47 218.771 276.73L205.652 318.664H240.322L247.585 295.59C248.022 295.813 248.469 296.022 248.914 296.212C252.196 297.72 256.048 298.483 260.365 298.483C268.946 298.483 276.988 295.599 284.27 289.909C287.569 287.316 290.515 284.142 293.054 280.45C292.799 285.812 295.031 289.577 297.111 291.887C300.995 296.325 307.21 298.483 316.111 298.483C322.156 298.483 327.814 297.581 332.928 295.801C334.376 295.288 335.875 294.65 337.394 293.899L338.494 297.193H402.514L409.633 274.415C412.764 264.463 415.702 260.044 417.592 258.114C419.088 256.757 420.468 256.152 422.062 256.152C422.453 256.152 423.611 256.261 425.898 257.27L429.758 258.979L431.88 256.42L442.755 256.445L438.761 269.218C436.349 276.57 435.527 281.726 436.169 285.432C436.8 289.806 439.139 293.419 442.752 295.603C445.958 297.569 450.723 298.483 457.745 298.483C463.017 298.483 468.918 297.851 475.285 296.605L478.831 295.911L484.411 268.519L475.787 271.052C474.553 271.413 473.434 271.705 472.449 271.918L477.249 256.447H489.989Z" fill="#0A0A08"/>
<path fill-rule="evenodd" clip-rule="evenodd" d="M142.503 263.096C139.837 269.226 134.003 276.645 129.063 281.094C124.513 285.056 119.472 288.121 114.038 290.098C108.602 292.173 102.082 293.164 94.6665 293.164C85.5715 293.164 78.5577 291.877 73.6156 289.404C68.5758 286.931 65.0152 282.578 62.7456 276.348C60.5642 270.217 60.9623 262.204 64.0282 252.511C67.9833 239.561 74.8016 229.661 84.2913 222.744C93.875 215.82 105.341 212.256 118.783 212.256C129.258 212.256 136.869 214.236 141.614 218.291C148.038 223.53 149.422 232.137 149.422 239.853H125.013C124.715 236.391 123.429 233.62 120.269 231.84C118.484 230.85 116.312 230.355 113.741 230.355C107.91 230.355 102.671 232.53 98.2235 236.983C94.8656 240.249 92.0954 245.392 89.821 252.412C87.1533 261.016 86.6622 266.955 88.5372 270.217C90.3181 273.386 93.7785 275.063 98.8171 275.063C103.76 275.063 107.91 273.677 111.174 271.109C113.741 269.226 116.113 266.362 118.191 263.096H142.503Z" fill="white"/>
<path fill-rule="evenodd" clip-rule="evenodd" d="M196.073 263.293C194.395 268.636 192.121 272.395 189.252 274.764C186.287 277.141 183.226 278.427 179.861 278.427C176.603 278.427 174.23 277.141 172.847 274.764C171.363 272.297 171.463 268.636 173.045 263.584C174.527 258.544 176.799 254.886 179.762 252.412C182.728 250.034 185.894 248.854 189.357 248.854C192.513 248.854 194.786 250.034 196.174 252.412C197.655 254.785 197.554 258.449 196.073 263.293ZM218.011 243.707C213.863 237.179 205.76 233.916 193.606 233.916C183.024 233.916 173.733 236.69 165.832 242.223C157.823 247.862 152.483 254.985 149.817 263.584C146.853 272.886 148.236 280.406 153.774 286.141C158.316 290.69 165.432 293.065 175.22 293.065C186.086 293.065 195.48 290.195 203.386 284.658C211.292 279.119 216.533 271.996 219.297 263.293C221.769 255.579 221.276 249.05 218.011 243.707Z" fill="white"/>
<path fill-rule="evenodd" clip-rule="evenodd" d="M272.025 263.096C270.547 268.14 268.472 271.6 266 273.677C263.53 275.756 260.962 276.844 258.292 276.844C255.227 276.844 252.953 275.756 251.668 273.576C250.285 271.405 250.388 268.042 251.766 263.584C253.251 258.746 255.326 255.181 257.999 253.108C260.663 250.93 263.428 249.845 266.493 249.845C269.163 249.845 271.142 250.833 272.329 253.006C273.607 255.181 273.515 258.544 272.025 263.096ZM295.062 242.519C292.387 236.787 287.053 233.916 278.952 233.916C274.897 233.916 270.943 234.706 266.991 236.391C264.123 237.576 260.663 239.947 256.515 243.509L259.081 235.202H237.435L213.023 313.246H236.352L244.853 286.239C246.432 288.515 248.607 290.195 251.176 291.285C253.746 292.466 256.809 293.065 260.366 293.065C267.679 293.065 274.602 290.588 280.926 285.648C287.35 280.602 291.995 273.48 294.958 264.082C297.631 255.479 297.631 248.357 295.062 242.519Z" fill="white"/>
<path fill-rule="evenodd" clip-rule="evenodd" d="M345.862 268.339C344.968 271.01 343.875 273.282 342.395 274.965C340.913 276.645 338.936 278.029 336.369 279.218C333.798 280.406 331.234 280.999 328.558 280.999C326.093 280.999 324.407 280.406 323.524 279.316C322.534 278.23 322.331 276.844 322.926 275.165C323.326 273.677 324.407 272.395 326.093 271.205C327.671 270.019 331.028 268.931 336.072 267.741C339.83 266.853 343.383 265.962 346.939 264.875L345.862 268.339ZM373.728 246.281C373.533 243.415 372.642 241.139 371.152 239.561C369.084 237.179 366.016 235.696 362.065 235.006C358.116 234.215 352.573 233.916 345.661 233.916C341.309 233.916 337.261 234.215 333.306 234.806C329.448 235.398 326.185 236.193 323.819 237.38C320.357 238.863 317.496 240.643 315.321 242.722C313.049 244.797 310.972 247.663 308.993 251.327L330.43 253.501C332.121 251.029 333.798 249.348 335.58 248.456C337.854 247.367 340.819 246.775 344.672 246.775C347.634 246.775 349.515 247.269 350.4 248.357C351.199 249.445 351.199 251.327 350.4 253.997C347.146 254.985 344.172 255.875 341.41 256.569C338.545 257.159 332.611 258.352 323.423 260.027C315.713 261.313 310.078 263.387 306.524 266.163C302.968 268.931 300.494 272.495 299.208 276.746C297.728 281.396 298.423 285.248 301.185 288.316C303.956 291.483 308.895 293.065 316.111 293.065C321.539 293.065 326.58 292.27 331.124 290.69C334.489 289.502 338.151 287.526 341.999 284.856C341.801 286.436 341.707 287.622 341.707 288.415C341.707 289.211 341.898 290.287 342.395 291.775H364.038C363.647 289.404 363.447 287.427 363.543 285.947C363.647 284.46 364.142 282.38 364.929 279.713L372.746 254.689C373.627 252.017 373.924 249.249 373.728 246.281Z" fill="white"/>
<path fill-rule="evenodd" clip-rule="evenodd" d="M393.002 235.202H414.646L411.781 244.398C415.143 240.443 418.206 237.676 420.877 236.193C423.542 234.609 426.504 233.916 429.771 233.916C433.231 233.916 436.586 234.906 440.043 236.884L428.086 252.315C425.619 251.222 423.644 250.734 422.063 250.734C419 250.734 416.325 251.915 413.852 254.196C410.499 257.558 407.33 263.695 404.471 272.786L398.535 291.775H375.304L393.002 235.202Z" fill="white"/>
<path fill-rule="evenodd" clip-rule="evenodd" d="M485.019 213.642L478.299 235.202H490.948L486.008 251.029H473.261L467.03 271.109C466.236 273.48 466.041 275.063 466.236 275.854C466.632 277.043 467.721 277.736 469.691 277.736C471.379 277.736 473.943 277.24 477.31 276.249L474.247 291.285C468.219 292.466 462.68 293.065 457.746 293.065C451.915 293.065 447.855 292.377 445.583 290.983C443.307 289.606 441.929 287.427 441.531 284.658C441.032 281.793 441.83 277.24 443.905 270.908L450.123 251.029H441.531L446.471 235.202H455.068L458.332 224.72L485.019 213.642Z" fill="white"/>
<defs>
<linearGradient id="paint0_linear" x1="335" y1="0" x2="335" y2="504" gradientUnits="userSpaceOnUse">
<stop stop-color="#121773"/>
<stop offset="1" stop-color="#0D1038"/>
</linearGradient>
</defs>
</svg>
