<?xml version="1.0" encoding="utf-8"?>
<!-- Generator: Adobe Illustrator 24.1.2, SVG Export Plug-In . SVG Version: 6.00 Build 0)  -->
<svg version="1.1" id="Layer_1" xmlns="http://www.w3.org/2000/svg" xmlns:xlink="http://www.w3.org/1999/xlink" x="0px" y="0px"
	 viewBox="0 0 670 504" enable-background="new 0 0 670 504" xml:space="preserve">
<g>
	<rect fill="#EFEFEF" width="670" height="504"/>
</g>
<g>
	<defs>
		<rect id="SVGID_1_" x="44" y="152" width="528" height="199"/>
	</defs>
	<clipPath id="SVGID_2_">
		<use xlink:href="#SVGID_1_"  overflow="visible"/>
	</clipPath>
	<g clip-path="url(#SVGID_2_)">
		<path fill="#261C02" d="M389.3,246.1l14.1,11.9l-2.2,13.9h23.3l-3.2,20.1H371l11.6-73.4h49.5l-3.2,20.1h-22.6l-1.1,7.5H389.3z"/>
		<path fill="#261C02" d="M563.6,225.3h0.9c1,0,1.9-0.4,1.9-1.4c0-1-0.5-1.4-1.9-1.4h-0.9V225.3z M563.6,229.7h-1.3v-8
			c0.7-0.1,1.5-0.2,2.3-0.2c0.9-0.1,1.8,0.1,2.5,0.6c0.3,0.2,0.4,0.4,0.6,0.7c0.1,0.3,0.2,0.6,0.2,0.9c0,0.5-0.2,0.9-0.4,1.2
			c-0.3,0.4-0.7,0.6-1.1,0.7l0,0c0.7,0.2,1.2,0.8,1.3,2c0.1,0.7,0.2,1.3,0.5,2h-1.3c-0.3-0.6-0.5-1.3-0.5-2c0-0.2-0.1-0.4-0.1-0.6
			c-0.1-0.2-0.2-0.4-0.4-0.5c-0.2-0.1-0.4-0.2-0.6-0.3c-0.2-0.1-0.4-0.1-0.6,0h-0.9L563.6,229.7z M564.9,219.6
			c-1.2-0.1-2.4,0.2-3.5,0.9c-1,0.6-1.9,1.6-2.4,2.7c-0.5,1.1-0.7,2.3-0.5,3.5c0.2,1.2,0.8,2.3,1.6,3.2c0.8,0.9,1.9,1.5,3.1,1.7
			c1.2,0.3,2.4,0.2,3.6-0.3c1.1-0.4,2.1-1.2,2.8-2.2s1-2.2,1-3.4c0-0.8-0.1-1.6-0.4-2.3s-0.7-1.4-1.2-2c-0.5-0.6-1.2-1-1.9-1.3
			C566.5,219.7,565.7,219.6,564.9,219.6L564.9,219.6z M564.9,218.4c1.4,0,2.8,0.4,4,1.2c1.2,0.8,2.1,1.9,2.7,3.2
			c0.6,1.3,0.7,2.8,0.4,4.2c-0.3,1.4-1,2.7-2,3.7c-1,1-2.3,1.7-3.7,2c-1.4,0.3-2.9,0.1-4.2-0.4c-1.3-0.5-2.4-1.5-3.2-2.7
			c-0.8-1.2-1.2-2.6-1.2-4c0-0.9,0.2-1.9,0.5-2.7c0.4-0.9,0.9-1.7,1.5-2.3c0.7-0.7,1.5-1.2,2.3-1.6
			C563.1,218.6,564,218.4,564.9,218.4z"/>
		<path fill="#261C02" d="M254.7,261.2l-1.2-15c-0.3-3.6-0.3-7.4-0.3-10.9h-1.1l-9.9,25.9H254.7z M229.3,292h-32.8l43.2-85H274
			l16.9,85h-32.8l-1.1-10.7h-23.4L229.3,292z"/>
		<path fill="#261C02" d="M325.7,270h1.7c8.9,0,16.4-4.1,17.8-13.7c1.6-10.3-3.6-14.7-13.4-14.7h-1.7L325.7,270z M307.1,218.6h27.3
			c24.7,0,41.9,10.8,37.7,37.8c-3.5,21.8-21.1,35.7-42.7,35.7h-33.9L307.1,218.6z"/>
		<path fill="#261C02" d="M438.6,265.7l1.2,1.1c4.5,4.1,10.3,6.5,16.4,6.7c2.8,0,7.3-1.1,7.9-4.4c0.6-3.3-3.1-3.6-5.6-4.1l-5.5-1
			c-10.7-1.9-18.9-8-17-19.5c2.9-17.4,21.2-27.2,38.1-27.2c8.3-0.2,16.4,2,23.4,6.4L487,242.7c-4.4-3.5-9.8-5.4-15.4-5.6
			c-2.5,0-6.2,0.9-6.7,3.9c-0.5,3,3,3.1,5.1,3.6l6.1,1.3c11.5,2.5,19.1,8.6,17,21c-2.9,17.5-21.2,26.2-37.9,26.2
			c-10,0-19.8-2.3-28.7-6.6L438.6,265.7z"/>
		<path fill="#261C02" d="M535.7,265.5l-1.1-13c-0.3-3.1-0.2-6.3-0.2-9.5h-1l-8.4,22.4H535.7z M513.8,292h-28.3l37.3-73.5h29.6
			L567,292h-28.4l-1-9.2h-20.2L513.8,292z"/>
		<path fill="#008C99" d="M424.2,269.7l-1.3-12.4l10.4-7.4l-11.2,0.1l-1.8-9.7l-6,9.7l-12.4-0.1l0,0.2l8.8,7.3l-5.5,12.5l11.1-8.1
			L424.2,269.7z"/>
		<path fill="#008C99" d="M211,326.5l4.2,2.5l2.5,1.7l0.9,0.7l0.5,0.4l0.2,0.3l0.2,0.5l0.4,1l0.3,1.1l0.2,0.8l0.2,0.3l0.2,0.2
			l0.3,0.2l0.3,0.3l0.8,0.5l1,0.7l1.1,0.9l1.1,1.1l0.5,0.6l0.4,0.6l0.4,0.6l0.3,0.6v0.3v0.3v0.7v0.6v0.6l-0.3,0.9l-0.2,0.4l-2-1.9
			l-0.2-0.2l-0.3-0.2l-0.7-0.3l-1.7-0.5l-5.5-1.6l-8.3-2.7l-5.1-1.6l-7.6-2.4l-6.5-12.7l-4.8-9.5l-1.3-3.1l4.7,2.5l9.5,5.7l13.5,8.3
			L211,326.5z M154.6,338.2l-5.5-1.8l0.2-0.7l0.3-1.3l1.3-4.4l0.2-0.8v-0.5l-0.1-0.3l-0.6,0.4l-1.3,0.9l-3.7,2.5l-0.9,0.5l-0.7,0.4
			l-0.6,0.2l-7.3-3.4l-3.3-2.2l-2.1-1.5l7.6-1.3h0.8h0.3l0.3-0.2v-0.2l-0.2-0.3h-0.2h-0.2h-0.3h-0.6l-0.7-0.1l-2.5-0.3l-4.1-0.6
			l-7.8-1l-1.3-1.3l-4.8-4.3l-3.6-3.6l-2.2-2.5l2.5,1.1l10.9,4.1l21.4,7.1l3.7,1.3l2.2,1l0.7,0.5l0.6,0.5l0.5,0.5l0.5,0.6l0.4,0.5
			l0.3,0.5l0.2,0.5v0.5v1.9L154.6,338.2z M49,225.6v-0.2l-2.9-10.1l-1-5.1l-0.5-5.5L43.9,194l5.5,7.5l5.4,6.4l2.8,3l1.7,1.6
			c6.1,6.2,12.9,11.8,20.2,16.5l8.6,5.7l10.7,6.7l16.3,9.2l17.1,9.2l9.5,4.4l6.6,3.1l5.7,2.5l6.3,2.8l4.8,10l7.6,16.5l8.4,16.6
			l7.1,14.6l2.5,5.1l2.7,5.3l1,2l3.5,7.1l0.5,1.2l-4-0.8l-3.3-0.8l-2.7-0.9l-3.8-1.7l-3.2-1.8l-0.5-0.4l-3.9-3h5.4h0.6l0.6-0.3v-0.2
			l-0.2-0.2l-0.3-0.2l-0.5-0.2l-0.8-0.3l-1.1-0.3l-4.7-1l-3.7-1.1l-3.1-1.8l-2.2-1.8l-1.3-1.6l-1.6-1.9l-3.4-3.9l11.7,2.9l4.7,1.1
			l3,0.6h0.4h0.3l0.2-0.2l0.2-0.3v-0.2v-0.2v-0.2l-0.2-0.3l-0.4-0.3l-0.5-0.3l-0.7-0.4l-1-0.4l-17.1-6.9l-18.3-7.9l-12.7-6.4l-8-4.4
			l-4.4-2.8l12.5-2.1l8.9-2l6.6-1.9l0.2-0.4l-14.9,0.9l-15.3,0.4h-6.1l-17.2-13.2l-14-11.8l-6.9-6.7l-4.3-4.8l19.2,6l13.6,3.8
			l13.3,3.3l8.1,1.4l1,0.3h0.8h0.2l0.2-0.2l-0.4-0.3l-13-4.2l-19.8-7.1l-17.6-7.8l-8.1-4.3C56.2,245.4,49,225.6,49,225.6z
			 M150.7,198.8l9.6-12.7c2.6-3.2,5.3-6.2,8.2-9.1l7.6-7.2l-3.4,7.6c0,0-2.7,10.1-3.4,12.9c-0.7,2.8-2.3,13.1-2.3,13.1l-0.7,6.2
			l-0.7,12.2l0.7-0.4v-0.8l0.5-3.9l1.7-9.8l0.7-3.3c0,0,2.8-11.2,4-14.5c1.1-3.3,4.7-11.1,4.7-11.1l2.1-3.9l4.2-6.7l3.1-4.1l2.2-2.5
			l2.2-1.7l2.5-1.4l12.5-5.8l-5.1,5.3l-3.8,4.7l-3.8,5.3l-2.5,4l-3.1,5.9l-1.1,2.5c0,0-3.3,7.4-4.4,10.7c-1.1,3.3-4.4,15.2-4.4,15.2
			l-1.5,6.7l-1.4,12.4l-1,12.9v5.8l0.6,7l1.7,13.2l2.5,13.8l2.5,11.9l2.8,11l2.2,7.6l-7.2-4.1l-3.7-8.3L173,289l-4.3-10.5l-3.2-8.1
			l-7.2-3.6l-10.8-5.4l-13.5-8l-6-4.5l-3.7-3l2.5-5.6l3.9-7.6l7.1,9.2l6.3,7.4l0.7,0.4l-0.3-0.9l-1.5-3.6l-2.1-3.9l-2.5-4.8l-4-9.9
			l3.3-7.1l4.5-8.1l2.2,7l2.7,7l3.3,7.8l8.8,16.9h0.2l0.2-0.2v-0.2l-1.2-4.5l-1.8-6.2l-3.4-13.2l-2.5-15.4l-0.2-6.7v-1.5
			c-0.2-0.6,0.1-3.4,0.1-3.4L150.7,198.8z"/>
	</g>
</g>
</svg>
