<svg width="25" height="25" viewBox="0 0 25 25" fill="none" xmlns="http://www.w3.org/2000/svg">
<path d="M13.2812 19.1406C13.497 19.1406 13.6719 18.9657 13.6719 18.75C13.6719 18.5343 13.497 18.3594 13.2812 18.3594C13.0655 18.3594 12.8906 18.5343 12.8906 18.75C12.8906 18.9657 13.0655 19.1406 13.2812 19.1406Z" fill="#B4B4B4"/>
<path d="M12.1797 19.1406H9.78711C9.96797 20.7676 11.2621 22.0617 12.889 22.2426V19.85C12.5582 19.732 12.2976 19.4715 12.1797 19.1406Z" fill="#B4B4B4"/>
<path d="M13.6719 19.85V22.2426C15.2988 22.0617 16.593 20.7676 16.7738 19.1406H14.3813C14.2633 19.4715 14.0027 19.732 13.6719 19.85Z" fill="#B4B4B4"/>
<path d="M12.889 17.6501V15.2576C11.2621 15.4384 9.96797 16.7326 9.78711 18.3595H12.1797C12.2976 18.0287 12.5582 17.7681 12.889 17.6501Z" fill="#B4B4B4"/>
<path d="M4.91016 13.0891C4.81562 12.5211 4.32969 12.1094 3.7543 12.1094H2.12344C2.01484 12.4473 1.95312 12.8051 1.95312 13.1754V13.6719H5.00742L4.91016 13.0891Z" fill="#B4B4B4"/>
<path d="M13.6719 15.2576V17.6501C14.0027 17.7681 14.2633 18.0287 14.3813 18.3595H16.7738C16.593 16.7326 15.2988 15.4384 13.6719 15.2576Z" fill="#B4B4B4"/>
<path d="M1.17188 17.1875V17.9688C1.17188 18.1844 1.34688 18.3594 1.5625 18.3594H5.8793C5.90742 17.8211 5.9918 17.2988 6.12891 16.7969H1.5625C1.34688 16.7969 1.17188 16.9719 1.17188 17.1875Z" fill="#B4B4B4"/>
<path d="M19.5902 1.17188C18.4176 1.17188 17.2824 1.65937 16.4754 2.50898L10.3449 8.96211L4.99336 9.6918C3.92617 9.8375 3.02227 10.4621 2.48359 11.3281H3.7543C4.71289 11.3281 5.52305 12.0145 5.68086 12.9605L5.93008 14.4531H1.95312V16.0156H6.38789C7.47969 13.2738 10.1551 11.3281 13.2812 11.3281C17.2418 11.3281 20.4781 14.4488 20.6832 18.3594H23.8281V16.7969H21.1797L20.9641 15.9355C20.1711 12.7625 17.3328 10.5469 14.0625 10.5469H13.6719V7.03125C13.6719 6.47773 14.0586 6.01523 14.5754 5.89336L17.3746 2.83984C17.891 2.27656 18.6258 1.95312 19.3906 1.95312H23.8281V1.17188H19.5902Z" fill="#B4B4B4"/>
<path d="M14.4531 8.98438V9.775C17.916 9.94414 20.8738 12.3516 21.7215 15.7457L21.7891 16.0156H23.8281V10.5469H22.2656V9.76562H23.8281V8.98438H15.625H14.4531Z" fill="#B4B4B4"/>
<path d="M16.7969 7.03125C16.7969 6.81602 16.6219 6.64062 16.4062 6.64062H14.8438C14.6281 6.64062 14.4531 6.81602 14.4531 7.03125V8.20312H15.625C16.2711 8.20312 16.7969 7.67734 16.7969 7.03125Z" fill="#B4B4B4"/>
<path d="M17.952 3.36758L15.668 5.85938H16.4074C17.0535 5.85938 17.5793 6.38516 17.5793 7.03125C17.5793 7.47266 17.4266 7.87578 17.1785 8.20312H23.8293V2.73438H19.3918C18.8453 2.73438 18.3207 2.96523 17.952 3.36758Z" fill="#B4B4B4"/>
<path d="M13.2809 12.1094C9.75117 12.1094 6.86406 14.8797 6.66016 18.3594H7.44141C7.64375 15.3105 10.1816 12.8906 13.2809 12.8906C16.3801 12.8906 18.918 15.3105 19.1203 18.3594H19.9016C19.6977 14.8797 16.8105 12.1094 13.2809 12.1094Z" fill="#B4B4B4"/>
<path d="M13.2812 13.6719C10.4812 13.6719 8.20312 15.95 8.20312 18.75C8.20312 21.55 10.4812 23.8281 13.2812 23.8281C16.0813 23.8281 18.3594 21.55 18.3594 18.75C18.3594 15.95 16.0813 13.6719 13.2812 13.6719ZM13.2812 23.0469C10.9121 23.0469 8.98438 21.1191 8.98438 18.75C8.98438 16.3809 10.9121 14.4531 13.2812 14.4531C15.6504 14.4531 17.5781 16.3809 17.5781 18.75C17.5781 21.1191 15.6504 23.0469 13.2812 23.0469Z" fill="#B4B4B4"/>
</svg>
