<svg width="31" height="20" viewBox="0 0 31 20" fill="none" xmlns="http://www.w3.org/2000/svg">
<path d="M28.6626 6.38521C28.642 6.36151 28.6246 6.33844 28.6003 6.31536L27.5295 5.28203C28.4175 5.0806 29.3736 4.33663 29.3736 3.57332C29.3736 2.68404 28.1394 2.36849 27.0861 2.36849C25.9848 2.36849 25.8569 3.12307 25.8438 3.65626L23.0811 0.992797C22.5199 0.437155 21.4553 0 20.6596 0H15.2789H15.2777H9.89575C9.10062 0 8.03671 0.437155 7.47482 0.992797L4.71276 3.65626C4.69842 3.12307 4.57058 2.36849 3.4705 2.36849C2.41594 2.36849 1.1824 2.68404 1.1824 3.57332C1.1824 4.33663 2.13905 5.0806 3.0271 5.28203L1.95632 6.31536C1.932 6.33844 1.91516 6.36151 1.89396 6.38521C0.748355 7.36429 0 9.18026 0 10.498V14.4136C0 15.364 0.374801 16.2265 0.980345 16.8694V18.388C0.980345 19.276 1.72371 20 2.63795 20H4.64229C5.55653 20 6.29928 19.2772 6.29928 18.388V17.9994H15.2777H15.2789H24.2567V18.388C24.2567 19.2772 24.9988 20 25.9143 20H27.918C28.8329 20 29.575 19.276 29.575 18.388V16.8694C30.1812 16.2265 30.5553 15.364 30.5553 14.4136V10.498C30.5566 9.18026 29.8082 7.36429 28.6626 6.38521ZM8.48946 2.17642C8.87798 1.85276 9.55711 1.60706 9.89575 1.60706H15.2777H15.2789H20.6608C20.9995 1.60706 21.6786 1.85276 22.0671 2.17642L25.6898 5.68738H15.2789H15.2777H4.86742L8.48946 2.17642ZM1.24289 9.90552C1.24289 8.94141 1.99748 8.15877 2.92919 8.15877C3.86026 8.15877 6.90295 9.94481 6.90295 10.9089C6.90295 11.873 3.86026 11.6498 2.92919 11.6498C1.99748 11.6498 1.24289 10.8703 1.24289 9.90552ZM6.2999 16.2826H5.97873H5.65756L3.75238 16.2857C3.22354 16.1211 2.85061 15.929 2.58681 15.7226C2.45336 15.6185 2.35108 15.51 2.27126 15.4021C2.19081 15.2929 2.13219 15.1857 2.09415 15.0784C1.85717 14.4087 2.34672 13.7931 2.34672 13.7931H5.59832L7.76605 16.2814L6.2999 16.2826ZM19.9536 16.2839H15.2789H15.2777H10.6029C9.62821 16.2839 8.83682 15.4925 8.83682 14.5184H15.2777H15.2789H21.7198C21.7198 15.4937 20.9284 16.2839 19.9536 16.2839ZM20.364 13.3136H15.2789H15.2777H10.1926C9.13242 13.3136 8.27182 12.0065 8.27182 10.3944H15.2777H15.2789H22.2848C22.2848 12.0071 21.4242 13.3136 20.364 13.3136ZM28.4631 15.0797C28.4244 15.1869 28.3658 15.2942 28.2853 15.4027C28.2061 15.5106 28.1038 15.6191 27.9698 15.7232C27.7066 15.9297 27.333 16.123 26.8042 16.2864L24.899 16.2832H24.5778H24.2567H22.7893L24.9583 13.795H28.2092C28.2092 13.7944 28.6994 14.4087 28.4631 15.0797ZM27.6274 11.6498C26.6969 11.6498 23.6542 11.8718 23.6542 10.9089C23.6542 9.94606 26.6969 8.15877 27.6274 8.15877C28.5591 8.15877 29.3137 8.94141 29.3137 9.90552C29.3137 10.869 28.5591 11.6498 27.6274 11.6498Z" fill="#B4B4B4"/>
</svg>
