<svg width="24" height="24" viewBox="0 0 24 24" fill="none" xmlns="http://www.w3.org/2000/svg">
<path d="M21.5236 5.5163C21.5236 4.7543 20.9102 4.13588 20.1504 4.12697V2.61568C20.1504 2.4129 20.2602 2.22516 20.4369 2.12569L21.8758 1.31602C22.2142 1.12561 22.3341 0.696848 22.1437 0.358411C21.9533 0.0199734 21.5244 -0.0999329 21.1861 0.0904734L19.7472 0.900145C19.1285 1.24833 18.7441 1.90566 18.7441 2.61568V4.12655V5.64624H21.5236V5.5163Z" fill="#B4B4B4"/>
<path d="M21.7122 14.8699H20.8295V11.2102C20.6047 11.2685 20.3691 11.2995 20.1264 11.2995C19.8837 11.2995 19.648 11.2685 19.4233 11.2102V14.8699H16.3951C16.1661 14.4777 15.7514 14.2071 15.2715 14.1788V16.9673C15.7514 16.939 16.1661 16.6684 16.3952 16.2762H19.4233V20.5841C19.4233 21.8462 20.45 22.873 21.7122 22.873C22.9743 22.873 24.001 21.8462 24.001 20.5841V17.1588C24.001 15.8967 22.9743 14.8699 21.7122 14.8699ZM22.5948 20.5841C22.5948 21.0708 22.1989 21.4667 21.7122 21.4667C21.2255 21.4667 20.8295 21.0708 20.8295 20.5841V16.2762H21.7122C22.1989 16.2762 22.5948 16.6721 22.5948 17.1588V20.5841Z" fill="#B4B4B4"/>
<path d="M20.1254 9.89326C20.897 9.89326 21.5224 9.2678 21.5224 8.49629V7.05249H18.7285V8.49629C18.7285 9.26785 19.3539 9.89326 20.1254 9.89326Z" fill="#B4B4B4"/>
<path d="M13.9762 21.022H0.703125C0.314812 21.022 0 21.3368 0 21.7251V24.0001H14.6794V21.7251C14.6794 21.3368 14.3646 21.022 13.9762 21.022Z" fill="#B4B4B4"/>
<path d="M4.7207 4.21704H9.95978V5.57421H4.7207V4.21704Z" fill="#B4B4B4"/>
<path d="M6.925 11.3761C6.43272 11.98 6.15039 12.5373 6.15039 12.9052C6.15039 13.497 6.36095 13.7917 6.64511 13.9356V13.4284C6.64511 13.0498 6.93606 12.724 7.31425 12.7062C7.71803 12.6872 8.05136 13.0089 8.05136 13.4085V13.9276C8.3275 13.7808 8.53014 13.4859 8.53014 12.9052C8.53014 12.3212 7.88655 11.48 7.34153 10.9055C7.21239 11.0408 7.06806 11.2006 6.925 11.3761Z" fill="#B4B4B4"/>
<path d="M13.8654 0.703125C13.8654 0.314812 13.5506 0 13.1623 0H1.51953C1.13122 0 0.816406 0.314812 0.816406 0.703125V19.6156H13.8654V0.703125ZM8.05198 15.4001V16.3775C8.05198 16.7561 7.76103 17.0819 7.38284 17.0997C6.97906 17.1187 6.64573 16.797 6.64573 16.3974V15.4035C5.45684 15.1548 4.74477 14.2448 4.74477 12.9052C4.74477 11.2937 6.66177 9.58575 6.88039 9.39633C7.14472 9.16725 7.53711 9.16725 7.80139 9.39633C8.01997 9.58575 9.93697 11.2938 9.93697 12.9052C9.93702 14.2388 9.23131 15.1468 8.05198 15.4001ZM11.3827 6.32278C11.3827 6.71109 11.0679 7.02591 10.6796 7.02591H4.00212C3.61381 7.02591 3.299 6.71109 3.299 6.32278V3.51562C3.299 3.12731 3.61381 2.8125 4.00212 2.8125H10.6796C11.0679 2.8125 11.3827 3.12731 11.3827 3.51562V6.32278Z" fill="#B4B4B4"/>
</svg>
