<svg width="24" height="24" viewBox="0 0 24 24" fill="none" xmlns="http://www.w3.org/2000/svg">
<path d="M11.2975 2.8125C8.58997 2.96796 6.05194 4.01917 4.02734 5.82385L7.02972 8.82605C7.69037 8.59149 8.40118 8.46332 9.1413 8.46332C9.89807 8.46332 10.6243 8.59717 11.2975 8.84198V2.8125Z" fill="#B4B4B4"/>
<path d="M14.0264 10.7741L19.7058 5.59241C17.7272 3.92926 15.2928 2.96118 12.7031 2.8125V9.56433C13.1993 9.90344 13.645 10.3112 14.0264 10.7741Z" fill="#B4B4B4"/>
<path d="M0 14.7917V15.4948H2.8125V14.7917C2.8125 12.5708 3.96259 10.6138 5.69824 9.48419L3.03241 6.81836C1.07227 9.01727 0 11.8219 0 14.7917Z" fill="#B4B4B4"/>
<path d="M20.2715 15.4949H24.0002V14.7917C24.0002 13.7693 23.8726 12.7666 23.6262 11.8013L20.2715 15.4949Z" fill="#B4B4B4"/>
<path d="M12.0007 15.5183C11.2494 15.5183 10.543 15.8109 10.0118 16.3421C8.91534 17.4387 8.91534 19.2229 10.0118 20.3195C10.543 20.8507 11.2494 21.1433 12.0007 21.1433C12.7518 21.1433 13.4582 20.8507 13.9894 20.3195C15.086 19.2229 15.086 17.4387 13.9894 16.3421C13.4582 15.8109 12.7518 15.5183 12.0007 15.5183Z" fill="#B4B4B4"/>
<path d="M21.0082 6.30713L12.4297 14.1338C13.3937 14.2308 14.2878 14.6533 14.9822 15.3476C15.6934 16.0588 16.0964 16.963 16.1927 17.8931L23.9994 9.29742V6.30713H21.0082Z" fill="#B4B4B4"/>
</svg>
