<svg width="31" height="34" viewBox="0 0 31 34" fill="none" xmlns="http://www.w3.org/2000/svg">
<path d="M23.9519 0.805213C18.3082 -0.268405 12.5848 -0.268405 6.93986 0.805213C4.47091 1.35512 1.36478 4.33157 0.757518 6.7257C-0.252506 11.3581 -0.252506 16.0541 0.757518 20.6865C1.36478 23.0806 4.47091 26.0571 6.93986 26.607C6.94048 26.6071 6.94111 26.6072 6.94173 26.6073C7.05171 26.6289 7.13189 26.7242 7.13189 26.8363V33.6224C7.13189 33.9616 7.54588 34.1286 7.78155 33.883L11.0049 30.5749C11.0049 30.5749 13.5735 27.9381 14.0353 27.464C14.0805 27.4176 14.1428 27.3925 14.2074 27.3943C17.4618 27.4844 20.7197 27.2216 23.9519 26.6071C26.4209 26.0572 29.5282 23.0807 30.1343 20.6866C31.1455 16.0542 31.1455 11.3582 30.1343 6.72582C29.5281 4.33157 26.4221 1.35512 23.9519 0.805213ZM24.0379 21.032C23.5442 22.0804 22.8257 22.9527 21.7892 23.5094C21.4968 23.6665 21.1473 23.7173 20.8172 23.8189C20.4376 23.7037 20.0759 23.6263 19.74 23.4869C16.259 22.0427 13.0554 20.1795 10.5177 17.3233C9.07463 15.6992 7.94502 13.8656 6.99036 11.9251C6.5376 11.0048 6.15603 10.0486 5.76711 9.09851C5.41236 8.23213 5.93482 7.33708 6.48485 6.6843C7.00096 6.07168 7.66508 5.60283 8.38432 5.2573C8.94569 4.98759 9.49946 5.14308 9.90946 5.61891C10.7958 6.64764 11.6099 7.72899 12.2692 8.92144C12.6746 9.65489 12.5633 10.5514 11.8286 11.0506C11.6501 11.1719 11.4873 11.3143 11.321 11.4514C11.1751 11.5714 11.0378 11.6928 10.9378 11.8554C10.755 12.1528 10.7463 12.5038 10.864 12.8272C11.77 15.3171 13.2972 17.2533 15.8033 18.2961C16.2044 18.4629 16.607 18.6572 17.069 18.6033C17.8428 18.5129 18.0933 17.6643 18.6354 17.2208C19.1654 16.7875 19.8426 16.7818 20.4135 17.143C20.9844 17.5044 21.5379 17.8923 22.0881 18.2844C22.6282 18.6692 23.1658 19.0456 23.664 19.4843C24.1427 19.906 24.3077 20.4594 24.0379 21.032ZM19.5435 12.9183C19.3274 12.9221 19.4123 12.9179 19.4945 12.9155C19.1462 12.9033 18.9568 12.6983 18.9194 12.365C18.8921 12.1215 18.8705 11.8747 18.8124 11.6378C18.6979 11.1712 18.4499 10.7387 18.0575 10.4528C17.8722 10.3178 17.6622 10.2193 17.4422 10.1559C17.1628 10.0752 16.8726 10.0974 16.5938 10.0291C16.2911 9.95503 16.1236 9.70976 16.1711 9.42571C16.2144 9.16722 16.4659 8.96546 16.7483 8.98591C18.5136 9.11335 19.7753 10.026 19.9553 12.1043C19.968 12.2509 19.983 12.4058 19.9505 12.5461C19.8976 12.7741 19.7346 12.8928 19.5699 12.9144C19.5834 12.9147 19.5807 12.9158 19.5435 12.9183ZM18.4458 8.16505C17.9041 7.89982 17.3183 7.73498 16.7245 7.63672C16.465 7.59382 16.2028 7.56776 15.942 7.53147C15.6261 7.48758 15.4575 7.2862 15.4723 6.97484C15.4863 6.68305 15.6995 6.47319 16.0175 6.49115C17.0624 6.5505 18.0717 6.77633 19.0007 7.26825C20.8898 8.26867 21.9689 9.8478 22.2839 11.9564C22.2982 12.0519 22.321 12.1465 22.3283 12.2424C22.3462 12.4791 22.3573 12.7161 22.3755 13.0282C22.368 13.0851 22.364 13.2188 22.3309 13.3447C22.2101 13.8019 21.517 13.8591 21.3574 13.3977C21.3101 13.2608 21.303 13.1051 21.3028 12.9577C21.3012 11.9933 21.0915 11.0299 20.6052 10.1908C20.1053 9.32869 19.3415 8.60372 18.4458 8.16505ZM24.283 14.6817C23.918 14.6861 23.7538 14.3807 23.7301 14.0534C23.6832 13.4054 23.6508 12.7547 23.5614 12.1121C23.09 8.72031 20.3854 5.91419 17.0094 5.31204C16.5014 5.22139 15.9813 5.19757 15.4668 5.14358C15.1415 5.10941 14.7154 5.08971 14.6434 4.68533C14.5829 4.34628 14.869 4.07632 15.1919 4.05899C15.2797 4.05425 15.3679 4.05824 15.4561 4.05861C19.8285 4.18119 15.723 4.06809 15.4678 4.05924C20.0157 4.19179 23.7497 7.21188 24.5504 11.7094C24.687 12.4764 24.7356 13.2606 24.7963 14.039C24.8218 14.3663 24.6364 14.6775 24.283 14.6817Z" fill="#5F1CB5"/>
</svg>
