<svg width="34" height="34" viewBox="0 0 34 34" fill="none" xmlns="http://www.w3.org/2000/svg">
<path d="M17.0068 0C7.63 0 0.0041723 7.6227 9.06203e-07 16.9927C-0.00104188 20.2036 0.897894 23.3306 2.5993 26.0363L3.00341 26.6792L1.28583 32.9504L7.71969 31.263L8.34071 31.6312C10.9504 33.1798 13.9424 33.999 16.9927 34H16.9995C26.369 34 33.9948 26.3768 33.999 17.0063C34.0005 12.4652 32.2339 8.19575 29.0246 4.98377C25.8152 1.7718 21.5468 0.00156431 17.0068 0ZM27.0056 24.2989C26.5796 25.4919 24.5382 26.5812 23.5564 26.7282C22.6757 26.8596 21.5619 26.9144 20.3376 26.5259C19.5951 26.2902 18.6435 25.9758 17.4239 25.4497C12.2978 23.2368 8.94973 18.0767 8.69423 17.7357C8.43873 17.3947 6.60749 14.9654 6.60749 12.4506C6.60749 9.93626 7.92774 8.69997 8.39598 8.18897C8.86474 7.67745 9.41849 7.5497 9.75898 7.5497C10.0995 7.5497 10.4405 7.55283 10.7382 7.56743C11.0521 7.58308 11.4734 7.44803 11.888 8.44447C12.314 9.4675 13.336 11.9818 13.4637 12.2373C13.5914 12.4933 13.6764 12.7916 13.5065 13.1326C13.336 13.4736 12.5319 14.5008 12.229 14.8799C12.0032 15.1615 11.7065 15.4112 12.0048 15.9227C12.3025 16.4337 13.3287 18.107 14.8476 19.4616C16.7998 21.2022 18.4464 21.7413 18.9574 21.9973C19.4679 22.2528 19.7662 22.2101 20.0644 21.8696C20.3621 21.5286 21.3419 20.3778 21.6824 19.8663C22.0229 19.3548 22.3639 19.4403 22.8321 19.6108C23.3009 19.7808 25.8131 21.0171 26.3241 21.2726C26.8351 21.5286 27.1756 21.6563 27.3033 21.8696C27.4316 22.0828 27.4316 23.1054 27.0056 24.2989Z" fill="#64B161"/>
</svg>
