<svg width="24" height="24" viewBox="0 0 24 24" fill="none" xmlns="http://www.w3.org/2000/svg">
<path d="M12 0C5.40891 0 0 5.40891 0 12C0 18.5911 5.40891 24 12 24C18.5911 24 24 18.5911 24 12C24 5.40891 18.5911 0 12 0ZM12 2.8125C16.1454 2.8125 19.6967 5.63602 20.812 9.42525C20.7481 9.26269 20.6265 9.12225 20.4555 9.04331C18.5178 8.14655 15.4394 7.07812 12 7.07812C8.56059 7.07812 5.48217 8.14655 3.54445 9.04331C3.3735 9.1223 3.25186 9.26269 3.18802 9.42525C4.30331 5.63602 7.85456 2.8125 12 2.8125ZM2.99414 13.8104C3.06459 14.0746 3.28627 14.2845 3.57398 14.3257L5.26331 14.5605C7.41459 14.8674 9.13256 16.5854 9.4395 18.7367L9.67434 20.426C9.70997 20.6753 9.87502 20.8701 10.0895 20.9648C6.55078 20.2057 3.71133 17.3646 2.99414 13.8104ZM12 14.1094C10.8368 14.1094 9.89062 13.1632 9.89062 12C9.89062 10.8368 10.8368 9.89062 12 9.89062C13.1632 9.89062 14.1094 10.8368 14.1094 12C14.1094 13.1632 13.1632 14.1094 12 14.1094ZM13.9105 20.9647C14.125 20.8701 14.29 20.6752 14.3257 20.426L14.5605 18.7366C14.8674 16.5854 16.5854 14.8674 18.7367 14.5605L20.426 14.3256C20.7137 14.2845 20.9354 14.0745 21.0059 13.8104C20.2887 17.3646 17.4492 20.2057 13.9105 20.9647Z" fill="#B4B4B4"/>
</svg>
